  0
SECTION
  2
BLOCKS
  0
ENDSEC
  0
SECTION
  2
ENTITIES
  0
LINE
  8
0
 10
-58.5
 11
-58.5
 20
-12.5
 21
12.5
  0
LINE
  8
0
 10
-58.5
 11
-18.5
 20
12.5
 21
12.5
  0
LINE
  8
0
 10
-18.5
 11
-18.108
 20
12.5
 21
12.485
  0
LINE
  8
0
 10
-18.108
 11
-17.718
 20
12.485
 21
12.438
  0
LINE
  8
0
 10
-17.718
 11
-17.333
 20
12.438
 21
12.362
  0
LINE
  8
0
 10
-17.333
 11
-16.955
 20
12.362
 21
12.255
  0
LINE
  8
0
 10
-16.955
 11
-16.587
 20
12.255
 21
12.119
  0
LINE
  8
0
 10
-16.587
 11
-16.23
 20
12.119
 21
11.955
  0
LINE
  8
0
 10
-16.23
 11
-15.888
 20
11.955
 21
11.763
  0
LINE
  8
0
 10
-15.888
 11
-15.561
 20
11.763
 21
11.545
  0
LINE
  8
0
 10
-15.561
 11
-15.253
 20
11.545
 21
11.302
  0
LINE
  8
0
 10
-15.253
 11
-14.964
 20
11.302
 21
11.036
  0
LINE
  8
0
 10
-14.964
 11
-14.698
 20
11.036
 21
10.747
  0
LINE
  8
0
 10
-14.698
 11
-14.455
 20
10.747
 21
10.439
  0
LINE
  8
0
 10
-14.455
 11
-14.237
 20
10.439
 21
10.112
  0
LINE
  8
0
 10
-14.237
 11
-14.045
 20
10.112
 21
9.77
  0
LINE
  8
0
 10
-14.045
 11
-13.881
 20
9.77
 21
9.413
  0
LINE
  8
0
 10
-13.881
 11
-13.745
 20
9.413
 21
9.045
  0
LINE
  8
0
 10
-13.745
 11
-13.638
 20
9.045
 21
8.667
  0
LINE
  8
0
 10
-13.638
 11
-13.562
 20
8.667
 21
8.282
  0
LINE
  8
0
 10
-13.562
 11
-13.515
 20
8.282
 21
7.892
  0
LINE
  8
0
 10
-13.515
 11
-13.5
 20
7.892
 21
7.5
  0
LINE
  8
0
 10
-13.5
 11
-13.5
 20
7.5
 21
-7.5
  0
LINE
  8
0
 10
-13.5
 11
-13.515
 20
-7.5
 21
-7.892
  0
LINE
  8
0
 10
-13.515
 11
-13.562
 20
-7.892
 21
-8.282
  0
LINE
  8
0
 10
-13.562
 11
-13.638
 20
-8.282
 21
-8.667
  0
LINE
  8
0
 10
-13.638
 11
-13.745
 20
-8.667
 21
-9.045
  0
LINE
  8
0
 10
-13.745
 11
-13.881
 20
-9.045
 21
-9.413
  0
LINE
  8
0
 10
-13.881
 11
-14.045
 20
-9.413
 21
-9.77
  0
LINE
  8
0
 10
-14.045
 11
-14.237
 20
-9.77
 21
-10.112
  0
LINE
  8
0
 10
-14.237
 11
-14.455
 20
-10.112
 21
-10.439
  0
LINE
  8
0
 10
-14.455
 11
-14.698
 20
-10.439
 21
-10.747
  0
LINE
  8
0
 10
-14.698
 11
-14.964
 20
-10.747
 21
-11.036
  0
LINE
  8
0
 10
-14.964
 11
-15.253
 20
-11.036
 21
-11.302
  0
LINE
  8
0
 10
-15.253
 11
-15.561
 20
-11.302
 21
-11.545
  0
LINE
  8
0
 10
-15.561
 11
-15.888
 20
-11.545
 21
-11.763
  0
LINE
  8
0
 10
-15.888
 11
-16.23
 20
-11.763
 21
-11.955
  0
LINE
  8
0
 10
-16.23
 11
-16.587
 20
-11.955
 21
-12.119
  0
LINE
  8
0
 10
-16.587
 11
-16.955
 20
-12.119
 21
-12.255
  0
LINE
  8
0
 10
-16.955
 11
-17.333
 20
-12.255
 21
-12.362
  0
LINE
  8
0
 10
-17.333
 11
-17.718
 20
-12.362
 21
-12.438
  0
LINE
  8
0
 10
-17.718
 11
-18.108
 20
-12.438
 21
-12.485
  0
LINE
  8
0
 10
-18.108
 11
-18.5
 20
-12.485
 21
-12.5
  0
LINE
  8
0
 10
-18.5
 11
-58.5
 20
-12.5
 21
-12.5
  0
LINE
  8
0
 10
-47.75
 11
-47.728
 20
-24
 21
-23.439
  0
LINE
  8
0
 10
-47.728
 11
-47.662
 20
-23.439
 21
-22.881
  0
LINE
  8
0
 10
-47.662
 11
-47.552
 20
-22.881
 21
-22.331
  0
LINE
  8
0
 10
-47.552
 11
-47.4
 20
-22.331
 21
-21.791
  0
LINE
  8
0
 10
-47.4
 11
-47.206
 20
-21.791
 21
-21.264
  0
LINE
  8
0
 10
-47.206
 11
-46.971
 20
-21.264
 21
-20.754
  0
LINE
  8
0
 10
-46.971
 11
-46.696
 20
-20.754
 21
-20.264
  0
LINE
  8
0
 10
-46.696
 11
-46.384
 20
-20.264
 21
-19.797
  0
LINE
  8
0
 10
-46.384
 11
-46.037
 20
-19.797
 21
-19.356
  0
LINE
  8
0
 10
-46.037
 11
-45.656
 20
-19.356
 21
-18.944
  0
LINE
  8
0
 10
-45.656
 11
-45.244
 20
-18.944
 21
-18.563
  0
LINE
  8
0
 10
-45.244
 11
-44.803
 20
-18.563
 21
-18.216
  0
LINE
  8
0
 10
-44.803
 11
-44.336
 20
-18.216
 21
-17.904
  0
LINE
  8
0
 10
-44.336
 11
-43.846
 20
-17.904
 21
-17.629
  0
LINE
  8
0
 10
-43.846
 11
-43.336
 20
-17.629
 21
-17.394
  0
LINE
  8
0
 10
-43.336
 11
-42.809
 20
-17.394
 21
-17.2
  0
LINE
  8
0
 10
-42.809
 11
-42.269
 20
-17.2
 21
-17.048
  0
LINE
  8
0
 10
-42.269
 11
-41.719
 20
-17.048
 21
-16.938
  0
LINE
  8
0
 10
-41.719
 11
-41.161
 20
-16.938
 21
-16.872
  0
LINE
  8
0
 10
-41.161
 11
-40.6
 20
-16.872
 21
-16.85
  0
LINE
  8
0
 10
-40.6
 11
-40.039
 20
-16.85
 21
-16.872
  0
LINE
  8
0
 10
-40.039
 11
-39.481
 20
-16.872
 21
-16.938
  0
LINE
  8
0
 10
-39.481
 11
-38.931
 20
-16.938
 21
-17.048
  0
LINE
  8
0
 10
-38.931
 11
-38.391
 20
-17.048
 21
-17.2
  0
LINE
  8
0
 10
-38.391
 11
-37.864
 20
-17.2
 21
-17.394
  0
LINE
  8
0
 10
-37.864
 11
-37.354
 20
-17.394
 21
-17.629
  0
LINE
  8
0
 10
-37.354
 11
-36.864
 20
-17.629
 21
-17.904
  0
LINE
  8
0
 10
-36.864
 11
-36.397
 20
-17.904
 21
-18.216
  0
LINE
  8
0
 10
-36.397
 11
-35.956
 20
-18.216
 21
-18.563
  0
LINE
  8
0
 10
-35.956
 11
-35.544
 20
-18.563
 21
-18.944
  0
LINE
  8
0
 10
-35.544
 11
-35.163
 20
-18.944
 21
-19.356
  0
LINE
  8
0
 10
-35.163
 11
-34.816
 20
-19.356
 21
-19.797
  0
LINE
  8
0
 10
-34.816
 11
-34.504
 20
-19.797
 21
-20.264
  0
LINE
  8
0
 10
-34.504
 11
-34.229
 20
-20.264
 21
-20.754
  0
LINE
  8
0
 10
-34.229
 11
-33.994
 20
-20.754
 21
-21.264
  0
LINE
  8
0
 10
-33.994
 11
-33.8
 20
-21.264
 21
-21.791
  0
LINE
  8
0
 10
-33.8
 11
-33.648
 20
-21.791
 21
-22.331
  0
LINE
  8
0
 10
-33.648
 11
-33.538
 20
-22.331
 21
-22.881
  0
LINE
  8
0
 10
-33.538
 11
-33.472
 20
-22.881
 21
-23.439
  0
LINE
  8
0
 10
-33.472
 11
-33.45
 20
-23.439
 21
-24
  0
LINE
  8
0
 10
-33.45
 11
-33.472
 20
-24
 21
-24.561
  0
LINE
  8
0
 10
-33.472
 11
-33.538
 20
-24.561
 21
-25.119
  0
LINE
  8
0
 10
-33.538
 11
-33.648
 20
-25.119
 21
-25.669
  0
LINE
  8
0
 10
-33.648
 11
-33.8
 20
-25.669
 21
-26.209
  0
LINE
  8
0
 10
-33.8
 11
-33.994
 20
-26.209
 21
-26.736
  0
LINE
  8
0
 10
-33.994
 11
-34.229
 20
-26.736
 21
-27.246
  0
LINE
  8
0
 10
-34.229
 11
-34.504
 20
-27.246
 21
-27.736
  0
LINE
  8
0
 10
-34.504
 11
-34.816
 20
-27.736
 21
-28.203
  0
LINE
  8
0
 10
-34.816
 11
-35.163
 20
-28.203
 21
-28.644
  0
LINE
  8
0
 10
-35.163
 11
-35.544
 20
-28.644
 21
-29.056
  0
LINE
  8
0
 10
-35.544
 11
-35.956
 20
-29.056
 21
-29.437
  0
LINE
  8
0
 10
-35.956
 11
-36.397
 20
-29.437
 21
-29.784
  0
LINE
  8
0
 10
-36.397
 11
-36.864
 20
-29.784
 21
-30.096
  0
LINE
  8
0
 10
-36.864
 11
-37.354
 20
-30.096
 21
-30.371
  0
LINE
  8
0
 10
-37.354
 11
-37.864
 20
-30.371
 21
-30.606
  0
LINE
  8
0
 10
-37.864
 11
-38.391
 20
-30.606
 21
-30.8
  0
LINE
  8
0
 10
-38.391
 11
-38.931
 20
-30.8
 21
-30.952
  0
LINE
  8
0
 10
-38.931
 11
-39.481
 20
-30.952
 21
-31.062
  0
LINE
  8
0
 10
-39.481
 11
-40.039
 20
-31.062
 21
-31.128
  0
LINE
  8
0
 10
-40.039
 11
-40.6
 20
-31.128
 21
-31.15
  0
LINE
  8
0
 10
-40.6
 11
-41.161
 20
-31.15
 21
-31.128
  0
LINE
  8
0
 10
-41.161
 11
-41.719
 20
-31.128
 21
-31.062
  0
LINE
  8
0
 10
-41.719
 11
-42.269
 20
-31.062
 21
-30.952
  0
LINE
  8
0
 10
-42.269
 11
-42.809
 20
-30.952
 21
-30.8
  0
LINE
  8
0
 10
-42.809
 11
-43.336
 20
-30.8
 21
-30.606
  0
LINE
  8
0
 10
-43.336
 11
-43.846
 20
-30.606
 21
-30.371
  0
LINE
  8
0
 10
-43.846
 11
-44.336
 20
-30.371
 21
-30.096
  0
LINE
  8
0
 10
-44.336
 11
-44.803
 20
-30.096
 21
-29.784
  0
LINE
  8
0
 10
-44.803
 11
-45.244
 20
-29.784
 21
-29.437
  0
LINE
  8
0
 10
-45.244
 11
-45.656
 20
-29.437
 21
-29.056
  0
LINE
  8
0
 10
-45.656
 11
-46.037
 20
-29.056
 21
-28.644
  0
LINE
  8
0
 10
-46.037
 11
-46.384
 20
-28.644
 21
-28.203
  0
LINE
  8
0
 10
-46.384
 11
-46.696
 20
-28.203
 21
-27.736
  0
LINE
  8
0
 10
-46.696
 11
-46.971
 20
-27.736
 21
-27.246
  0
LINE
  8
0
 10
-46.971
 11
-47.206
 20
-27.246
 21
-26.736
  0
LINE
  8
0
 10
-47.206
 11
-47.4
 20
-26.736
 21
-26.209
  0
LINE
  8
0
 10
-47.4
 11
-47.552
 20
-26.209
 21
-25.669
  0
LINE
  8
0
 10
-47.552
 11
-47.662
 20
-25.669
 21
-25.119
  0
LINE
  8
0
 10
-47.662
 11
-47.728
 20
-25.119
 21
-24.561
  0
LINE
  8
0
 10
-47.728
 11
-47.75
 20
-24.561
 21
-24
  0
LINE
  8
0
 10
-45.8
 11
-45.784
 20
-24
 21
-23.592
  0
LINE
  8
0
 10
-45.784
 11
-45.736
 20
-23.592
 21
-23.187
  0
LINE
  8
0
 10
-45.736
 11
-45.656
 20
-23.187
 21
-22.786
  0
LINE
  8
0
 10
-45.656
 11
-45.545
 20
-22.786
 21
-22.393
  0
LINE
  8
0
 10
-45.545
 11
-45.404
 20
-22.393
 21
-22.01
  0
LINE
  8
0
 10
-45.404
 11
-45.233
 20
-22.01
 21
-21.639
  0
LINE
  8
0
 10
-45.233
 11
-45.034
 20
-21.639
 21
-21.283
  0
LINE
  8
0
 10
-45.034
 11
-44.807
 20
-21.283
 21
-20.944
  0
LINE
  8
0
 10
-44.807
 11
-44.554
 20
-20.944
 21
-20.623
  0
LINE
  8
0
 10
-44.554
 11
-44.277
 20
-20.623
 21
-20.323
  0
LINE
  8
0
 10
-44.277
 11
-43.977
 20
-20.323
 21
-20.046
  0
LINE
  8
0
 10
-43.977
 11
-43.656
 20
-20.046
 21
-19.793
  0
LINE
  8
0
 10
-43.656
 11
-43.317
 20
-19.793
 21
-19.566
  0
LINE
  8
0
 10
-43.317
 11
-42.961
 20
-19.566
 21
-19.367
  0
LINE
  8
0
 10
-42.961
 11
-42.59
 20
-19.367
 21
-19.196
  0
LINE
  8
0
 10
-42.59
 11
-42.207
 20
-19.196
 21
-19.055
  0
LINE
  8
0
 10
-42.207
 11
-41.814
 20
-19.055
 21
-18.944
  0
LINE
  8
0
 10
-41.814
 11
-41.413
 20
-18.944
 21
-18.864
  0
LINE
  8
0
 10
-41.413
 11
-41.008
 20
-18.864
 21
-18.816
  0
LINE
  8
0
 10
-41.008
 11
-40.6
 20
-18.816
 21
-18.8
  0
LINE
  8
0
 10
-40.6
 11
-40.192
 20
-18.8
 21
-18.816
  0
LINE
  8
0
 10
-40.192
 11
-39.787
 20
-18.816
 21
-18.864
  0
LINE
  8
0
 10
-39.787
 11
-39.386
 20
-18.864
 21
-18.944
  0
LINE
  8
0
 10
-39.386
 11
-38.993
 20
-18.944
 21
-19.055
  0
LINE
  8
0
 10
-38.993
 11
-38.61
 20
-19.055
 21
-19.196
  0
LINE
  8
0
 10
-38.61
 11
-38.239
 20
-19.196
 21
-19.367
  0
LINE
  8
0
 10
-38.239
 11
-37.883
 20
-19.367
 21
-19.566
  0
LINE
  8
0
 10
-37.883
 11
-37.544
 20
-19.566
 21
-19.793
  0
LINE
  8
0
 10
-37.544
 11
-37.223
 20
-19.793
 21
-20.046
  0
LINE
  8
0
 10
-37.223
 11
-36.923
 20
-20.046
 21
-20.323
  0
LINE
  8
0
 10
-36.923
 11
-36.646
 20
-20.323
 21
-20.623
  0
LINE
  8
0
 10
-36.646
 11
-36.393
 20
-20.623
 21
-20.944
  0
LINE
  8
0
 10
-36.393
 11
-36.166
 20
-20.944
 21
-21.283
  0
LINE
  8
0
 10
-36.166
 11
-35.967
 20
-21.283
 21
-21.639
  0
LINE
  8
0
 10
-35.967
 11
-35.796
 20
-21.639
 21
-22.01
  0
LINE
  8
0
 10
-35.796
 11
-35.655
 20
-22.01
 21
-22.393
  0
LINE
  8
0
 10
-35.655
 11
-35.544
 20
-22.393
 21
-22.786
  0
LINE
  8
0
 10
-35.544
 11
-35.464
 20
-22.786
 21
-23.187
  0
LINE
  8
0
 10
-35.464
 11
-35.416
 20
-23.187
 21
-23.592
  0
LINE
  8
0
 10
-35.416
 11
-35.4
 20
-23.592
 21
-24
  0
LINE
  8
0
 10
-35.4
 11
-35.416
 20
-24
 21
-24.408
  0
LINE
  8
0
 10
-35.416
 11
-35.464
 20
-24.408
 21
-24.813
  0
LINE
  8
0
 10
-35.464
 11
-35.544
 20
-24.813
 21
-25.214
  0
LINE
  8
0
 10
-35.544
 11
-35.655
 20
-25.214
 21
-25.607
  0
LINE
  8
0
 10
-35.655
 11
-35.796
 20
-25.607
 21
-25.99
  0
LINE
  8
0
 10
-35.796
 11
-35.967
 20
-25.99
 21
-26.361
  0
LINE
  8
0
 10
-35.967
 11
-36.166
 20
-26.361
 21
-26.717
  0
LINE
  8
0
 10
-36.166
 11
-36.393
 20
-26.717
 21
-27.056
  0
LINE
  8
0
 10
-36.393
 11
-36.646
 20
-27.056
 21
-27.377
  0
LINE
  8
0
 10
-36.646
 11
-36.923
 20
-27.377
 21
-27.677
  0
LINE
  8
0
 10
-36.923
 11
-37.223
 20
-27.677
 21
-27.954
  0
LINE
  8
0
 10
-37.223
 11
-37.544
 20
-27.954
 21
-28.207
  0
LINE
  8
0
 10
-37.544
 11
-37.883
 20
-28.207
 21
-28.434
  0
LINE
  8
0
 10
-37.883
 11
-38.239
 20
-28.434
 21
-28.633
  0
LINE
  8
0
 10
-38.239
 11
-38.61
 20
-28.633
 21
-28.804
  0
LINE
  8
0
 10
-38.61
 11
-38.993
 20
-28.804
 21
-28.945
  0
LINE
  8
0
 10
-38.993
 11
-39.386
 20
-28.945
 21
-29.056
  0
LINE
  8
0
 10
-39.386
 11
-39.787
 20
-29.056
 21
-29.136
  0
LINE
  8
0
 10
-39.787
 11
-40.192
 20
-29.136
 21
-29.184
  0
LINE
  8
0
 10
-40.192
 11
-40.6
 20
-29.184
 21
-29.2
  0
LINE
  8
0
 10
-40.6
 11
-41.008
 20
-29.2
 21
-29.184
  0
LINE
  8
0
 10
-41.008
 11
-41.413
 20
-29.184
 21
-29.136
  0
LINE
  8
0
 10
-41.413
 11
-41.814
 20
-29.136
 21
-29.056
  0
LINE
  8
0
 10
-41.814
 11
-42.207
 20
-29.056
 21
-28.945
  0
LINE
  8
0
 10
-42.207
 11
-42.59
 20
-28.945
 21
-28.804
  0
LINE
  8
0
 10
-42.59
 11
-42.961
 20
-28.804
 21
-28.633
  0
LINE
  8
0
 10
-42.961
 11
-43.317
 20
-28.633
 21
-28.434
  0
LINE
  8
0
 10
-43.317
 11
-43.656
 20
-28.434
 21
-28.207
  0
LINE
  8
0
 10
-43.656
 11
-43.977
 20
-28.207
 21
-27.954
  0
LINE
  8
0
 10
-43.977
 11
-44.277
 20
-27.954
 21
-27.677
  0
LINE
  8
0
 10
-44.277
 11
-44.554
 20
-27.677
 21
-27.377
  0
LINE
  8
0
 10
-44.554
 11
-44.807
 20
-27.377
 21
-27.056
  0
LINE
  8
0
 10
-44.807
 11
-45.034
 20
-27.056
 21
-26.717
  0
LINE
  8
0
 10
-45.034
 11
-45.233
 20
-26.717
 21
-26.361
  0
LINE
  8
0
 10
-45.233
 11
-45.404
 20
-26.361
 21
-25.99
  0
LINE
  8
0
 10
-45.404
 11
-45.545
 20
-25.99
 21
-25.607
  0
LINE
  8
0
 10
-45.545
 11
-45.656
 20
-25.607
 21
-25.214
  0
LINE
  8
0
 10
-45.656
 11
-45.736
 20
-25.214
 21
-24.813
  0
LINE
  8
0
 10
-45.736
 11
-45.784
 20
-24.813
 21
-24.408
  0
LINE
  8
0
 10
-45.784
 11
-45.8
 20
-24.408
 21
-24
  0
LINE
  8
0
 10
-32.75
 11
-32.728
 20
-24
 21
-23.439
  0
LINE
  8
0
 10
-32.728
 11
-32.662
 20
-23.439
 21
-22.881
  0
LINE
  8
0
 10
-32.662
 11
-32.552
 20
-22.881
 21
-22.331
  0
LINE
  8
0
 10
-32.552
 11
-32.4
 20
-22.331
 21
-21.791
  0
LINE
  8
0
 10
-32.4
 11
-32.206
 20
-21.791
 21
-21.264
  0
LINE
  8
0
 10
-32.206
 11
-31.971
 20
-21.264
 21
-20.754
  0
LINE
  8
0
 10
-31.971
 11
-31.696
 20
-20.754
 21
-20.264
  0
LINE
  8
0
 10
-31.696
 11
-31.384
 20
-20.264
 21
-19.797
  0
LINE
  8
0
 10
-31.384
 11
-31.037
 20
-19.797
 21
-19.356
  0
LINE
  8
0
 10
-31.037
 11
-30.656
 20
-19.356
 21
-18.944
  0
LINE
  8
0
 10
-30.656
 11
-30.244
 20
-18.944
 21
-18.563
  0
LINE
  8
0
 10
-30.244
 11
-29.803
 20
-18.563
 21
-18.216
  0
LINE
  8
0
 10
-29.803
 11
-29.336
 20
-18.216
 21
-17.904
  0
LINE
  8
0
 10
-29.336
 11
-28.846
 20
-17.904
 21
-17.629
  0
LINE
  8
0
 10
-28.846
 11
-28.336
 20
-17.629
 21
-17.394
  0
LINE
  8
0
 10
-28.336
 11
-27.809
 20
-17.394
 21
-17.2
  0
LINE
  8
0
 10
-27.809
 11
-27.269
 20
-17.2
 21
-17.048
  0
LINE
  8
0
 10
-27.269
 11
-26.719
 20
-17.048
 21
-16.938
  0
LINE
  8
0
 10
-26.719
 11
-26.161
 20
-16.938
 21
-16.872
  0
LINE
  8
0
 10
-26.161
 11
-25.6
 20
-16.872
 21
-16.85
  0
LINE
  8
0
 10
-25.6
 11
-25.039
 20
-16.85
 21
-16.872
  0
LINE
  8
0
 10
-25.039
 11
-24.481
 20
-16.872
 21
-16.938
  0
LINE
  8
0
 10
-24.481
 11
-23.931
 20
-16.938
 21
-17.048
  0
LINE
  8
0
 10
-23.931
 11
-23.391
 20
-17.048
 21
-17.2
  0
LINE
  8
0
 10
-23.391
 11
-22.864
 20
-17.2
 21
-17.394
  0
LINE
  8
0
 10
-22.864
 11
-22.354
 20
-17.394
 21
-17.629
  0
LINE
  8
0
 10
-22.354
 11
-21.864
 20
-17.629
 21
-17.904
  0
LINE
  8
0
 10
-21.864
 11
-21.397
 20
-17.904
 21
-18.216
  0
LINE
  8
0
 10
-21.397
 11
-20.956
 20
-18.216
 21
-18.563
  0
LINE
  8
0
 10
-20.956
 11
-20.544
 20
-18.563
 21
-18.944
  0
LINE
  8
0
 10
-20.544
 11
-20.163
 20
-18.944
 21
-19.356
  0
LINE
  8
0
 10
-20.163
 11
-19.816
 20
-19.356
 21
-19.797
  0
LINE
  8
0
 10
-19.816
 11
-19.504
 20
-19.797
 21
-20.264
  0
LINE
  8
0
 10
-19.504
 11
-19.229
 20
-20.264
 21
-20.754
  0
LINE
  8
0
 10
-19.229
 11
-18.994
 20
-20.754
 21
-21.264
  0
LINE
  8
0
 10
-18.994
 11
-18.8
 20
-21.264
 21
-21.791
  0
LINE
  8
0
 10
-18.8
 11
-18.648
 20
-21.791
 21
-22.331
  0
LINE
  8
0
 10
-18.648
 11
-18.538
 20
-22.331
 21
-22.881
  0
LINE
  8
0
 10
-18.538
 11
-18.472
 20
-22.881
 21
-23.439
  0
LINE
  8
0
 10
-18.472
 11
-18.45
 20
-23.439
 21
-24
  0
LINE
  8
0
 10
-18.45
 11
-18.472
 20
-24
 21
-24.561
  0
LINE
  8
0
 10
-18.472
 11
-18.538
 20
-24.561
 21
-25.119
  0
LINE
  8
0
 10
-18.538
 11
-18.648
 20
-25.119
 21
-25.669
  0
LINE
  8
0
 10
-18.648
 11
-18.8
 20
-25.669
 21
-26.209
  0
LINE
  8
0
 10
-18.8
 11
-18.994
 20
-26.209
 21
-26.736
  0
LINE
  8
0
 10
-18.994
 11
-19.229
 20
-26.736
 21
-27.246
  0
LINE
  8
0
 10
-19.229
 11
-19.504
 20
-27.246
 21
-27.736
  0
LINE
  8
0
 10
-19.504
 11
-19.816
 20
-27.736
 21
-28.203
  0
LINE
  8
0
 10
-19.816
 11
-20.163
 20
-28.203
 21
-28.644
  0
LINE
  8
0
 10
-20.163
 11
-20.544
 20
-28.644
 21
-29.056
  0
LINE
  8
0
 10
-20.544
 11
-20.956
 20
-29.056
 21
-29.437
  0
LINE
  8
0
 10
-20.956
 11
-21.397
 20
-29.437
 21
-29.784
  0
LINE
  8
0
 10
-21.397
 11
-21.864
 20
-29.784
 21
-30.096
  0
LINE
  8
0
 10
-21.864
 11
-22.354
 20
-30.096
 21
-30.371
  0
LINE
  8
0
 10
-22.354
 11
-22.864
 20
-30.371
 21
-30.606
  0
LINE
  8
0
 10
-22.864
 11
-23.391
 20
-30.606
 21
-30.8
  0
LINE
  8
0
 10
-23.391
 11
-23.931
 20
-30.8
 21
-30.952
  0
LINE
  8
0
 10
-23.931
 11
-24.481
 20
-30.952
 21
-31.062
  0
LINE
  8
0
 10
-24.481
 11
-25.039
 20
-31.062
 21
-31.128
  0
LINE
  8
0
 10
-25.039
 11
-25.6
 20
-31.128
 21
-31.15
  0
LINE
  8
0
 10
-25.6
 11
-26.161
 20
-31.15
 21
-31.128
  0
LINE
  8
0
 10
-26.161
 11
-26.719
 20
-31.128
 21
-31.062
  0
LINE
  8
0
 10
-26.719
 11
-27.269
 20
-31.062
 21
-30.952
  0
LINE
  8
0
 10
-27.269
 11
-27.809
 20
-30.952
 21
-30.8
  0
LINE
  8
0
 10
-27.809
 11
-28.336
 20
-30.8
 21
-30.606
  0
LINE
  8
0
 10
-28.336
 11
-28.846
 20
-30.606
 21
-30.371
  0
LINE
  8
0
 10
-28.846
 11
-29.336
 20
-30.371
 21
-30.096
  0
LINE
  8
0
 10
-29.336
 11
-29.803
 20
-30.096
 21
-29.784
  0
LINE
  8
0
 10
-29.803
 11
-30.244
 20
-29.784
 21
-29.437
  0
LINE
  8
0
 10
-30.244
 11
-30.656
 20
-29.437
 21
-29.056
  0
LINE
  8
0
 10
-30.656
 11
-31.037
 20
-29.056
 21
-28.644
  0
LINE
  8
0
 10
-31.037
 11
-31.384
 20
-28.644
 21
-28.203
  0
LINE
  8
0
 10
-31.384
 11
-31.696
 20
-28.203
 21
-27.736
  0
LINE
  8
0
 10
-31.696
 11
-31.971
 20
-27.736
 21
-27.246
  0
LINE
  8
0
 10
-31.971
 11
-32.206
 20
-27.246
 21
-26.736
  0
LINE
  8
0
 10
-32.206
 11
-32.4
 20
-26.736
 21
-26.209
  0
LINE
  8
0
 10
-32.4
 11
-32.552
 20
-26.209
 21
-25.669
  0
LINE
  8
0
 10
-32.552
 11
-32.662
 20
-25.669
 21
-25.119
  0
LINE
  8
0
 10
-32.662
 11
-32.728
 20
-25.119
 21
-24.561
  0
LINE
  8
0
 10
-32.728
 11
-32.75
 20
-24.561
 21
-24
  0
LINE
  8
0
 10
-30.8
 11
-30.784
 20
-24
 21
-23.592
  0
LINE
  8
0
 10
-30.784
 11
-30.736
 20
-23.592
 21
-23.187
  0
LINE
  8
0
 10
-30.736
 11
-30.656
 20
-23.187
 21
-22.786
  0
LINE
  8
0
 10
-30.656
 11
-30.545
 20
-22.786
 21
-22.393
  0
LINE
  8
0
 10
-30.545
 11
-30.404
 20
-22.393
 21
-22.01
  0
LINE
  8
0
 10
-30.404
 11
-30.233
 20
-22.01
 21
-21.639
  0
LINE
  8
0
 10
-30.233
 11
-30.034
 20
-21.639
 21
-21.283
  0
LINE
  8
0
 10
-30.034
 11
-29.807
 20
-21.283
 21
-20.944
  0
LINE
  8
0
 10
-29.807
 11
-29.554
 20
-20.944
 21
-20.623
  0
LINE
  8
0
 10
-29.554
 11
-29.277
 20
-20.623
 21
-20.323
  0
LINE
  8
0
 10
-29.277
 11
-28.977
 20
-20.323
 21
-20.046
  0
LINE
  8
0
 10
-28.977
 11
-28.656
 20
-20.046
 21
-19.793
  0
LINE
  8
0
 10
-28.656
 11
-28.317
 20
-19.793
 21
-19.566
  0
LINE
  8
0
 10
-28.317
 11
-27.961
 20
-19.566
 21
-19.367
  0
LINE
  8
0
 10
-27.961
 11
-27.59
 20
-19.367
 21
-19.196
  0
LINE
  8
0
 10
-27.59
 11
-27.207
 20
-19.196
 21
-19.055
  0
LINE
  8
0
 10
-27.207
 11
-26.814
 20
-19.055
 21
-18.944
  0
LINE
  8
0
 10
-26.814
 11
-26.413
 20
-18.944
 21
-18.864
  0
LINE
  8
0
 10
-26.413
 11
-26.008
 20
-18.864
 21
-18.816
  0
LINE
  8
0
 10
-26.008
 11
-25.6
 20
-18.816
 21
-18.8
  0
LINE
  8
0
 10
-25.6
 11
-25.192
 20
-18.8
 21
-18.816
  0
LINE
  8
0
 10
-25.192
 11
-24.787
 20
-18.816
 21
-18.864
  0
LINE
  8
0
 10
-24.787
 11
-24.386
 20
-18.864
 21
-18.944
  0
LINE
  8
0
 10
-24.386
 11
-23.993
 20
-18.944
 21
-19.055
  0
LINE
  8
0
 10
-23.993
 11
-23.61
 20
-19.055
 21
-19.196
  0
LINE
  8
0
 10
-23.61
 11
-23.239
 20
-19.196
 21
-19.367
  0
LINE
  8
0
 10
-23.239
 11
-22.883
 20
-19.367
 21
-19.566
  0
LINE
  8
0
 10
-22.883
 11
-22.544
 20
-19.566
 21
-19.793
  0
LINE
  8
0
 10
-22.544
 11
-22.223
 20
-19.793
 21
-20.046
  0
LINE
  8
0
 10
-22.223
 11
-21.923
 20
-20.046
 21
-20.323
  0
LINE
  8
0
 10
-21.923
 11
-21.646
 20
-20.323
 21
-20.623
  0
LINE
  8
0
 10
-21.646
 11
-21.393
 20
-20.623
 21
-20.944
  0
LINE
  8
0
 10
-21.393
 11
-21.166
 20
-20.944
 21
-21.283
  0
LINE
  8
0
 10
-21.166
 11
-20.967
 20
-21.283
 21
-21.639
  0
LINE
  8
0
 10
-20.967
 11
-20.796
 20
-21.639
 21
-22.01
  0
LINE
  8
0
 10
-20.796
 11
-20.655
 20
-22.01
 21
-22.393
  0
LINE
  8
0
 10
-20.655
 11
-20.544
 20
-22.393
 21
-22.786
  0
LINE
  8
0
 10
-20.544
 11
-20.464
 20
-22.786
 21
-23.187
  0
LINE
  8
0
 10
-20.464
 11
-20.416
 20
-23.187
 21
-23.592
  0
LINE
  8
0
 10
-20.416
 11
-20.4
 20
-23.592
 21
-24
  0
LINE
  8
0
 10
-20.4
 11
-20.416
 20
-24
 21
-24.408
  0
LINE
  8
0
 10
-20.416
 11
-20.464
 20
-24.408
 21
-24.813
  0
LINE
  8
0
 10
-20.464
 11
-20.544
 20
-24.813
 21
-25.214
  0
LINE
  8
0
 10
-20.544
 11
-20.655
 20
-25.214
 21
-25.607
  0
LINE
  8
0
 10
-20.655
 11
-20.796
 20
-25.607
 21
-25.99
  0
LINE
  8
0
 10
-20.796
 11
-20.967
 20
-25.99
 21
-26.361
  0
LINE
  8
0
 10
-20.967
 11
-21.166
 20
-26.361
 21
-26.717
  0
LINE
  8
0
 10
-21.166
 11
-21.393
 20
-26.717
 21
-27.056
  0
LINE
  8
0
 10
-21.393
 11
-21.646
 20
-27.056
 21
-27.377
  0
LINE
  8
0
 10
-21.646
 11
-21.923
 20
-27.377
 21
-27.677
  0
LINE
  8
0
 10
-21.923
 11
-22.223
 20
-27.677
 21
-27.954
  0
LINE
  8
0
 10
-22.223
 11
-22.544
 20
-27.954
 21
-28.207
  0
LINE
  8
0
 10
-22.544
 11
-22.883
 20
-28.207
 21
-28.434
  0
LINE
  8
0
 10
-22.883
 11
-23.239
 20
-28.434
 21
-28.633
  0
LINE
  8
0
 10
-23.239
 11
-23.61
 20
-28.633
 21
-28.804
  0
LINE
  8
0
 10
-23.61
 11
-23.993
 20
-28.804
 21
-28.945
  0
LINE
  8
0
 10
-23.993
 11
-24.386
 20
-28.945
 21
-29.056
  0
LINE
  8
0
 10
-24.386
 11
-24.787
 20
-29.056
 21
-29.136
  0
LINE
  8
0
 10
-24.787
 11
-25.192
 20
-29.136
 21
-29.184
  0
LINE
  8
0
 10
-25.192
 11
-25.6
 20
-29.184
 21
-29.2
  0
LINE
  8
0
 10
-25.6
 11
-26.008
 20
-29.2
 21
-29.184
  0
LINE
  8
0
 10
-26.008
 11
-26.413
 20
-29.184
 21
-29.136
  0
LINE
  8
0
 10
-26.413
 11
-26.814
 20
-29.136
 21
-29.056
  0
LINE
  8
0
 10
-26.814
 11
-27.207
 20
-29.056
 21
-28.945
  0
LINE
  8
0
 10
-27.207
 11
-27.59
 20
-28.945
 21
-28.804
  0
LINE
  8
0
 10
-27.59
 11
-27.961
 20
-28.804
 21
-28.633
  0
LINE
  8
0
 10
-27.961
 11
-28.317
 20
-28.633
 21
-28.434
  0
LINE
  8
0
 10
-28.317
 11
-28.656
 20
-28.434
 21
-28.207
  0
LINE
  8
0
 10
-28.656
 11
-28.977
 20
-28.207
 21
-27.954
  0
LINE
  8
0
 10
-28.977
 11
-29.277
 20
-27.954
 21
-27.677
  0
LINE
  8
0
 10
-29.277
 11
-29.554
 20
-27.677
 21
-27.377
  0
LINE
  8
0
 10
-29.554
 11
-29.807
 20
-27.377
 21
-27.056
  0
LINE
  8
0
 10
-29.807
 11
-30.034
 20
-27.056
 21
-26.717
  0
LINE
  8
0
 10
-30.034
 11
-30.233
 20
-26.717
 21
-26.361
  0
LINE
  8
0
 10
-30.233
 11
-30.404
 20
-26.361
 21
-25.99
  0
LINE
  8
0
 10
-30.404
 11
-30.545
 20
-25.99
 21
-25.607
  0
LINE
  8
0
 10
-30.545
 11
-30.656
 20
-25.607
 21
-25.214
  0
LINE
  8
0
 10
-30.656
 11
-30.736
 20
-25.214
 21
-24.813
  0
LINE
  8
0
 10
-30.736
 11
-30.784
 20
-24.813
 21
-24.408
  0
LINE
  8
0
 10
-30.784
 11
-30.8
 20
-24.408
 21
-24
  0
LINE
  8
0
 10
-21.5
 11
-21.5
 20
-1.5
 21
1.5
  0
LINE
  8
0
 10
-21.5
 11
-18.5
 20
1.5
 21
1.5
  0
LINE
  8
0
 10
-18.5
 11
-18.5
 20
1.5
 21
-1.5
  0
LINE
  8
0
 10
-18.5
 11
-21.5
 20
-1.5
 21
-1.5
  0
LINE
  8
0
 10
-15.6
 11
-15.6
 20
-25.6
 21
-22.4
  0
LINE
  8
0
 10
-15.6
 11
-12.6
 20
-22.4
 21
-22.5
  0
LINE
  8
0
 10
-12.6
 11
-12.6
 20
-22.5
 21
-14
  0
LINE
  8
0
 10
-12.6
 11
27.4
 20
-14
 21
-14
  0
LINE
  8
0
 10
27.4
 11
27.4
 20
-14
 21
-22.5
  0
LINE
  8
0
 10
27.4
 11
30.4
 20
-22.5
 21
-22.4
  0
LINE
  8
0
 10
30.4
 11
30.4
 20
-22.4
 21
-25.6
  0
LINE
  8
0
 10
30.4
 11
27.4
 20
-25.6
 21
-25.5
  0
LINE
  8
0
 10
27.4
 11
27.4
 20
-25.5
 21
-34
  0
LINE
  8
0
 10
27.4
 11
-12.6
 20
-34
 21
-34
  0
LINE
  8
0
 10
-12.6
 11
-12.6
 20
-34
 21
-25.5
  0
LINE
  8
0
 10
-12.6
 11
-15.6
 20
-25.5
 21
-25.6
  0
LINE
  8
0
 10
-12.5
 11
-12.5
 20
-12.5
 21
12.5
  0
LINE
  8
0
 10
-12.5
 11
27.5
 20
12.5
 21
12.5
  0
LINE
  8
0
 10
27.5
 11
27.892
 20
12.5
 21
12.485
  0
LINE
  8
0
 10
27.892
 11
28.282
 20
12.485
 21
12.438
  0
LINE
  8
0
 10
28.282
 11
28.667
 20
12.438
 21
12.362
  0
LINE
  8
0
 10
28.667
 11
29.045
 20
12.362
 21
12.255
  0
LINE
  8
0
 10
29.045
 11
29.413
 20
12.255
 21
12.119
  0
LINE
  8
0
 10
29.413
 11
29.77
 20
12.119
 21
11.955
  0
LINE
  8
0
 10
29.77
 11
30.112
 20
11.955
 21
11.763
  0
LINE
  8
0
 10
30.112
 11
30.439
 20
11.763
 21
11.545
  0
LINE
  8
0
 10
30.439
 11
30.747
 20
11.545
 21
11.302
  0
LINE
  8
0
 10
30.747
 11
31.036
 20
11.302
 21
11.036
  0
LINE
  8
0
 10
31.036
 11
31.302
 20
11.036
 21
10.747
  0
LINE
  8
0
 10
31.302
 11
31.545
 20
10.747
 21
10.439
  0
LINE
  8
0
 10
31.545
 11
31.763
 20
10.439
 21
10.112
  0
LINE
  8
0
 10
31.763
 11
31.955
 20
10.112
 21
9.77
  0
LINE
  8
0
 10
31.955
 11
32.119
 20
9.77
 21
9.413
  0
LINE
  8
0
 10
32.119
 11
32.255
 20
9.413
 21
9.045
  0
LINE
  8
0
 10
32.255
 11
32.362
 20
9.045
 21
8.667
  0
LINE
  8
0
 10
32.362
 11
32.438
 20
8.667
 21
8.282
  0
LINE
  8
0
 10
32.438
 11
32.485
 20
8.282
 21
7.892
  0
LINE
  8
0
 10
32.485
 11
32.5
 20
7.892
 21
7.5
  0
LINE
  8
0
 10
32.5
 11
32.5
 20
7.5
 21
-7.5
  0
LINE
  8
0
 10
32.5
 11
32.485
 20
-7.5
 21
-7.892
  0
LINE
  8
0
 10
32.485
 11
32.438
 20
-7.892
 21
-8.282
  0
LINE
  8
0
 10
32.438
 11
32.362
 20
-8.282
 21
-8.667
  0
LINE
  8
0
 10
32.362
 11
32.255
 20
-8.667
 21
-9.045
  0
LINE
  8
0
 10
32.255
 11
32.119
 20
-9.045
 21
-9.413
  0
LINE
  8
0
 10
32.119
 11
31.955
 20
-9.413
 21
-9.77
  0
LINE
  8
0
 10
31.955
 11
31.763
 20
-9.77
 21
-10.112
  0
LINE
  8
0
 10
31.763
 11
31.545
 20
-10.112
 21
-10.439
  0
LINE
  8
0
 10
31.545
 11
31.302
 20
-10.439
 21
-10.747
  0
LINE
  8
0
 10
31.302
 11
31.036
 20
-10.747
 21
-11.036
  0
LINE
  8
0
 10
31.036
 11
30.747
 20
-11.036
 21
-11.302
  0
LINE
  8
0
 10
30.747
 11
30.439
 20
-11.302
 21
-11.545
  0
LINE
  8
0
 10
30.439
 11
30.112
 20
-11.545
 21
-11.763
  0
LINE
  8
0
 10
30.112
 11
29.77
 20
-11.763
 21
-11.955
  0
LINE
  8
0
 10
29.77
 11
29.413
 20
-11.955
 21
-12.119
  0
LINE
  8
0
 10
29.413
 11
29.045
 20
-12.119
 21
-12.255
  0
LINE
  8
0
 10
29.045
 11
28.667
 20
-12.255
 21
-12.362
  0
LINE
  8
0
 10
28.667
 11
28.282
 20
-12.362
 21
-12.438
  0
LINE
  8
0
 10
28.282
 11
27.892
 20
-12.438
 21
-12.485
  0
LINE
  8
0
 10
27.892
 11
27.5
 20
-12.485
 21
-12.5
  0
LINE
  8
0
 10
27.5
 11
-12.5
 20
-12.5
 21
-12.5
  0
LINE
  8
0
 10
-2.799
 11
-2.653
 20
0
 21
0.174
  0
LINE
  8
0
 10
-2.653
 11
-2.387
 20
0.174
 21
0.392
  0
LINE
  8
0
 10
-2.387
 11
-2.141
 20
0.392
 21
0.525
  0
LINE
  8
0
 10
-2.141
 11
-2.059
 20
0.525
 21
0.552
  0
LINE
  8
0
 10
-2.059
 11
-2.117
 20
0.552
 21
0.616
  0
LINE
  8
0
 10
-2.117
 11
-2.263
 20
0.616
 21
0.854
  0
LINE
  8
0
 10
-2.263
 11
-2.385
 20
0.854
 21
1.176
  0
LINE
  8
0
 10
-2.385
 11
-2.424
 20
1.176
 21
1.4
  0
LINE
  8
0
 10
-2.424
 11
-2.211
 20
1.4
 21
1.477
  0
LINE
  8
0
 10
-2.211
 11
-1.871
 20
1.477
 21
1.533
  0
LINE
  8
0
 10
-1.871
 11
-1.592
 20
1.533
 21
1.525
  0
LINE
  8
0
 10
-1.592
 11
-1.507
 20
1.525
 21
1.507
  0
LINE
  8
0
 10
-1.507
 11
-1.525
 20
1.507
 21
1.592
  0
LINE
  8
0
 10
-1.525
 11
-1.533
 20
1.592
 21
1.871
  0
LINE
  8
0
 10
-1.533
 11
-1.477
 20
1.871
 21
2.211
  0
LINE
  8
0
 10
-1.477
 11
-1.4
 20
2.211
 21
2.424
  0
LINE
  8
0
 10
-1.4
 11
-1.176
 20
2.424
 21
2.385
  0
LINE
  8
0
 10
-1.176
 11
-0.854
 20
2.385
 21
2.263
  0
LINE
  8
0
 10
-0.854
 11
-0.616
 20
2.263
 21
2.117
  0
LINE
  8
0
 10
-0.616
 11
-0.552
 20
2.117
 21
2.059
  0
LINE
  8
0
 10
-0.552
 11
-0.525
 20
2.059
 21
2.141
  0
LINE
  8
0
 10
-0.525
 11
-0.392
 20
2.141
 21
2.387
  0
LINE
  8
0
 10
-0.392
 11
-0.174
 20
2.387
 21
2.653
  0
LINE
  8
0
 10
-0.174
 11
0
 20
2.653
 21
2.799
  0
LINE
  8
0
 10
0
 11
0.174
 20
2.799
 21
2.653
  0
LINE
  8
0
 10
0.174
 11
0.392
 20
2.653
 21
2.387
  0
LINE
  8
0
 10
0.392
 11
0.525
 20
2.387
 21
2.141
  0
LINE
  8
0
 10
0.525
 11
0.552
 20
2.141
 21
2.059
  0
LINE
  8
0
 10
0.552
 11
0.616
 20
2.059
 21
2.117
  0
LINE
  8
0
 10
0.616
 11
0.854
 20
2.117
 21
2.263
  0
LINE
  8
0
 10
0.854
 11
1.176
 20
2.263
 21
2.385
  0
LINE
  8
0
 10
1.176
 11
1.4
 20
2.385
 21
2.424
  0
LINE
  8
0
 10
1.4
 11
1.477
 20
2.424
 21
2.211
  0
LINE
  8
0
 10
1.477
 11
1.533
 20
2.211
 21
1.871
  0
LINE
  8
0
 10
1.533
 11
1.525
 20
1.871
 21
1.592
  0
LINE
  8
0
 10
1.525
 11
1.507
 20
1.592
 21
1.507
  0
LINE
  8
0
 10
1.507
 11
1.592
 20
1.507
 21
1.525
  0
LINE
  8
0
 10
1.592
 11
1.871
 20
1.525
 21
1.533
  0
LINE
  8
0
 10
1.871
 11
2.211
 20
1.533
 21
1.477
  0
LINE
  8
0
 10
2.211
 11
2.424
 20
1.477
 21
1.4
  0
LINE
  8
0
 10
2.424
 11
2.385
 20
1.4
 21
1.176
  0
LINE
  8
0
 10
2.385
 11
2.263
 20
1.176
 21
0.854
  0
LINE
  8
0
 10
2.263
 11
2.117
 20
0.854
 21
0.616
  0
LINE
  8
0
 10
2.117
 11
2.059
 20
0.616
 21
0.552
  0
LINE
  8
0
 10
2.059
 11
2.141
 20
0.552
 21
0.525
  0
LINE
  8
0
 10
2.141
 11
2.387
 20
0.525
 21
0.392
  0
LINE
  8
0
 10
2.387
 11
2.653
 20
0.392
 21
0.174
  0
LINE
  8
0
 10
2.653
 11
2.799
 20
0.174
 21
0
  0
LINE
  8
0
 10
2.799
 11
2.653
 20
0
 21
-0.174
  0
LINE
  8
0
 10
2.653
 11
2.387
 20
-0.174
 21
-0.392
  0
LINE
  8
0
 10
2.387
 11
2.141
 20
-0.392
 21
-0.525
  0
LINE
  8
0
 10
2.141
 11
2.059
 20
-0.525
 21
-0.552
  0
LINE
  8
0
 10
2.059
 11
2.117
 20
-0.552
 21
-0.616
  0
LINE
  8
0
 10
2.117
 11
2.263
 20
-0.616
 21
-0.854
  0
LINE
  8
0
 10
2.263
 11
2.385
 20
-0.854
 21
-1.176
  0
LINE
  8
0
 10
2.385
 11
2.424
 20
-1.176
 21
-1.4
  0
LINE
  8
0
 10
2.424
 11
2.211
 20
-1.4
 21
-1.477
  0
LINE
  8
0
 10
2.211
 11
1.871
 20
-1.477
 21
-1.533
  0
LINE
  8
0
 10
1.871
 11
1.592
 20
-1.533
 21
-1.525
  0
LINE
  8
0
 10
1.592
 11
1.507
 20
-1.525
 21
-1.507
  0
LINE
  8
0
 10
1.507
 11
1.525
 20
-1.507
 21
-1.592
  0
LINE
  8
0
 10
1.525
 11
1.533
 20
-1.592
 21
-1.871
  0
LINE
  8
0
 10
1.533
 11
1.477
 20
-1.871
 21
-2.211
  0
LINE
  8
0
 10
1.477
 11
1.4
 20
-2.211
 21
-2.424
  0
LINE
  8
0
 10
1.4
 11
1.176
 20
-2.424
 21
-2.385
  0
LINE
  8
0
 10
1.176
 11
0.854
 20
-2.385
 21
-2.263
  0
LINE
  8
0
 10
0.854
 11
0.616
 20
-2.263
 21
-2.117
  0
LINE
  8
0
 10
0.616
 11
0.552
 20
-2.117
 21
-2.059
  0
LINE
  8
0
 10
0.552
 11
0.525
 20
-2.059
 21
-2.141
  0
LINE
  8
0
 10
0.525
 11
0.392
 20
-2.141
 21
-2.387
  0
LINE
  8
0
 10
0.392
 11
0.174
 20
-2.387
 21
-2.653
  0
LINE
  8
0
 10
0.174
 11
0
 20
-2.653
 21
-2.799
  0
LINE
  8
0
 10
0
 11
-0.174
 20
-2.799
 21
-2.653
  0
LINE
  8
0
 10
-0.174
 11
-0.392
 20
-2.653
 21
-2.387
  0
LINE
  8
0
 10
-0.392
 11
-0.525
 20
-2.387
 21
-2.141
  0
LINE
  8
0
 10
-0.525
 11
-0.552
 20
-2.141
 21
-2.059
  0
LINE
  8
0
 10
-0.552
 11
-0.616
 20
-2.059
 21
-2.117
  0
LINE
  8
0
 10
-0.616
 11
-0.854
 20
-2.117
 21
-2.263
  0
LINE
  8
0
 10
-0.854
 11
-1.176
 20
-2.263
 21
-2.385
  0
LINE
  8
0
 10
-1.176
 11
-1.4
 20
-2.385
 21
-2.424
  0
LINE
  8
0
 10
-1.4
 11
-1.477
 20
-2.424
 21
-2.211
  0
LINE
  8
0
 10
-1.477
 11
-1.533
 20
-2.211
 21
-1.871
  0
LINE
  8
0
 10
-1.533
 11
-1.525
 20
-1.871
 21
-1.592
  0
LINE
  8
0
 10
-1.525
 11
-1.507
 20
-1.592
 21
-1.507
  0
LINE
  8
0
 10
-1.507
 11
-1.592
 20
-1.507
 21
-1.525
  0
LINE
  8
0
 10
-1.592
 11
-1.871
 20
-1.525
 21
-1.533
  0
LINE
  8
0
 10
-1.871
 11
-2.211
 20
-1.533
 21
-1.477
  0
LINE
  8
0
 10
-2.211
 11
-2.424
 20
-1.477
 21
-1.4
  0
LINE
  8
0
 10
-2.424
 11
-2.385
 20
-1.4
 21
-1.176
  0
LINE
  8
0
 10
-2.385
 11
-2.263
 20
-1.176
 21
-0.854
  0
LINE
  8
0
 10
-2.263
 11
-2.117
 20
-0.854
 21
-0.616
  0
LINE
  8
0
 10
-2.117
 11
-2.059
 20
-0.616
 21
-0.552
  0
LINE
  8
0
 10
-2.059
 11
-2.141
 20
-0.552
 21
-0.525
  0
LINE
  8
0
 10
-2.141
 11
-2.387
 20
-0.525
 21
-0.392
  0
LINE
  8
0
 10
-2.387
 11
-2.653
 20
-0.392
 21
-0.174
  0
LINE
  8
0
 10
-2.653
 11
-2.799
 20
-0.174
 21
0
  0
LINE
  8
0
 10
2.15
 11
2.166
 20
-24
 21
-23.588
  0
LINE
  8
0
 10
2.166
 11
2.215
 20
-23.588
 21
-23.179
  0
LINE
  8
0
 10
2.215
 11
2.295
 20
-23.179
 21
-22.774
  0
LINE
  8
0
 10
2.295
 11
2.407
 20
-22.774
 21
-22.378
  0
LINE
  8
0
 10
2.407
 11
2.55
 20
-22.378
 21
-21.991
  0
LINE
  8
0
 10
2.55
 11
2.722
 20
-21.991
 21
-21.617
  0
LINE
  8
0
 10
2.722
 11
2.924
 20
-21.617
 21
-21.257
  0
LINE
  8
0
 10
2.924
 11
3.153
 20
-21.257
 21
-20.914
  0
LINE
  8
0
 10
3.153
 11
3.408
 20
-20.914
 21
-20.59
  0
LINE
  8
0
 10
3.408
 11
3.688
 20
-20.59
 21
-20.288
  0
LINE
  8
0
 10
3.688
 11
3.99
 20
-20.288
 21
-20.008
  0
LINE
  8
0
 10
3.99
 11
4.314
 20
-20.008
 21
-19.753
  0
LINE
  8
0
 10
4.314
 11
4.657
 20
-19.753
 21
-19.524
  0
LINE
  8
0
 10
4.657
 11
5.017
 20
-19.524
 21
-19.322
  0
LINE
  8
0
 10
5.017
 11
5.391
 20
-19.322
 21
-19.15
  0
LINE
  8
0
 10
5.391
 11
5.778
 20
-19.15
 21
-19.007
  0
LINE
  8
0
 10
5.778
 11
6.174
 20
-19.007
 21
-18.895
  0
LINE
  8
0
 10
6.174
 11
6.579
 20
-18.895
 21
-18.815
  0
LINE
  8
0
 10
6.579
 11
6.988
 20
-18.815
 21
-18.766
  0
LINE
  8
0
 10
6.988
 11
7.4
 20
-18.766
 21
-18.75
  0
LINE
  8
0
 10
7.4
 11
7.812
 20
-18.75
 21
-18.766
  0
LINE
  8
0
 10
7.812
 11
8.221
 20
-18.766
 21
-18.815
  0
LINE
  8
0
 10
8.221
 11
8.626
 20
-18.815
 21
-18.895
  0
LINE
  8
0
 10
8.626
 11
9.022
 20
-18.895
 21
-19.007
  0
LINE
  8
0
 10
9.022
 11
9.409
 20
-19.007
 21
-19.15
  0
LINE
  8
0
 10
9.409
 11
9.783
 20
-19.15
 21
-19.322
  0
LINE
  8
0
 10
9.783
 11
10.143
 20
-19.322
 21
-19.524
  0
LINE
  8
0
 10
10.143
 11
10.486
 20
-19.524
 21
-19.753
  0
LINE
  8
0
 10
10.486
 11
10.81
 20
-19.753
 21
-20.008
  0
LINE
  8
0
 10
10.81
 11
11.112
 20
-20.008
 21
-20.288
  0
LINE
  8
0
 10
11.112
 11
11.392
 20
-20.288
 21
-20.59
  0
LINE
  8
0
 10
11.392
 11
11.647
 20
-20.59
 21
-20.914
  0
LINE
  8
0
 10
11.647
 11
11.876
 20
-20.914
 21
-21.257
  0
LINE
  8
0
 10
11.876
 11
12.078
 20
-21.257
 21
-21.617
  0
LINE
  8
0
 10
12.078
 11
12.25
 20
-21.617
 21
-21.991
  0
LINE
  8
0
 10
12.25
 11
12.393
 20
-21.991
 21
-22.378
  0
LINE
  8
0
 10
12.393
 11
12.505
 20
-22.378
 21
-22.774
  0
LINE
  8
0
 10
12.505
 11
12.585
 20
-22.774
 21
-23.179
  0
LINE
  8
0
 10
12.585
 11
12.634
 20
-23.179
 21
-23.588
  0
LINE
  8
0
 10
12.634
 11
12.65
 20
-23.588
 21
-24
  0
LINE
  8
0
 10
12.65
 11
12.634
 20
-24
 21
-24.412
  0
LINE
  8
0
 10
12.634
 11
12.585
 20
-24.412
 21
-24.821
  0
LINE
  8
0
 10
12.585
 11
12.505
 20
-24.821
 21
-25.226
  0
LINE
  8
0
 10
12.505
 11
12.393
 20
-25.226
 21
-25.622
  0
LINE
  8
0
 10
12.393
 11
12.25
 20
-25.622
 21
-26.009
  0
LINE
  8
0
 10
12.25
 11
12.078
 20
-26.009
 21
-26.383
  0
LINE
  8
0
 10
12.078
 11
11.876
 20
-26.383
 21
-26.743
  0
LINE
  8
0
 10
11.876
 11
11.647
 20
-26.743
 21
-27.086
  0
LINE
  8
0
 10
11.647
 11
11.392
 20
-27.086
 21
-27.41
  0
LINE
  8
0
 10
11.392
 11
11.112
 20
-27.41
 21
-27.712
  0
LINE
  8
0
 10
11.112
 11
10.81
 20
-27.712
 21
-27.992
  0
LINE
  8
0
 10
10.81
 11
10.486
 20
-27.992
 21
-28.247
  0
LINE
  8
0
 10
10.486
 11
10.143
 20
-28.247
 21
-28.476
  0
LINE
  8
0
 10
10.143
 11
9.783
 20
-28.476
 21
-28.678
  0
LINE
  8
0
 10
9.783
 11
9.409
 20
-28.678
 21
-28.85
  0
LINE
  8
0
 10
9.409
 11
9.022
 20
-28.85
 21
-28.993
  0
LINE
  8
0
 10
9.022
 11
8.626
 20
-28.993
 21
-29.105
  0
LINE
  8
0
 10
8.626
 11
8.221
 20
-29.105
 21
-29.185
  0
LINE
  8
0
 10
8.221
 11
7.812
 20
-29.185
 21
-29.234
  0
LINE
  8
0
 10
7.812
 11
7.4
 20
-29.234
 21
-29.25
  0
LINE
  8
0
 10
7.4
 11
6.988
 20
-29.25
 21
-29.234
  0
LINE
  8
0
 10
6.988
 11
6.579
 20
-29.234
 21
-29.185
  0
LINE
  8
0
 10
6.579
 11
6.174
 20
-29.185
 21
-29.105
  0
LINE
  8
0
 10
6.174
 11
5.778
 20
-29.105
 21
-28.993
  0
LINE
  8
0
 10
5.778
 11
5.391
 20
-28.993
 21
-28.85
  0
LINE
  8
0
 10
5.391
 11
5.017
 20
-28.85
 21
-28.678
  0
LINE
  8
0
 10
5.017
 11
4.657
 20
-28.678
 21
-28.476
  0
LINE
  8
0
 10
4.657
 11
4.314
 20
-28.476
 21
-28.247
  0
LINE
  8
0
 10
4.314
 11
3.99
 20
-28.247
 21
-27.992
  0
LINE
  8
0
 10
3.99
 11
3.688
 20
-27.992
 21
-27.712
  0
LINE
  8
0
 10
3.688
 11
3.408
 20
-27.712
 21
-27.41
  0
LINE
  8
0
 10
3.408
 11
3.153
 20
-27.41
 21
-27.086
  0
LINE
  8
0
 10
3.153
 11
2.924
 20
-27.086
 21
-26.743
  0
LINE
  8
0
 10
2.924
 11
2.722
 20
-26.743
 21
-26.383
  0
LINE
  8
0
 10
2.722
 11
2.55
 20
-26.383
 21
-26.009
  0
LINE
  8
0
 10
2.55
 11
2.407
 20
-26.009
 21
-25.622
  0
LINE
  8
0
 10
2.407
 11
2.295
 20
-25.622
 21
-25.226
  0
LINE
  8
0
 10
2.295
 11
2.215
 20
-25.226
 21
-24.821
  0
LINE
  8
0
 10
2.215
 11
2.166
 20
-24.821
 21
-24.412
  0
LINE
  8
0
 10
2.166
 11
2.15
 20
-24.412
 21
-24
  0
LINE
  8
0
 10
24.5
 11
24.5
 20
-1.5
 21
1.5
  0
LINE
  8
0
 10
24.5
 11
27.5
 20
1.5
 21
1.5
  0
LINE
  8
0
 10
27.5
 11
27.5
 20
1.5
 21
-1.5
  0
LINE
  8
0
 10
27.5
 11
24.5
 20
-1.5
 21
-1.5
  0
ENDSEC
  0
SECTION
  2
OBJECTS
  0
DICTIONARY
  0
ENDSEC
  0
EOF
