<?xml version="1.0" encoding="UTF-8" standalone="no"?>
<!-- Created with Inkscape (http://www.inkscape.org/) -->

<svg
   xmlns:dc="http://purl.org/dc/elements/1.1/"
   xmlns:cc="http://creativecommons.org/ns#"
   xmlns:rdf="http://www.w3.org/1999/02/22-rdf-syntax-ns#"
   xmlns:svg="http://www.w3.org/2000/svg"
   xmlns="http://www.w3.org/2000/svg"
   xmlns:sodipodi="http://sodipodi.sourceforge.net/DTD/sodipodi-0.dtd"
   xmlns:inkscape="http://www.inkscape.org/namespaces/inkscape"
   width="276.41284"
   height="496.19986"
   id="svg2"
   version="1.1"
   inkscape:version="0.48.2 r9819"
   sodipodi:docname="laserCutV0.3.svg">
  <defs
     id="defs4">
    <pattern
       id="Hatch"
       x="0"
       y="0"
       patternUnits="userSpaceOnUse"
       width="8"
       height="8">
      <path
         id="path5547"
         d="M8 4 l-4,4"
         stroke-width="0.25"
         stroke="#000000"
         linecap="square" />
      <path
         id="path5549"
         d="M6 2 l-4,4"
         stroke-width="0.25"
         stroke="#000000"
         linecap="square" />
      <path
         id="path5551"
         d="M4 0 l-4,4"
         stroke-width="0.25"
         stroke="#000000"
         linecap="square" />
    </pattern>
    <marker
       orient="auto"
       id="DistanceX"
       style="overflow:visible"
       refX="0"
       refY="0">
      <path
         id="path5544"
         d="M 3,-3 -3,3 M 0,-5 0,5"
         style="stroke:#000000;stroke-width:0.5"
         inkscape:connector-curvature="0" />
    </marker>
    <pattern
       y="0"
       x="0"
       width="8"
       patternUnits="userSpaceOnUse"
       id="Hatch-6"
       height="8">
      <path
         id="path11055"
         stroke-width="0.25"
         stroke="#000000"
         linecap="square"
         d="M8 4 l-4,4" />
      <path
         id="path11057"
         stroke-width="0.25"
         stroke="#000000"
         linecap="square"
         d="M6 2 l-4,4" />
      <path
         id="path11059"
         stroke-width="0.25"
         stroke="#000000"
         linecap="square"
         d="M4 0 l-4,4" />
    </pattern>
    <marker
       style="overflow:visible"
       refY="0"
       refX="0"
       orient="auto"
       id="DistanceX-1">
      <path
         id="path11052"
         style="stroke:#000000;stroke-width:0.5"
         d="M 3,-3 -3,3 M 0,-5 0,5"
         inkscape:connector-curvature="0" />
    </marker>
    <pattern
       id="Hatch-5"
       x="0"
       y="0"
       patternUnits="userSpaceOnUse"
       width="8"
       height="8">
      <path
         id="path4299"
         d="M8 4 l-4,4"
         stroke-width="0.25"
         stroke="#000000"
         linecap="square" />
      <path
         id="path4301"
         d="M6 2 l-4,4"
         stroke-width="0.25"
         stroke="#000000"
         linecap="square" />
      <path
         id="path4303"
         d="M4 0 l-4,4"
         stroke-width="0.25"
         stroke="#000000"
         linecap="square" />
    </pattern>
    <marker
       orient="auto"
       id="DistanceX-5"
       style="overflow:visible"
       refX="0"
       refY="0">
      <path
         id="path4296"
         d="M 3,-3 -3,3 M 0,-5 0,5"
         style="stroke:#000000;stroke-width:0.5"
         inkscape:connector-curvature="0" />
    </marker>
    <pattern
       id="Hatch-2"
       x="0"
       y="0"
       patternUnits="userSpaceOnUse"
       width="8"
       height="8">
      <path
         id="path4256"
         d="M8 4 l-4,4"
         stroke-width="0.25"
         stroke="#000000"
         linecap="square" />
      <path
         id="path4258"
         d="M6 2 l-4,4"
         stroke-width="0.25"
         stroke="#000000"
         linecap="square" />
      <path
         id="path4260"
         d="M4 0 l-4,4"
         stroke-width="0.25"
         stroke="#000000"
         linecap="square" />
    </pattern>
    <marker
       orient="auto"
       id="DistanceX-7"
       style="overflow:visible"
       refX="0"
       refY="0">
      <path
         id="path4253"
         d="M 3,-3 -3,3 M 0,-5 0,5"
         style="stroke:#000000;stroke-width:0.5"
         inkscape:connector-curvature="0" />
    </marker>
  </defs>
  <sodipodi:namedview
     id="base"
     pagecolor="#ffffff"
     bordercolor="#666666"
     borderopacity="1.0"
     inkscape:pageopacity="0.0"
     inkscape:pageshadow="2"
     inkscape:zoom="1.8101934"
     inkscape:cx="99.911799"
     inkscape:cy="401.35766"
     inkscape:document-units="px"
     inkscape:current-layer="layer3"
     showgrid="false"
     fit-margin-top="0"
     fit-margin-left="0"
     fit-margin-right="0"
     fit-margin-bottom="0"
     showborder="true"
     borderlayer="false"
     units="mm"
     inkscape:window-width="1436"
     inkscape:window-height="856"
     inkscape:window-x="307"
     inkscape:window-y="161"
     inkscape:window-maximized="0"
     inkscape:snap-grids="true" />
  <metadata
     id="metadata7">
    <rdf:RDF>
      <cc:Work
         rdf:about="">
        <dc:format>image/svg+xml</dc:format>
        <dc:type
           rdf:resource="http://purl.org/dc/dcmitype/StillImage" />
        <dc:title></dc:title>
      </cc:Work>
    </rdf:RDF>
  </metadata>
  <g
     inkscape:groupmode="layer"
     id="layer3"
     inkscape:label="gravure"
     transform="translate(0.154269,0.13349)">
    <g
       id="Your_Icon"
       transform="matrix(-0.7781269,-0.0133485,-0.0133485,0.7781269,85.734301,14.208201)">
      <g
         id="g3285">
        <g
           id="g3287">
          <g
             id="g3289">
            <path
               style="fill-rule:evenodd"
               id="path3291"
               d="M 85.405,30 H 15.065 C 7.849,30 2,36.191 2,43.556 V 81 H 98 V 43.556 C 98,36.191 92.622,30 85.405,30 z M 28.614,60.425 c -4.749,0 -8.598,-3.929 -8.598,-8.775 0,-4.846 3.849,-8.776 8.598,-8.776 4.749,0 8.597,3.93 8.597,8.776 0,4.846 -3.848,8.775 -8.597,8.775 z m 43.971,0 c -4.748,0 -8.598,-3.929 -8.598,-8.775 0,-4.846 3.85,-8.776 8.598,-8.776 4.747,0 8.597,3.93 8.597,8.776 0,4.846 -3.85,8.775 -8.597,8.775 z"
               inkscape:connector-curvature="0" />
          </g>
        </g>
      </g>
      <g
         id="g3293">
        <g
           id="g3295">
          <g
             id="g3297">
            <path
               style="fill-rule:evenodd"
               id="path3299"
               d="m 20.169,84.443 h 59.396 c 1.704,0 3.083,1.409 3.083,3.147 0,1.739 -1.379,3.148 -3.083,3.148 H 20.169 c -1.703,0 -3.084,-1.409 -3.084,-3.148 0,-1.737 1.381,-3.147 3.084,-3.147 z"
               inkscape:connector-curvature="0" />
          </g>
        </g>
      </g>
      <g
         id="g3301">
        <g
           id="g3303">
          <g
             id="g3305">
            <path
               style="fill-rule:evenodd"
               id="path3307"
               d="m 30.213,93.649 h 39.84 c 1.704,0 3.084,1.41 3.084,3.149 0,1.739 -1.38,3.147 -3.084,3.147 h -39.84 c -1.703,0 -3.084,-1.408 -3.084,-3.147 0,-1.739 1.381,-3.149 3.084,-3.149 z"
               inkscape:connector-curvature="0" />
          </g>
        </g>
      </g>
      <g
         id="g3309">
        <g
           id="g3311">
          <g
             id="g3313">
            <path
               style="fill-rule:evenodd"
               id="path3315"
               d="M 57.212,6.41 C 57.212,2.87 54.491,0 51.022,0 47.556,0 45.001,2.87 45.001,6.41 45.001,8.611 46,10.552 48,11.706 v 10.907 c 0,1.869 1.171,3.383 3,3.383 1.831,0 3,-1.514 3,-3.383 V 11.888 c 2,-1.124 3.212,-3.153 3.212,-5.478 z"
               inkscape:connector-curvature="0" />
          </g>
        </g>
      </g>
    </g>
  </g>
  <g
     inkscape:label="top bracket"
     inkscape:groupmode="layer"
     id="layer1"
     transform="translate(-52.840291,-4.637076)" />
  <g
     inkscape:groupmode="layer"
     id="layer2"
     inkscape:label="bottom bracket"
     transform="translate(-48.844291,-0.8794566)"
     style="display:inline" />
  <g
     inkscape:groupmode="layer"
     id="layer4"
     inkscape:label="V2"
     style="display:inline"
     transform="translate(0.154269,0.13349)" />
</svg>
