  0
SECTION
  2
BLOCKS
  0
ENDSEC
  0
SECTION
  2
ENTITIES
  0
LINE
  8
0
 10
-150
 11
-150
 20
80
 21
105.5
  0
LINE
  8
0
 10
-150
 11
-130
 20
105.5
 21
105.5
  0
LINE
  8
0
 10
-130
 11
-130
 20
105.5
 21
101.85
  0
LINE
  8
0
 10
-130
 11
-144
 20
101.85
 21
101.85
  0
LINE
  8
0
 10
-144
 11
-144
 20
101.85
 21
98.95
  0
LINE
  8
0
 10
-144
 11
-130
 20
98.95
 21
98.95
  0
LINE
  8
0
 10
-130
 11
-130
 20
98.95
 21
94.35
  0
LINE
  8
0
 10
-130
 11
-144
 20
94.35
 21
94.35
  0
LINE
  8
0
 10
-144
 11
-144
 20
94.35
 21
91.45
  0
LINE
  8
0
 10
-144
 11
-130
 20
91.45
 21
91.45
  0
LINE
  8
0
 10
-130
 11
-130
 20
91.45
 21
86.85
  0
LINE
  8
0
 10
-130
 11
-144
 20
86.85
 21
86.85
  0
LINE
  8
0
 10
-144
 11
-144
 20
86.85
 21
83.95
  0
LINE
  8
0
 10
-144
 11
-130
 20
83.95
 21
83.95
  0
LINE
  8
0
 10
-130
 11
-130
 20
83.95
 21
80
  0
LINE
  8
0
 10
-130
 11
-150
 20
80
 21
80
  0
LINE
  8
0
 10
-120
 11
-120
 20
80
 21
105.8
  0
LINE
  8
0
 10
-120
 11
-100
 20
105.8
 21
105.8
  0
LINE
  8
0
 10
-100
 11
-100
 20
105.8
 21
102.05
  0
LINE
  8
0
 10
-100
 11
-114
 20
102.05
 21
102.05
  0
LINE
  8
0
 10
-114
 11
-114
 20
102.05
 21
99.15
  0
LINE
  8
0
 10
-114
 11
-100
 20
99.15
 21
99.15
  0
LINE
  8
0
 10
-100
 11
-100
 20
99.15
 21
94.45
  0
LINE
  8
0
 10
-100
 11
-114
 20
94.45
 21
94.45
  0
LINE
  8
0
 10
-114
 11
-114
 20
94.45
 21
91.55
  0
LINE
  8
0
 10
-114
 11
-100
 20
91.55
 21
91.55
  0
LINE
  8
0
 10
-100
 11
-100
 20
91.55
 21
86.85
  0
LINE
  8
0
 10
-100
 11
-114
 20
86.85
 21
86.85
  0
LINE
  8
0
 10
-114
 11
-114
 20
86.85
 21
83.95
  0
LINE
  8
0
 10
-114
 11
-100
 20
83.95
 21
83.95
  0
LINE
  8
0
 10
-100
 11
-100
 20
83.95
 21
80
  0
LINE
  8
0
 10
-100
 11
-120
 20
80
 21
80
  0
LINE
  8
0
 10
-90
 11
-90
 20
80
 21
106.1
  0
LINE
  8
0
 10
-90
 11
-70
 20
106.1
 21
106.1
  0
LINE
  8
0
 10
-70
 11
-70
 20
106.1
 21
102.25
  0
LINE
  8
0
 10
-70
 11
-84
 20
102.25
 21
102.25
  0
LINE
  8
0
 10
-84
 11
-84
 20
102.25
 21
99.35
  0
LINE
  8
0
 10
-84
 11
-70
 20
99.35
 21
99.35
  0
LINE
  8
0
 10
-70
 11
-70
 20
99.35
 21
94.55
  0
LINE
  8
0
 10
-70
 11
-84
 20
94.55
 21
94.55
  0
LINE
  8
0
 10
-84
 11
-84
 20
94.55
 21
91.65
  0
LINE
  8
0
 10
-84
 11
-70
 20
91.65
 21
91.65
  0
LINE
  8
0
 10
-70
 11
-70
 20
91.65
 21
86.85
  0
LINE
  8
0
 10
-70
 11
-84
 20
86.85
 21
86.85
  0
LINE
  8
0
 10
-84
 11
-84
 20
86.85
 21
83.95
  0
LINE
  8
0
 10
-84
 11
-70
 20
83.95
 21
83.95
  0
LINE
  8
0
 10
-70
 11
-70
 20
83.95
 21
80
  0
LINE
  8
0
 10
-70
 11
-90
 20
80
 21
80
  0
LINE
  8
0
 10
-75.5
 11
-75.5
 20
-15
 21
-3.75
  0
LINE
  8
0
 10
-75.5
 11
-72.5
 20
-3.75
 21
-3.75
  0
LINE
  8
0
 10
-72.5
 11
-72.3
 20
-3.75
 21
-12
  0
LINE
  8
0
 10
-72.3
 11
-69.7
 20
-12
 21
-12
  0
LINE
  8
0
 10
-69.7
 11
-69.5
 20
-12
 21
-6
  0
LINE
  8
0
 10
-69.5
 11
-67.25
 20
-6
 21
-6
  0
LINE
  8
0
 10
-67.25
 11
-67.05
 20
-6
 21
-12
  0
LINE
  8
0
 10
-67.05
 11
-64.45
 20
-12
 21
-12
  0
LINE
  8
0
 10
-64.45
 11
-64.25
 20
-12
 21
-6
  0
LINE
  8
0
 10
-64.25
 11
-61.25
 20
-6
 21
-6
  0
LINE
  8
0
 10
-61.25
 11
-61.25
 20
-6
 21
-15
  0
LINE
  8
0
 10
-61.25
 11
-75.5
 20
-15
 21
-15
  0
LINE
  8
0
 10
-75.5
 11
-75.5
 20
-2
 21
9.25
  0
LINE
  8
0
 10
-75.5
 11
-72.5
 20
9.25
 21
9.25
  0
LINE
  8
0
 10
-72.5
 11
-72.3
 20
9.25
 21
1
  0
LINE
  8
0
 10
-72.3
 11
-69.7
 20
1
 21
1
  0
LINE
  8
0
 10
-69.7
 11
-69.5
 20
1
 21
7
  0
LINE
  8
0
 10
-69.5
 11
-67.25
 20
7
 21
7
  0
LINE
  8
0
 10
-67.25
 11
-67.05
 20
7
 21
1
  0
LINE
  8
0
 10
-67.05
 11
-64.45
 20
1
 21
1
  0
LINE
  8
0
 10
-64.45
 11
-64.25
 20
1
 21
7
  0
LINE
  8
0
 10
-64.25
 11
-61.25
 20
7
 21
7
  0
LINE
  8
0
 10
-61.25
 11
-61.25
 20
7
 21
-2
  0
LINE
  8
0
 10
-61.25
 11
-75.5
 20
-2
 21
-2
  0
LINE
  8
0
 10
-64.5
 11
-64.5
 20
42.5
 21
57.5
  0
LINE
  8
0
 10
-64.5
 11
-64.485
 20
57.5
 21
57.892
  0
LINE
  8
0
 10
-64.485
 11
-64.438
 20
57.892
 21
58.282
  0
LINE
  8
0
 10
-64.438
 11
-64.362
 20
58.282
 21
58.667
  0
LINE
  8
0
 10
-64.362
 11
-64.255
 20
58.667
 21
59.045
  0
LINE
  8
0
 10
-64.255
 11
-64.119
 20
59.045
 21
59.413
  0
LINE
  8
0
 10
-64.119
 11
-63.955
 20
59.413
 21
59.77
  0
LINE
  8
0
 10
-63.955
 11
-63.763
 20
59.77
 21
60.112
  0
LINE
  8
0
 10
-63.763
 11
-63.545
 20
60.112
 21
60.439
  0
LINE
  8
0
 10
-63.545
 11
-63.302
 20
60.439
 21
60.747
  0
LINE
  8
0
 10
-63.302
 11
-63.036
 20
60.747
 21
61.036
  0
LINE
  8
0
 10
-63.036
 11
-62.747
 20
61.036
 21
61.302
  0
LINE
  8
0
 10
-62.747
 11
-62.439
 20
61.302
 21
61.545
  0
LINE
  8
0
 10
-62.439
 11
-62.112
 20
61.545
 21
61.763
  0
LINE
  8
0
 10
-62.112
 11
-61.77
 20
61.763
 21
61.955
  0
LINE
  8
0
 10
-61.77
 11
-61.413
 20
61.955
 21
62.119
  0
LINE
  8
0
 10
-61.413
 11
-61.045
 20
62.119
 21
62.255
  0
LINE
  8
0
 10
-61.045
 11
-60.667
 20
62.255
 21
62.362
  0
LINE
  8
0
 10
-60.667
 11
-60.282
 20
62.362
 21
62.438
  0
LINE
  8
0
 10
-60.282
 11
-59.892
 20
62.438
 21
62.485
  0
LINE
  8
0
 10
-59.892
 11
-59.5
 20
62.485
 21
62.5
  0
LINE
  8
0
 10
-59.5
 11
-24.5
 20
62.5
 21
62.5
  0
LINE
  8
0
 10
-24.5
 11
-24.108
 20
62.5
 21
62.485
  0
LINE
  8
0
 10
-24.108
 11
-23.718
 20
62.485
 21
62.438
  0
LINE
  8
0
 10
-23.718
 11
-23.333
 20
62.438
 21
62.362
  0
LINE
  8
0
 10
-23.333
 11
-22.955
 20
62.362
 21
62.255
  0
LINE
  8
0
 10
-22.955
 11
-22.587
 20
62.255
 21
62.119
  0
LINE
  8
0
 10
-22.587
 11
-22.23
 20
62.119
 21
61.955
  0
LINE
  8
0
 10
-22.23
 11
-21.888
 20
61.955
 21
61.763
  0
LINE
  8
0
 10
-21.888
 11
-21.561
 20
61.763
 21
61.545
  0
LINE
  8
0
 10
-21.561
 11
-21.253
 20
61.545
 21
61.302
  0
LINE
  8
0
 10
-21.253
 11
-20.964
 20
61.302
 21
61.036
  0
LINE
  8
0
 10
-20.964
 11
-20.698
 20
61.036
 21
60.747
  0
LINE
  8
0
 10
-20.698
 11
-20.455
 20
60.747
 21
60.439
  0
LINE
  8
0
 10
-20.455
 11
-20.237
 20
60.439
 21
60.112
  0
LINE
  8
0
 10
-20.237
 11
-20.045
 20
60.112
 21
59.77
  0
LINE
  8
0
 10
-20.045
 11
-19.881
 20
59.77
 21
59.413
  0
LINE
  8
0
 10
-19.881
 11
-19.745
 20
59.413
 21
59.045
  0
LINE
  8
0
 10
-19.745
 11
-19.638
 20
59.045
 21
58.667
  0
LINE
  8
0
 10
-19.638
 11
-19.562
 20
58.667
 21
58.282
  0
LINE
  8
0
 10
-19.562
 11
-19.515
 20
58.282
 21
57.892
  0
LINE
  8
0
 10
-19.515
 11
-19.5
 20
57.892
 21
57.5
  0
LINE
  8
0
 10
-19.5
 11
-19.5
 20
57.5
 21
42.5
  0
LINE
  8
0
 10
-19.5
 11
-19.515
 20
42.5
 21
42.108
  0
LINE
  8
0
 10
-19.515
 11
-19.562
 20
42.108
 21
41.718
  0
LINE
  8
0
 10
-19.562
 11
-19.638
 20
41.718
 21
41.333
  0
LINE
  8
0
 10
-19.638
 11
-19.745
 20
41.333
 21
40.955
  0
LINE
  8
0
 10
-19.745
 11
-19.881
 20
40.955
 21
40.587
  0
LINE
  8
0
 10
-19.881
 11
-20.045
 20
40.587
 21
40.23
  0
LINE
  8
0
 10
-20.045
 11
-20.237
 20
40.23
 21
39.888
  0
LINE
  8
0
 10
-20.237
 11
-20.455
 20
39.888
 21
39.561
  0
LINE
  8
0
 10
-20.455
 11
-20.698
 20
39.561
 21
39.253
  0
LINE
  8
0
 10
-20.698
 11
-20.964
 20
39.253
 21
38.964
  0
LINE
  8
0
 10
-20.964
 11
-21.253
 20
38.964
 21
38.698
  0
LINE
  8
0
 10
-21.253
 11
-21.561
 20
38.698
 21
38.455
  0
LINE
  8
0
 10
-21.561
 11
-21.888
 20
38.455
 21
38.237
  0
LINE
  8
0
 10
-21.888
 11
-22.23
 20
38.237
 21
38.045
  0
LINE
  8
0
 10
-22.23
 11
-22.587
 20
38.045
 21
37.881
  0
LINE
  8
0
 10
-22.587
 11
-22.955
 20
37.881
 21
37.745
  0
LINE
  8
0
 10
-22.955
 11
-23.333
 20
37.745
 21
37.638
  0
LINE
  8
0
 10
-23.333
 11
-23.718
 20
37.638
 21
37.562
  0
LINE
  8
0
 10
-23.718
 11
-24.108
 20
37.562
 21
37.515
  0
LINE
  8
0
 10
-24.108
 11
-24.5
 20
37.515
 21
37.5
  0
LINE
  8
0
 10
-24.5
 11
-59.5
 20
37.5
 21
37.5
  0
LINE
  8
0
 10
-59.5
 11
-59.892
 20
37.5
 21
37.515
  0
LINE
  8
0
 10
-59.892
 11
-60.282
 20
37.515
 21
37.562
  0
LINE
  8
0
 10
-60.282
 11
-60.667
 20
37.562
 21
37.638
  0
LINE
  8
0
 10
-60.667
 11
-61.045
 20
37.638
 21
37.745
  0
LINE
  8
0
 10
-61.045
 11
-61.413
 20
37.745
 21
37.881
  0
LINE
  8
0
 10
-61.413
 11
-61.77
 20
37.881
 21
38.045
  0
LINE
  8
0
 10
-61.77
 11
-62.112
 20
38.045
 21
38.237
  0
LINE
  8
0
 10
-62.112
 11
-62.439
 20
38.237
 21
38.455
  0
LINE
  8
0
 10
-62.439
 11
-62.747
 20
38.455
 21
38.698
  0
LINE
  8
0
 10
-62.747
 11
-63.036
 20
38.698
 21
38.964
  0
LINE
  8
0
 10
-63.036
 11
-63.302
 20
38.964
 21
39.253
  0
LINE
  8
0
 10
-63.302
 11
-63.545
 20
39.253
 21
39.561
  0
LINE
  8
0
 10
-63.545
 11
-63.763
 20
39.561
 21
39.888
  0
LINE
  8
0
 10
-63.763
 11
-63.955
 20
39.888
 21
40.23
  0
LINE
  8
0
 10
-63.955
 11
-64.119
 20
40.23
 21
40.587
  0
LINE
  8
0
 10
-64.119
 11
-64.255
 20
40.587
 21
40.955
  0
LINE
  8
0
 10
-64.255
 11
-64.362
 20
40.955
 21
41.333
  0
LINE
  8
0
 10
-64.362
 11
-64.438
 20
41.333
 21
41.718
  0
LINE
  8
0
 10
-64.438
 11
-64.485
 20
41.718
 21
42.108
  0
LINE
  8
0
 10
-64.485
 11
-64.5
 20
42.108
 21
42.5
  0
LINE
  8
0
 10
-60
 11
-60
 20
80
 21
106.4
  0
LINE
  8
0
 10
-60
 11
-40
 20
106.4
 21
106.4
  0
LINE
  8
0
 10
-40
 11
-40
 20
106.4
 21
102.45
  0
LINE
  8
0
 10
-40
 11
-54
 20
102.45
 21
102.45
  0
LINE
  8
0
 10
-54
 11
-54
 20
102.45
 21
99.55
  0
LINE
  8
0
 10
-54
 11
-40
 20
99.55
 21
99.55
  0
LINE
  8
0
 10
-40
 11
-40
 20
99.55
 21
94.65
  0
LINE
  8
0
 10
-40
 11
-54
 20
94.65
 21
94.65
  0
LINE
  8
0
 10
-54
 11
-54
 20
94.65
 21
91.75
  0
LINE
  8
0
 10
-54
 11
-40
 20
91.75
 21
91.75
  0
LINE
  8
0
 10
-40
 11
-40
 20
91.75
 21
86.85
  0
LINE
  8
0
 10
-40
 11
-54
 20
86.85
 21
86.85
  0
LINE
  8
0
 10
-54
 11
-54
 20
86.85
 21
83.95
  0
LINE
  8
0
 10
-54
 11
-40
 20
83.95
 21
83.95
  0
LINE
  8
0
 10
-40
 11
-40
 20
83.95
 21
80
  0
LINE
  8
0
 10
-40
 11
-60
 20
80
 21
80
  0
LINE
  8
0
 10
-54.8
 11
-54.8
 20
-75.6
 21
-72.4
  0
LINE
  8
0
 10
-54.8
 11
-51.8
 20
-72.4
 21
-72.5
  0
LINE
  8
0
 10
-51.8
 11
-51.8
 20
-72.5
 21
-67.5
  0
LINE
  8
0
 10
-51.8
 11
-54.8
 20
-67.5
 21
-67.6
  0
LINE
  8
0
 10
-54.8
 11
-54.8
 20
-67.6
 21
-64.4
  0
LINE
  8
0
 10
-54.8
 11
-51.8
 20
-64.4
 21
-64.5
  0
LINE
  8
0
 10
-51.8
 11
-51.8
 20
-64.5
 21
-60
  0
LINE
  8
0
 10
-51.8
 11
-44.1
 20
-60
 21
-60
  0
LINE
  8
0
 10
-44.1
 11
-44.1
 20
-60
 21
-63
  0
LINE
  8
0
 10
-44.1
 11
-41.1
 20
-63
 21
-63
  0
LINE
  8
0
 10
-41.1
 11
-41.1
 20
-63
 21
-60
  0
LINE
  8
0
 10
-41.1
 11
-1.8
 20
-60
 21
-60
  0
LINE
  8
0
 10
-1.8
 11
-1.8
 20
-60
 21
-80
  0
LINE
  8
0
 10
-1.8
 11
-41.1
 20
-80
 21
-80
  0
LINE
  8
0
 10
-41.1
 11
-41.1
 20
-80
 21
-77
  0
LINE
  8
0
 10
-41.1
 11
-44.1
 20
-77
 21
-77
  0
LINE
  8
0
 10
-44.1
 11
-44.1
 20
-77
 21
-80
  0
LINE
  8
0
 10
-44.1
 11
-51.8
 20
-80
 21
-80
  0
LINE
  8
0
 10
-51.8
 11
-51.8
 20
-80
 21
-75.5
  0
LINE
  8
0
 10
-51.8
 11
-54.8
 20
-75.5
 21
-75.6
  0
LINE
  8
0
 10
-54.8
 11
-54.8
 20
-53.6
 21
-50.4
  0
LINE
  8
0
 10
-54.8
 11
-51.8
 20
-50.4
 21
-50.5
  0
LINE
  8
0
 10
-51.8
 11
-51.8
 20
-50.5
 21
-45.5
  0
LINE
  8
0
 10
-51.8
 11
-54.8
 20
-45.5
 21
-45.6
  0
LINE
  8
0
 10
-54.8
 11
-54.8
 20
-45.6
 21
-42.4
  0
LINE
  8
0
 10
-54.8
 11
-51.8
 20
-42.4
 21
-42.5
  0
LINE
  8
0
 10
-51.8
 11
-51.8
 20
-42.5
 21
-38
  0
LINE
  8
0
 10
-51.8
 11
-44.1
 20
-38
 21
-38
  0
LINE
  8
0
 10
-44.1
 11
-44.1
 20
-38
 21
-41
  0
LINE
  8
0
 10
-44.1
 11
-41.1
 20
-41
 21
-41
  0
LINE
  8
0
 10
-41.1
 11
-41.1
 20
-41
 21
-38
  0
LINE
  8
0
 10
-41.1
 11
-1.8
 20
-38
 21
-38
  0
LINE
  8
0
 10
-1.8
 11
-1.8
 20
-38
 21
-58
  0
LINE
  8
0
 10
-1.8
 11
-41.1
 20
-58
 21
-58
  0
LINE
  8
0
 10
-41.1
 11
-41.1
 20
-58
 21
-55
  0
LINE
  8
0
 10
-41.1
 11
-44.1
 20
-55
 21
-55
  0
LINE
  8
0
 10
-44.1
 11
-44.1
 20
-55
 21
-58
  0
LINE
  8
0
 10
-44.1
 11
-51.8
 20
-58
 21
-58
  0
LINE
  8
0
 10
-51.8
 11
-51.8
 20
-58
 21
-53.5
  0
LINE
  8
0
 10
-51.8
 11
-54.8
 20
-53.5
 21
-53.6
  0
LINE
  8
0
 10
-49.799
 11
-49.653
 20
50
 21
50.174
  0
LINE
  8
0
 10
-49.653
 11
-49.387
 20
50.174
 21
50.392
  0
LINE
  8
0
 10
-49.387
 11
-49.141
 20
50.392
 21
50.525
  0
LINE
  8
0
 10
-49.141
 11
-49.059
 20
50.525
 21
50.552
  0
LINE
  8
0
 10
-49.059
 11
-49.117
 20
50.552
 21
50.616
  0
LINE
  8
0
 10
-49.117
 11
-49.263
 20
50.616
 21
50.854
  0
LINE
  8
0
 10
-49.263
 11
-49.385
 20
50.854
 21
51.176
  0
LINE
  8
0
 10
-49.385
 11
-49.424
 20
51.176
 21
51.4
  0
LINE
  8
0
 10
-49.424
 11
-49.211
 20
51.4
 21
51.477
  0
LINE
  8
0
 10
-49.211
 11
-48.871
 20
51.477
 21
51.533
  0
LINE
  8
0
 10
-48.871
 11
-48.592
 20
51.533
 21
51.525
  0
LINE
  8
0
 10
-48.592
 11
-48.507
 20
51.525
 21
51.507
  0
LINE
  8
0
 10
-48.507
 11
-48.525
 20
51.507
 21
51.592
  0
LINE
  8
0
 10
-48.525
 11
-48.533
 20
51.592
 21
51.871
  0
LINE
  8
0
 10
-48.533
 11
-48.477
 20
51.871
 21
52.211
  0
LINE
  8
0
 10
-48.477
 11
-48.4
 20
52.211
 21
52.424
  0
LINE
  8
0
 10
-48.4
 11
-48.176
 20
52.424
 21
52.385
  0
LINE
  8
0
 10
-48.176
 11
-47.854
 20
52.385
 21
52.263
  0
LINE
  8
0
 10
-47.854
 11
-47.616
 20
52.263
 21
52.117
  0
LINE
  8
0
 10
-47.616
 11
-47.552
 20
52.117
 21
52.059
  0
LINE
  8
0
 10
-47.552
 11
-47.525
 20
52.059
 21
52.141
  0
LINE
  8
0
 10
-47.525
 11
-47.392
 20
52.141
 21
52.387
  0
LINE
  8
0
 10
-47.392
 11
-47.174
 20
52.387
 21
52.653
  0
LINE
  8
0
 10
-47.174
 11
-47
 20
52.653
 21
52.799
  0
LINE
  8
0
 10
-47
 11
-46.826
 20
52.799
 21
52.653
  0
LINE
  8
0
 10
-46.826
 11
-46.608
 20
52.653
 21
52.387
  0
LINE
  8
0
 10
-46.608
 11
-46.475
 20
52.387
 21
52.141
  0
LINE
  8
0
 10
-46.475
 11
-46.448
 20
52.141
 21
52.059
  0
LINE
  8
0
 10
-46.448
 11
-46.384
 20
52.059
 21
52.117
  0
LINE
  8
0
 10
-46.384
 11
-46.146
 20
52.117
 21
52.263
  0
LINE
  8
0
 10
-46.146
 11
-45.824
 20
52.263
 21
52.385
  0
LINE
  8
0
 10
-45.824
 11
-45.6
 20
52.385
 21
52.424
  0
LINE
  8
0
 10
-45.6
 11
-45.523
 20
52.424
 21
52.211
  0
LINE
  8
0
 10
-45.523
 11
-45.467
 20
52.211
 21
51.871
  0
LINE
  8
0
 10
-45.467
 11
-45.475
 20
51.871
 21
51.592
  0
LINE
  8
0
 10
-45.475
 11
-45.493
 20
51.592
 21
51.507
  0
LINE
  8
0
 10
-45.493
 11
-45.408
 20
51.507
 21
51.525
  0
LINE
  8
0
 10
-45.408
 11
-45.129
 20
51.525
 21
51.533
  0
LINE
  8
0
 10
-45.129
 11
-44.789
 20
51.533
 21
51.477
  0
LINE
  8
0
 10
-44.789
 11
-44.576
 20
51.477
 21
51.4
  0
LINE
  8
0
 10
-44.576
 11
-44.615
 20
51.4
 21
51.176
  0
LINE
  8
0
 10
-44.615
 11
-44.737
 20
51.176
 21
50.854
  0
LINE
  8
0
 10
-44.737
 11
-44.883
 20
50.854
 21
50.616
  0
LINE
  8
0
 10
-44.883
 11
-44.941
 20
50.616
 21
50.552
  0
LINE
  8
0
 10
-44.941
 11
-44.859
 20
50.552
 21
50.525
  0
LINE
  8
0
 10
-44.859
 11
-44.613
 20
50.525
 21
50.392
  0
LINE
  8
0
 10
-44.613
 11
-44.347
 20
50.392
 21
50.174
  0
LINE
  8
0
 10
-44.347
 11
-44.201
 20
50.174
 21
50
  0
LINE
  8
0
 10
-44.201
 11
-44.347
 20
50
 21
49.826
  0
LINE
  8
0
 10
-44.347
 11
-44.613
 20
49.826
 21
49.608
  0
LINE
  8
0
 10
-44.613
 11
-44.859
 20
49.608
 21
49.475
  0
LINE
  8
0
 10
-44.859
 11
-44.941
 20
49.475
 21
49.448
  0
LINE
  8
0
 10
-44.941
 11
-44.883
 20
49.448
 21
49.384
  0
LINE
  8
0
 10
-44.883
 11
-44.737
 20
49.384
 21
49.146
  0
LINE
  8
0
 10
-44.737
 11
-44.615
 20
49.146
 21
48.824
  0
LINE
  8
0
 10
-44.615
 11
-44.576
 20
48.824
 21
48.6
  0
LINE
  8
0
 10
-44.576
 11
-44.789
 20
48.6
 21
48.523
  0
LINE
  8
0
 10
-44.789
 11
-45.129
 20
48.523
 21
48.467
  0
LINE
  8
0
 10
-45.129
 11
-45.408
 20
48.467
 21
48.475
  0
LINE
  8
0
 10
-45.408
 11
-45.493
 20
48.475
 21
48.493
  0
LINE
  8
0
 10
-45.493
 11
-45.475
 20
48.493
 21
48.408
  0
LINE
  8
0
 10
-45.475
 11
-45.467
 20
48.408
 21
48.129
  0
LINE
  8
0
 10
-45.467
 11
-45.523
 20
48.129
 21
47.789
  0
LINE
  8
0
 10
-45.523
 11
-45.6
 20
47.789
 21
47.576
  0
LINE
  8
0
 10
-45.6
 11
-45.824
 20
47.576
 21
47.615
  0
LINE
  8
0
 10
-45.824
 11
-46.146
 20
47.615
 21
47.737
  0
LINE
  8
0
 10
-46.146
 11
-46.384
 20
47.737
 21
47.883
  0
LINE
  8
0
 10
-46.384
 11
-46.448
 20
47.883
 21
47.941
  0
LINE
  8
0
 10
-46.448
 11
-46.475
 20
47.941
 21
47.859
  0
LINE
  8
0
 10
-46.475
 11
-46.608
 20
47.859
 21
47.613
  0
LINE
  8
0
 10
-46.608
 11
-46.826
 20
47.613
 21
47.347
  0
LINE
  8
0
 10
-46.826
 11
-47
 20
47.347
 21
47.201
  0
LINE
  8
0
 10
-47
 11
-47.174
 20
47.201
 21
47.347
  0
LINE
  8
0
 10
-47.174
 11
-47.392
 20
47.347
 21
47.613
  0
LINE
  8
0
 10
-47.392
 11
-47.525
 20
47.613
 21
47.859
  0
LINE
  8
0
 10
-47.525
 11
-47.552
 20
47.859
 21
47.941
  0
LINE
  8
0
 10
-47.552
 11
-47.616
 20
47.941
 21
47.883
  0
LINE
  8
0
 10
-47.616
 11
-47.854
 20
47.883
 21
47.737
  0
LINE
  8
0
 10
-47.854
 11
-48.176
 20
47.737
 21
47.615
  0
LINE
  8
0
 10
-48.176
 11
-48.4
 20
47.615
 21
47.576
  0
LINE
  8
0
 10
-48.4
 11
-48.477
 20
47.576
 21
47.789
  0
LINE
  8
0
 10
-48.477
 11
-48.533
 20
47.789
 21
48.129
  0
LINE
  8
0
 10
-48.533
 11
-48.525
 20
48.129
 21
48.408
  0
LINE
  8
0
 10
-48.525
 11
-48.507
 20
48.408
 21
48.493
  0
LINE
  8
0
 10
-48.507
 11
-48.592
 20
48.493
 21
48.475
  0
LINE
  8
0
 10
-48.592
 11
-48.871
 20
48.475
 21
48.467
  0
LINE
  8
0
 10
-48.871
 11
-49.211
 20
48.467
 21
48.523
  0
LINE
  8
0
 10
-49.211
 11
-49.424
 20
48.523
 21
48.6
  0
LINE
  8
0
 10
-49.424
 11
-49.385
 20
48.6
 21
48.824
  0
LINE
  8
0
 10
-49.385
 11
-49.263
 20
48.824
 21
49.146
  0
LINE
  8
0
 10
-49.263
 11
-49.117
 20
49.146
 21
49.384
  0
LINE
  8
0
 10
-49.117
 11
-49.059
 20
49.384
 21
49.448
  0
LINE
  8
0
 10
-49.059
 11
-49.141
 20
49.448
 21
49.475
  0
LINE
  8
0
 10
-49.141
 11
-49.387
 20
49.475
 21
49.608
  0
LINE
  8
0
 10
-49.387
 11
-49.653
 20
49.608
 21
49.826
  0
LINE
  8
0
 10
-49.653
 11
-49.799
 20
49.826
 21
50
  0
LINE
  8
0
 10
-41.45
 11
-41.45
 20
47.05
 21
52.95
  0
LINE
  8
0
 10
-41.45
 11
-38.55
 20
52.95
 21
52.95
  0
LINE
  8
0
 10
-38.55
 11
-38.55
 20
52.95
 21
47.05
  0
LINE
  8
0
 10
-38.55
 11
-41.45
 20
47.05
 21
47.05
  0
LINE
  8
0
 10
-35.45
 11
-35.45
 20
47.05
 21
52.95
  0
LINE
  8
0
 10
-35.45
 11
-32.55
 20
52.95
 21
52.95
  0
LINE
  8
0
 10
-32.55
 11
-32.55
 20
52.95
 21
47.05
  0
LINE
  8
0
 10
-32.55
 11
-35.45
 20
47.05
 21
47.05
  0
LINE
  8
0
 10
-30
 11
-30
 20
80
 21
106.7
  0
LINE
  8
0
 10
-30
 11
-10
 20
106.7
 21
106.7
  0
LINE
  8
0
 10
-10
 11
-10
 20
106.7
 21
102.65
  0
LINE
  8
0
 10
-10
 11
-24
 20
102.65
 21
102.65
  0
LINE
  8
0
 10
-24
 11
-24
 20
102.65
 21
99.75
  0
LINE
  8
0
 10
-24
 11
-10
 20
99.75
 21
99.75
  0
LINE
  8
0
 10
-10
 11
-10
 20
99.75
 21
94.75
  0
LINE
  8
0
 10
-10
 11
-24
 20
94.75
 21
94.75
  0
LINE
  8
0
 10
-24
 11
-24
 20
94.75
 21
91.85
  0
LINE
  8
0
 10
-24
 11
-10
 20
91.85
 21
91.85
  0
LINE
  8
0
 10
-10
 11
-10
 20
91.85
 21
86.85
  0
LINE
  8
0
 10
-10
 11
-24
 20
86.85
 21
86.85
  0
LINE
  8
0
 10
-24
 11
-24
 20
86.85
 21
83.95
  0
LINE
  8
0
 10
-24
 11
-10
 20
83.95
 21
83.95
  0
LINE
  8
0
 10
-10
 11
-10
 20
83.95
 21
80
  0
LINE
  8
0
 10
-10
 11
-30
 20
80
 21
80
  0
LINE
  8
0
 10
-29.8
 11
-29.8
 20
-76.3
 21
-63.7
  0
LINE
  8
0
 10
-29.8
 11
-6.3
 20
-63.7
 21
-63.7
  0
LINE
  8
0
 10
-6.3
 11
-6.3
 20
-63.7
 21
-76.3
  0
LINE
  8
0
 10
-6.3
 11
-29.8
 20
-76.3
 21
-76.3
  0
LINE
  8
0
 10
-29.8
 11
-29.8
 20
-54.3
 21
-41.7
  0
LINE
  8
0
 10
-29.8
 11
-6.3
 20
-41.7
 21
-41.7
  0
LINE
  8
0
 10
-6.3
 11
-6.3
 20
-41.7
 21
-45.017
  0
LINE
  8
0
 10
-6.3
 11
-6.131
 20
-45.017
 21
-45.037
  0
LINE
  8
0
 10
-6.131
 11
-5.9
 20
-45.037
 21
-45.083
  0
LINE
  8
0
 10
-5.9
 11
-5.673
 20
-45.083
 21
-45.147
  0
LINE
  8
0
 10
-5.673
 11
-5.452
 20
-45.147
 21
-45.228
  0
LINE
  8
0
 10
-5.452
 11
-5.238
 20
-45.228
 21
-45.327
  0
LINE
  8
0
 10
-5.238
 11
-5.033
 20
-45.327
 21
-45.442
  0
LINE
  8
0
 10
-5.033
 11
-4.837
 20
-45.442
 21
-45.573
  0
LINE
  8
0
 10
-4.837
 11
-4.652
 20
-45.573
 21
-45.719
  0
LINE
  8
0
 10
-4.652
 11
-4.479
 20
-45.719
 21
-45.879
  0
LINE
  8
0
 10
-4.479
 11
-4.319
 20
-45.879
 21
-46.052
  0
LINE
  8
0
 10
-4.319
 11
-4.173
 20
-46.052
 21
-46.237
  0
LINE
  8
0
 10
-4.173
 11
-4.042
 20
-46.237
 21
-46.433
  0
LINE
  8
0
 10
-4.042
 11
-3.927
 20
-46.433
 21
-46.638
  0
LINE
  8
0
 10
-3.927
 11
-3.828
 20
-46.638
 21
-46.852
  0
LINE
  8
0
 10
-3.828
 11
-3.747
 20
-46.852
 21
-47.073
  0
LINE
  8
0
 10
-3.747
 11
-3.683
 20
-47.073
 21
-47.3
  0
LINE
  8
0
 10
-3.683
 11
-3.637
 20
-47.3
 21
-47.531
  0
LINE
  8
0
 10
-3.637
 11
-3.609
 20
-47.531
 21
-47.765
  0
LINE
  8
0
 10
-3.609
 11
-3.6
 20
-47.765
 21
-48
  0
LINE
  8
0
 10
-3.6
 11
-3.609
 20
-48
 21
-48.235
  0
LINE
  8
0
 10
-3.609
 11
-3.637
 20
-48.235
 21
-48.469
  0
LINE
  8
0
 10
-3.637
 11
-3.683
 20
-48.469
 21
-48.7
  0
LINE
  8
0
 10
-3.683
 11
-3.747
 20
-48.7
 21
-48.927
  0
LINE
  8
0
 10
-3.747
 11
-3.828
 20
-48.927
 21
-49.148
  0
LINE
  8
0
 10
-3.828
 11
-3.927
 20
-49.148
 21
-49.362
  0
LINE
  8
0
 10
-3.927
 11
-4.042
 20
-49.362
 21
-49.567
  0
LINE
  8
0
 10
-4.042
 11
-4.173
 20
-49.567
 21
-49.763
  0
LINE
  8
0
 10
-4.173
 11
-4.319
 20
-49.763
 21
-49.948
  0
LINE
  8
0
 10
-4.319
 11
-4.479
 20
-49.948
 21
-50.121
  0
LINE
  8
0
 10
-4.479
 11
-4.652
 20
-50.121
 21
-50.281
  0
LINE
  8
0
 10
-4.652
 11
-4.837
 20
-50.281
 21
-50.427
  0
LINE
  8
0
 10
-4.837
 11
-5.033
 20
-50.427
 21
-50.558
  0
LINE
  8
0
 10
-5.033
 11
-5.238
 20
-50.558
 21
-50.673
  0
LINE
  8
0
 10
-5.238
 11
-5.452
 20
-50.673
 21
-50.772
  0
LINE
  8
0
 10
-5.452
 11
-5.673
 20
-50.772
 21
-50.853
  0
LINE
  8
0
 10
-5.673
 11
-5.9
 20
-50.853
 21
-50.917
  0
LINE
  8
0
 10
-5.9
 11
-6.131
 20
-50.917
 21
-50.963
  0
LINE
  8
0
 10
-6.131
 11
-6.3
 20
-50.963
 21
-50.983
  0
LINE
  8
0
 10
-6.3
 11
-6.3
 20
-50.983
 21
-54.3
  0
LINE
  8
0
 10
-6.3
 11
-29.8
 20
-54.3
 21
-54.3
  0
LINE
  8
0
 10
-28.6
 11
-28.6
 20
-27.1
 21
-20.9
  0
LINE
  8
0
 10
-28.6
 11
-25.78
 20
-20.9
 21
-20.9
  0
LINE
  8
0
 10
-25.78
 11
-25.6
 20
-20.9
 21
-20.547
  0
LINE
  8
0
 10
-25.6
 11
-25.6
 20
-20.547
 21
-18.7
  0
LINE
  8
0
 10
-25.6
 11
-24.078
 20
-18.7
 21
-18.7
  0
LINE
  8
0
 10
-24.078
 11
-23.714
 20
-18.7
 21
-18.337
  0
LINE
  8
0
 10
-23.714
 11
-21.763
 20
-18.337
 21
-17.343
  0
LINE
  8
0
 10
-21.763
 11
-19.6
 20
-17.343
 21
-17
  0
LINE
  8
0
 10
-19.6
 11
-17.437
 20
-17
 21
-17.343
  0
LINE
  8
0
 10
-17.437
 11
-15.486
 20
-17.343
 21
-18.337
  0
LINE
  8
0
 10
-15.486
 11
-13.937
 20
-18.337
 21
-19.886
  0
LINE
  8
0
 10
-13.937
 11
-12.943
 20
-19.886
 21
-21.837
  0
LINE
  8
0
 10
-12.943
 11
-12.6
 20
-21.837
 21
-24
  0
LINE
  8
0
 10
-12.6
 11
-12.943
 20
-24
 21
-26.163
  0
LINE
  8
0
 10
-12.943
 11
-13.937
 20
-26.163
 21
-28.114
  0
LINE
  8
0
 10
-13.937
 11
-15.486
 20
-28.114
 21
-29.663
  0
LINE
  8
0
 10
-15.486
 11
-17.437
 20
-29.663
 21
-30.657
  0
LINE
  8
0
 10
-17.437
 11
-19.6
 20
-30.657
 21
-31
  0
LINE
  8
0
 10
-19.6
 11
-21.763
 20
-31
 21
-30.657
  0
LINE
  8
0
 10
-21.763
 11
-23.714
 20
-30.657
 21
-29.663
  0
LINE
  8
0
 10
-23.714
 11
-24.078
 20
-29.663
 21
-29.3
  0
LINE
  8
0
 10
-24.078
 11
-25.6
 20
-29.3
 21
-29.3
  0
LINE
  8
0
 10
-25.6
 11
-25.6
 20
-29.3
 21
-27.453
  0
LINE
  8
0
 10
-25.6
 11
-25.78
 20
-27.453
 21
-27.1
  0
LINE
  8
0
 10
-25.78
 11
-28.6
 20
-27.1
 21
-27.1
  0
LINE
  8
0
 10
-24.7
 11
-24.45
 20
-24
 21
-22.424
  0
LINE
  8
0
 10
-24.45
 11
-23.726
 20
-22.424
 21
-21.002
  0
LINE
  8
0
 10
-23.726
 11
-22.598
 20
-21.002
 21
-19.874
  0
LINE
  8
0
 10
-22.598
 11
-21.176
 20
-19.874
 21
-19.15
  0
LINE
  8
0
 10
-21.176
 11
-19.6
 20
-19.15
 21
-18.9
  0
LINE
  8
0
 10
-19.6
 11
-18.024
 20
-18.9
 21
-19.15
  0
LINE
  8
0
 10
-18.024
 11
-16.602
 20
-19.15
 21
-19.874
  0
LINE
  8
0
 10
-16.602
 11
-15.474
 20
-19.874
 21
-21.002
  0
LINE
  8
0
 10
-15.474
 11
-14.75
 20
-21.002
 21
-22.424
  0
LINE
  8
0
 10
-14.75
 11
-14.5
 20
-22.424
 21
-24
  0
LINE
  8
0
 10
-14.5
 11
-14.75
 20
-24
 21
-25.576
  0
LINE
  8
0
 10
-14.75
 11
-15.474
 20
-25.576
 21
-26.998
  0
LINE
  8
0
 10
-15.474
 11
-16.602
 20
-26.998
 21
-28.126
  0
LINE
  8
0
 10
-16.602
 11
-18.024
 20
-28.126
 21
-28.85
  0
LINE
  8
0
 10
-18.024
 11
-19.6
 20
-28.85
 21
-29.1
  0
LINE
  8
0
 10
-19.6
 11
-21.176
 20
-29.1
 21
-28.85
  0
LINE
  8
0
 10
-21.176
 11
-22.598
 20
-28.85
 21
-28.126
  0
LINE
  8
0
 10
-22.598
 11
-23.726
 20
-28.126
 21
-26.998
  0
LINE
  8
0
 10
-23.726
 11
-24.45
 20
-26.998
 21
-25.576
  0
LINE
  8
0
 10
-24.45
 11
-24.7
 20
-25.576
 21
-24
  0
LINE
  8
0
 10
-9.6
 11
-9.6
 20
-27.1
 21
-20.9
  0
LINE
  8
0
 10
-9.6
 11
-6.78
 20
-20.9
 21
-20.9
  0
LINE
  8
0
 10
-6.78
 11
-6.6
 20
-20.9
 21
-20.547
  0
LINE
  8
0
 10
-6.6
 11
-6.6
 20
-20.547
 21
-18.7
  0
LINE
  8
0
 10
-6.6
 11
-5.078
 20
-18.7
 21
-18.7
  0
LINE
  8
0
 10
-5.078
 11
-4.714
 20
-18.7
 21
-18.337
  0
LINE
  8
0
 10
-4.714
 11
-2.763
 20
-18.337
 21
-17.343
  0
LINE
  8
0
 10
-2.763
 11
-0.6
 20
-17.343
 21
-17
  0
LINE
  8
0
 10
-0.6
 11
1.563
 20
-17
 21
-17.343
  0
LINE
  8
0
 10
1.563
 11
3.514
 20
-17.343
 21
-18.337
  0
LINE
  8
0
 10
3.514
 11
5.063
 20
-18.337
 21
-19.886
  0
LINE
  8
0
 10
5.063
 11
6.057
 20
-19.886
 21
-21.837
  0
LINE
  8
0
 10
6.057
 11
6.4
 20
-21.837
 21
-24
  0
LINE
  8
0
 10
6.4
 11
6.057
 20
-24
 21
-26.163
  0
LINE
  8
0
 10
6.057
 11
5.063
 20
-26.163
 21
-28.114
  0
LINE
  8
0
 10
5.063
 11
3.514
 20
-28.114
 21
-29.663
  0
LINE
  8
0
 10
3.514
 11
1.563
 20
-29.663
 21
-30.657
  0
LINE
  8
0
 10
1.563
 11
-0.6
 20
-30.657
 21
-31
  0
LINE
  8
0
 10
-0.6
 11
-2.763
 20
-31
 21
-30.657
  0
LINE
  8
0
 10
-2.763
 11
-4.714
 20
-30.657
 21
-29.663
  0
LINE
  8
0
 10
-4.714
 11
-5.078
 20
-29.663
 21
-29.3
  0
LINE
  8
0
 10
-5.078
 11
-6.6
 20
-29.3
 21
-29.3
  0
LINE
  8
0
 10
-6.6
 11
-6.6
 20
-29.3
 21
-27.453
  0
LINE
  8
0
 10
-6.6
 11
-6.78
 20
-27.453
 21
-27.1
  0
LINE
  8
0
 10
-6.78
 11
-9.6
 20
-27.1
 21
-27.1
  0
LINE
  8
0
 10
-5.7
 11
-5.45
 20
-24
 21
-22.424
  0
LINE
  8
0
 10
-5.45
 11
-4.726
 20
-22.424
 21
-21.002
  0
LINE
  8
0
 10
-4.726
 11
-3.598
 20
-21.002
 21
-19.874
  0
LINE
  8
0
 10
-3.598
 11
-2.176
 20
-19.874
 21
-19.15
  0
LINE
  8
0
 10
-2.176
 11
-0.6
 20
-19.15
 21
-18.9
  0
LINE
  8
0
 10
-0.6
 11
0.976
 20
-18.9
 21
-19.15
  0
LINE
  8
0
 10
0.976
 11
2.398
 20
-19.15
 21
-19.874
  0
LINE
  8
0
 10
2.398
 11
3.526
 20
-19.874
 21
-21.002
  0
LINE
  8
0
 10
3.526
 11
4.25
 20
-21.002
 21
-22.424
  0
LINE
  8
0
 10
4.25
 11
4.5
 20
-22.424
 21
-24
  0
LINE
  8
0
 10
4.5
 11
4.25
 20
-24
 21
-25.576
  0
LINE
  8
0
 10
4.25
 11
3.526
 20
-25.576
 21
-26.998
  0
LINE
  8
0
 10
3.526
 11
2.398
 20
-26.998
 21
-28.126
  0
LINE
  8
0
 10
2.398
 11
0.976
 20
-28.126
 21
-28.85
  0
LINE
  8
0
 10
0.976
 11
-0.6
 20
-28.85
 21
-29.1
  0
LINE
  8
0
 10
-0.6
 11
-2.176
 20
-29.1
 21
-28.85
  0
LINE
  8
0
 10
-2.176
 11
-3.598
 20
-28.85
 21
-28.126
  0
LINE
  8
0
 10
-3.598
 11
-4.726
 20
-28.126
 21
-26.998
  0
LINE
  8
0
 10
-4.726
 11
-5.45
 20
-26.998
 21
-25.576
  0
LINE
  8
0
 10
-5.45
 11
-5.7
 20
-25.576
 21
-24
  0
LINE
  8
0
 10
0
 11
0
 20
80
 21
107
  0
LINE
  8
0
 10
0
 11
20
 20
107
 21
107
  0
LINE
  8
0
 10
20
 11
20
 20
107
 21
102.85
  0
LINE
  8
0
 10
20
 11
6
 20
102.85
 21
102.85
  0
LINE
  8
0
 10
6
 11
6
 20
102.85
 21
99.95
  0
LINE
  8
0
 10
6
 11
20
 20
99.95
 21
99.95
  0
LINE
  8
0
 10
20
 11
20
 20
99.95
 21
94.85
  0
LINE
  8
0
 10
20
 11
6
 20
94.85
 21
94.85
  0
LINE
  8
0
 10
6
 11
6
 20
94.85
 21
91.95
  0
LINE
  8
0
 10
6
 11
20
 20
91.95
 21
91.95
  0
LINE
  8
0
 10
20
 11
20
 20
91.95
 21
86.85
  0
LINE
  8
0
 10
20
 11
6
 20
86.85
 21
86.85
  0
LINE
  8
0
 10
6
 11
6
 20
86.85
 21
83.95
  0
LINE
  8
0
 10
6
 11
20
 20
83.95
 21
83.95
  0
LINE
  8
0
 10
20
 11
20
 20
83.95
 21
80
  0
LINE
  8
0
 10
20
 11
0
 20
80
 21
80
  0
LINE
  8
0
 10
21.6
 11
21.72
 20
-68
 21
-64.94
  0
LINE
  8
0
 10
21.72
 11
22.08
 20
-64.94
 21
-61.899
  0
LINE
  8
0
 10
22.08
 11
22.678
 20
-61.899
 21
-58.896
  0
LINE
  8
0
 10
22.678
 11
23.509
 20
-58.896
 21
-55.948
  0
LINE
  8
0
 10
23.509
 11
24.569
 20
-55.948
 21
-53.075
  0
LINE
  8
0
 10
24.569
 11
25.851
 20
-53.075
 21
-50.294
  0
LINE
  8
0
 10
25.851
 11
27.347
 20
-50.294
 21
-47.623
  0
LINE
  8
0
 10
27.347
 11
29.048
 20
-47.623
 21
-45.076
  0
LINE
  8
0
 10
29.048
 11
30.944
 20
-45.076
 21
-42.672
  0
LINE
  8
0
 10
30.944
 11
33.023
 20
-42.672
 21
-40.423
  0
LINE
  8
0
 10
33.023
 11
35.272
 20
-40.423
 21
-38.344
  0
LINE
  8
0
 10
35.272
 11
37.676
 20
-38.344
 21
-36.448
  0
LINE
  8
0
 10
37.676
 11
40.223
 20
-36.448
 21
-34.747
  0
LINE
  8
0
 10
40.223
 11
42.894
 20
-34.747
 21
-33.251
  0
LINE
  8
0
 10
42.894
 11
45.675
 20
-33.251
 21
-31.969
  0
LINE
  8
0
 10
45.675
 11
48.548
 20
-31.969
 21
-30.909
  0
LINE
  8
0
 10
48.548
 11
51.496
 20
-30.909
 21
-30.078
  0
LINE
  8
0
 10
51.496
 11
54.499
 20
-30.078
 21
-29.48
  0
LINE
  8
0
 10
54.499
 11
57.54
 20
-29.48
 21
-29.12
  0
LINE
  8
0
 10
57.54
 11
60.6
 20
-29.12
 21
-29
  0
LINE
  8
0
 10
60.6
 11
63.66
 20
-29
 21
-29.12
  0
LINE
  8
0
 10
63.66
 11
66.701
 20
-29.12
 21
-29.48
  0
LINE
  8
0
 10
66.701
 11
69.704
 20
-29.48
 21
-30.078
  0
LINE
  8
0
 10
69.704
 11
72.652
 20
-30.078
 21
-30.909
  0
LINE
  8
0
 10
72.652
 11
75.525
 20
-30.909
 21
-31.969
  0
LINE
  8
0
 10
75.525
 11
78.306
 20
-31.969
 21
-33.251
  0
LINE
  8
0
 10
78.306
 11
80.977
 20
-33.251
 21
-34.747
  0
LINE
  8
0
 10
80.977
 11
83.524
 20
-34.747
 21
-36.448
  0
LINE
  8
0
 10
83.524
 11
85.928
 20
-36.448
 21
-38.344
  0
LINE
  8
0
 10
85.928
 11
88.177
 20
-38.344
 21
-40.423
  0
LINE
  8
0
 10
88.177
 11
90.256
 20
-40.423
 21
-42.672
  0
LINE
  8
0
 10
90.256
 11
92.152
 20
-42.672
 21
-45.076
  0
LINE
  8
0
 10
92.152
 11
93.853
 20
-45.076
 21
-47.623
  0
LINE
  8
0
 10
93.853
 11
95.349
 20
-47.623
 21
-50.294
  0
LINE
  8
0
 10
95.349
 11
96.631
 20
-50.294
 21
-53.075
  0
LINE
  8
0
 10
96.631
 11
97.691
 20
-53.075
 21
-55.948
  0
LINE
  8
0
 10
97.691
 11
98.522
 20
-55.948
 21
-58.896
  0
LINE
  8
0
 10
98.522
 11
99.12
 20
-58.896
 21
-61.899
  0
LINE
  8
0
 10
99.12
 11
99.48
 20
-61.899
 21
-64.94
  0
LINE
  8
0
 10
99.48
 11
99.6
 20
-64.94
 21
-68
  0
LINE
  8
0
 10
99.6
 11
99.48
 20
-68
 21
-71.06
  0
LINE
  8
0
 10
99.48
 11
99.12
 20
-71.06
 21
-74.101
  0
LINE
  8
0
 10
99.12
 11
98.522
 20
-74.101
 21
-77.104
  0
LINE
  8
0
 10
98.522
 11
97.691
 20
-77.104
 21
-80.052
  0
LINE
  8
0
 10
97.691
 11
96.631
 20
-80.052
 21
-82.925
  0
LINE
  8
0
 10
96.631
 11
95.349
 20
-82.925
 21
-85.706
  0
LINE
  8
0
 10
95.349
 11
93.853
 20
-85.706
 21
-88.377
  0
LINE
  8
0
 10
93.853
 11
92.152
 20
-88.377
 21
-90.924
  0
LINE
  8
0
 10
92.152
 11
90.256
 20
-90.924
 21
-93.328
  0
LINE
  8
0
 10
90.256
 11
88.177
 20
-93.328
 21
-95.577
  0
LINE
  8
0
 10
88.177
 11
85.928
 20
-95.577
 21
-97.656
  0
LINE
  8
0
 10
85.928
 11
83.524
 20
-97.656
 21
-99.552
  0
LINE
  8
0
 10
83.524
 11
80.977
 20
-99.552
 21
-101.253
  0
LINE
  8
0
 10
80.977
 11
78.306
 20
-101.253
 21
-102.749
  0
LINE
  8
0
 10
78.306
 11
75.525
 20
-102.749
 21
-104.031
  0
LINE
  8
0
 10
75.525
 11
72.652
 20
-104.031
 21
-105.091
  0
LINE
  8
0
 10
72.652
 11
69.704
 20
-105.091
 21
-105.922
  0
LINE
  8
0
 10
69.704
 11
66.701
 20
-105.922
 21
-106.52
  0
LINE
  8
0
 10
66.701
 11
63.66
 20
-106.52
 21
-106.88
  0
LINE
  8
0
 10
63.66
 11
60.6
 20
-106.88
 21
-107
  0
LINE
  8
0
 10
60.6
 11
57.54
 20
-107
 21
-106.88
  0
LINE
  8
0
 10
57.54
 11
54.499
 20
-106.88
 21
-106.52
  0
LINE
  8
0
 10
54.499
 11
51.496
 20
-106.52
 21
-105.922
  0
LINE
  8
0
 10
51.496
 11
48.548
 20
-105.922
 21
-105.091
  0
LINE
  8
0
 10
48.548
 11
45.675
 20
-105.091
 21
-104.031
  0
LINE
  8
0
 10
45.675
 11
42.894
 20
-104.031
 21
-102.749
  0
LINE
  8
0
 10
42.894
 11
40.223
 20
-102.749
 21
-101.253
  0
LINE
  8
0
 10
40.223
 11
37.676
 20
-101.253
 21
-99.552
  0
LINE
  8
0
 10
37.676
 11
35.272
 20
-99.552
 21
-97.656
  0
LINE
  8
0
 10
35.272
 11
33.023
 20
-97.656
 21
-95.577
  0
LINE
  8
0
 10
33.023
 11
30.944
 20
-95.577
 21
-93.328
  0
LINE
  8
0
 10
30.944
 11
29.048
 20
-93.328
 21
-90.924
  0
LINE
  8
0
 10
29.048
 11
27.347
 20
-90.924
 21
-88.377
  0
LINE
  8
0
 10
27.347
 11
25.851
 20
-88.377
 21
-85.706
  0
LINE
  8
0
 10
25.851
 11
24.569
 20
-85.706
 21
-82.925
  0
LINE
  8
0
 10
24.569
 11
23.509
 20
-82.925
 21
-80.052
  0
LINE
  8
0
 10
23.509
 11
22.678
 20
-80.052
 21
-77.104
  0
LINE
  8
0
 10
22.678
 11
22.08
 20
-77.104
 21
-74.101
  0
LINE
  8
0
 10
22.08
 11
21.72
 20
-74.101
 21
-71.06
  0
LINE
  8
0
 10
21.72
 11
21.6
 20
-71.06
 21
-68
  0
LINE
  8
0
 10
55.15
 11
55.15
 20
-91.2
 21
-88.3
  0
LINE
  8
0
 10
55.15
 11
58.05
 20
-88.3
 21
-88.3
  0
LINE
  8
0
 10
58.05
 11
58.05
 20
-88.3
 21
-91.2
  0
LINE
  8
0
 10
58.05
 11
55.15
 20
-91.2
 21
-91.2
  0
LINE
  8
0
 10
55.15
 11
55.15
 20
-85.95
 21
-83.05
  0
LINE
  8
0
 10
55.15
 11
58.05
 20
-83.05
 21
-83.05
  0
LINE
  8
0
 10
58.05
 11
58.05
 20
-83.05
 21
-85.95
  0
LINE
  8
0
 10
58.05
 11
55.15
 20
-85.95
 21
-85.95
  0
LINE
  8
0
 10
57.801
 11
57.947
 20
-68
 21
-67.826
  0
LINE
  8
0
 10
57.947
 11
58.213
 20
-67.826
 21
-67.608
  0
LINE
  8
0
 10
58.213
 11
58.459
 20
-67.608
 21
-67.475
  0
LINE
  8
0
 10
58.459
 11
58.541
 20
-67.475
 21
-67.448
  0
LINE
  8
0
 10
58.541
 11
58.483
 20
-67.448
 21
-67.384
  0
LINE
  8
0
 10
58.483
 11
58.337
 20
-67.384
 21
-67.146
  0
LINE
  8
0
 10
58.337
 11
58.215
 20
-67.146
 21
-66.824
  0
LINE
  8
0
 10
58.215
 11
58.176
 20
-66.824
 21
-66.6
  0
LINE
  8
0
 10
58.176
 11
58.389
 20
-66.6
 21
-66.523
  0
LINE
  8
0
 10
58.389
 11
58.729
 20
-66.523
 21
-66.467
  0
LINE
  8
0
 10
58.729
 11
59.008
 20
-66.467
 21
-66.475
  0
LINE
  8
0
 10
59.008
 11
59.093
 20
-66.475
 21
-66.493
  0
LINE
  8
0
 10
59.093
 11
59.075
 20
-66.493
 21
-66.408
  0
LINE
  8
0
 10
59.075
 11
59.067
 20
-66.408
 21
-66.129
  0
LINE
  8
0
 10
59.067
 11
59.123
 20
-66.129
 21
-65.789
  0
LINE
  8
0
 10
59.123
 11
59.2
 20
-65.789
 21
-65.576
  0
LINE
  8
0
 10
59.2
 11
59.424
 20
-65.576
 21
-65.615
  0
LINE
  8
0
 10
59.424
 11
59.746
 20
-65.615
 21
-65.737
  0
LINE
  8
0
 10
59.746
 11
59.984
 20
-65.737
 21
-65.883
  0
LINE
  8
0
 10
59.984
 11
60.048
 20
-65.883
 21
-65.941
  0
LINE
  8
0
 10
60.048
 11
60.075
 20
-65.941
 21
-65.859
  0
LINE
  8
0
 10
60.075
 11
60.208
 20
-65.859
 21
-65.613
  0
LINE
  8
0
 10
60.208
 11
60.426
 20
-65.613
 21
-65.347
  0
LINE
  8
0
 10
60.426
 11
60.6
 20
-65.347
 21
-65.201
  0
LINE
  8
0
 10
60.6
 11
60.774
 20
-65.201
 21
-65.347
  0
LINE
  8
0
 10
60.774
 11
60.992
 20
-65.347
 21
-65.613
  0
LINE
  8
0
 10
60.992
 11
61.125
 20
-65.613
 21
-65.859
  0
LINE
  8
0
 10
61.125
 11
61.152
 20
-65.859
 21
-65.941
  0
LINE
  8
0
 10
61.152
 11
61.216
 20
-65.941
 21
-65.883
  0
LINE
  8
0
 10
61.216
 11
61.454
 20
-65.883
 21
-65.737
  0
LINE
  8
0
 10
61.454
 11
61.776
 20
-65.737
 21
-65.615
  0
LINE
  8
0
 10
61.776
 11
62
 20
-65.615
 21
-65.576
  0
LINE
  8
0
 10
62
 11
62.077
 20
-65.576
 21
-65.789
  0
LINE
  8
0
 10
62.077
 11
62.133
 20
-65.789
 21
-66.129
  0
LINE
  8
0
 10
62.133
 11
62.125
 20
-66.129
 21
-66.408
  0
LINE
  8
0
 10
62.125
 11
62.107
 20
-66.408
 21
-66.493
  0
LINE
  8
0
 10
62.107
 11
62.192
 20
-66.493
 21
-66.475
  0
LINE
  8
0
 10
62.192
 11
62.471
 20
-66.475
 21
-66.467
  0
LINE
  8
0
 10
62.471
 11
62.811
 20
-66.467
 21
-66.523
  0
LINE
  8
0
 10
62.811
 11
63.024
 20
-66.523
 21
-66.6
  0
LINE
  8
0
 10
63.024
 11
62.985
 20
-66.6
 21
-66.824
  0
LINE
  8
0
 10
62.985
 11
62.863
 20
-66.824
 21
-67.146
  0
LINE
  8
0
 10
62.863
 11
62.717
 20
-67.146
 21
-67.384
  0
LINE
  8
0
 10
62.717
 11
62.659
 20
-67.384
 21
-67.448
  0
LINE
  8
0
 10
62.659
 11
62.741
 20
-67.448
 21
-67.475
  0
LINE
  8
0
 10
62.741
 11
62.987
 20
-67.475
 21
-67.608
  0
LINE
  8
0
 10
62.987
 11
63.253
 20
-67.608
 21
-67.826
  0
LINE
  8
0
 10
63.253
 11
63.399
 20
-67.826
 21
-68
  0
LINE
  8
0
 10
63.399
 11
63.253
 20
-68
 21
-68.174
  0
LINE
  8
0
 10
63.253
 11
62.987
 20
-68.174
 21
-68.392
  0
LINE
  8
0
 10
62.987
 11
62.741
 20
-68.392
 21
-68.525
  0
LINE
  8
0
 10
62.741
 11
62.659
 20
-68.525
 21
-68.552
  0
LINE
  8
0
 10
62.659
 11
62.717
 20
-68.552
 21
-68.616
  0
LINE
  8
0
 10
62.717
 11
62.863
 20
-68.616
 21
-68.854
  0
LINE
  8
0
 10
62.863
 11
62.985
 20
-68.854
 21
-69.176
  0
LINE
  8
0
 10
62.985
 11
63.024
 20
-69.176
 21
-69.4
  0
LINE
  8
0
 10
63.024
 11
62.811
 20
-69.4
 21
-69.477
  0
LINE
  8
0
 10
62.811
 11
62.471
 20
-69.477
 21
-69.533
  0
LINE
  8
0
 10
62.471
 11
62.192
 20
-69.533
 21
-69.525
  0
LINE
  8
0
 10
62.192
 11
62.107
 20
-69.525
 21
-69.507
  0
LINE
  8
0
 10
62.107
 11
62.125
 20
-69.507
 21
-69.592
  0
LINE
  8
0
 10
62.125
 11
62.133
 20
-69.592
 21
-69.871
  0
LINE
  8
0
 10
62.133
 11
62.077
 20
-69.871
 21
-70.211
  0
LINE
  8
0
 10
62.077
 11
62
 20
-70.211
 21
-70.424
  0
LINE
  8
0
 10
62
 11
61.776
 20
-70.424
 21
-70.385
  0
LINE
  8
0
 10
61.776
 11
61.454
 20
-70.385
 21
-70.263
  0
LINE
  8
0
 10
61.454
 11
61.216
 20
-70.263
 21
-70.117
  0
LINE
  8
0
 10
61.216
 11
61.152
 20
-70.117
 21
-70.059
  0
LINE
  8
0
 10
61.152
 11
61.125
 20
-70.059
 21
-70.141
  0
LINE
  8
0
 10
61.125
 11
60.992
 20
-70.141
 21
-70.387
  0
LINE
  8
0
 10
60.992
 11
60.774
 20
-70.387
 21
-70.653
  0
LINE
  8
0
 10
60.774
 11
60.6
 20
-70.653
 21
-70.799
  0
LINE
  8
0
 10
60.6
 11
60.426
 20
-70.799
 21
-70.653
  0
LINE
  8
0
 10
60.426
 11
60.208
 20
-70.653
 21
-70.387
  0
LINE
  8
0
 10
60.208
 11
60.075
 20
-70.387
 21
-70.141
  0
LINE
  8
0
 10
60.075
 11
60.048
 20
-70.141
 21
-70.059
  0
LINE
  8
0
 10
60.048
 11
59.984
 20
-70.059
 21
-70.117
  0
LINE
  8
0
 10
59.984
 11
59.746
 20
-70.117
 21
-70.263
  0
LINE
  8
0
 10
59.746
 11
59.424
 20
-70.263
 21
-70.385
  0
LINE
  8
0
 10
59.424
 11
59.2
 20
-70.385
 21
-70.424
  0
LINE
  8
0
 10
59.2
 11
59.123
 20
-70.424
 21
-70.211
  0
LINE
  8
0
 10
59.123
 11
59.067
 20
-70.211
 21
-69.871
  0
LINE
  8
0
 10
59.067
 11
59.075
 20
-69.871
 21
-69.592
  0
LINE
  8
0
 10
59.075
 11
59.093
 20
-69.592
 21
-69.507
  0
LINE
  8
0
 10
59.093
 11
59.008
 20
-69.507
 21
-69.525
  0
LINE
  8
0
 10
59.008
 11
58.729
 20
-69.525
 21
-69.533
  0
LINE
  8
0
 10
58.729
 11
58.389
 20
-69.533
 21
-69.477
  0
LINE
  8
0
 10
58.389
 11
58.176
 20
-69.477
 21
-69.4
  0
LINE
  8
0
 10
58.176
 11
58.215
 20
-69.4
 21
-69.176
  0
LINE
  8
0
 10
58.215
 11
58.337
 20
-69.176
 21
-68.854
  0
LINE
  8
0
 10
58.337
 11
58.483
 20
-68.854
 21
-68.616
  0
LINE
  8
0
 10
58.483
 11
58.541
 20
-68.616
 21
-68.552
  0
LINE
  8
0
 10
58.541
 11
58.459
 20
-68.552
 21
-68.525
  0
LINE
  8
0
 10
58.459
 11
58.213
 20
-68.525
 21
-68.392
  0
LINE
  8
0
 10
58.213
 11
57.947
 20
-68.392
 21
-68.174
  0
LINE
  8
0
 10
57.947
 11
57.801
 20
-68.174
 21
-68
  0
LINE
  8
0
 10
63.15
 11
63.15
 20
-91.2
 21
-88.3
  0
LINE
  8
0
 10
63.15
 11
66.05
 20
-88.3
 21
-88.3
  0
LINE
  8
0
 10
66.05
 11
66.05
 20
-88.3
 21
-91.2
  0
LINE
  8
0
 10
66.05
 11
63.15
 20
-91.2
 21
-91.2
  0
LINE
  8
0
 10
63.15
 11
63.15
 20
-85.95
 21
-83.05
  0
LINE
  8
0
 10
63.15
 11
66.05
 20
-83.05
 21
-83.05
  0
LINE
  8
0
 10
66.05
 11
66.05
 20
-83.05
 21
-85.95
  0
LINE
  8
0
 10
66.05
 11
63.15
 20
-85.95
 21
-85.95
  0
LINE
  8
0
 10
105.6
 11
105.6
 20
-123
 21
-13
  0
LINE
  8
0
 10
105.6
 11
215.6
 20
-13
 21
-13
  0
LINE
  8
0
 10
215.6
 11
215.6
 20
-13
 21
-123
  0
LINE
  8
0
 10
215.6
 11
105.6
 20
-123
 21
-123
  0
LINE
  8
0
 10
108.5
 11
108.6
 20
18.5
 21
21.5
  0
LINE
  8
0
 10
108.6
 11
108.6
 20
21.5
 21
44.5
  0
LINE
  8
0
 10
108.6
 11
118.6
 20
44.5
 21
44.5
  0
LINE
  8
0
 10
118.6
 11
118.6
 20
44.5
 21
54.5
  0
LINE
  8
0
 10
118.6
 11
126.15
 20
54.5
 21
54.5
  0
LINE
  8
0
 10
126.15
 11
126.15
 20
54.5
 21
41.5
  0
LINE
  8
0
 10
126.15
 11
129.05
 20
41.5
 21
41.5
  0
LINE
  8
0
 10
129.05
 11
129.05
 20
41.5
 21
54.5
  0
LINE
  8
0
 10
129.05
 11
202.6
 20
54.5
 21
54.5
  0
LINE
  8
0
 10
202.6
 11
202.6
 20
54.5
 21
44.5
  0
LINE
  8
0
 10
202.6
 11
212.6
 20
44.5
 21
44.5
  0
LINE
  8
0
 10
212.6
 11
212.6
 20
44.5
 21
21.5
  0
LINE
  8
0
 10
212.6
 11
212.7
 20
21.5
 21
18.5
  0
LINE
  8
0
 10
212.7
 11
206.5
 20
18.5
 21
18.5
  0
LINE
  8
0
 10
206.5
 11
206.6
 20
18.5
 21
21.5
  0
LINE
  8
0
 10
206.6
 11
205.95
 20
21.5
 21
21.5
  0
LINE
  8
0
 10
205.95
 11
205.95
 20
21.5
 21
28.7
  0
LINE
  8
0
 10
205.95
 11
190.05
 20
28.7
 21
28.7
  0
LINE
  8
0
 10
190.05
 11
190.05
 20
28.7
 21
39.5
  0
LINE
  8
0
 10
190.05
 11
187.15
 20
39.5
 21
39.5
  0
LINE
  8
0
 10
187.15
 11
187.15
 20
39.5
 21
28.7
  0
LINE
  8
0
 10
187.15
 11
182.45
 20
28.7
 21
28.7
  0
LINE
  8
0
 10
182.45
 11
182.45
 20
28.7
 21
31.7
  0
LINE
  8
0
 10
182.45
 11
177.8
 20
31.7
 21
31.7
  0
LINE
  8
0
 10
177.8
 11
177.8
 20
31.7
 21
48
  0
LINE
  8
0
 10
177.8
 11
154.3
 20
48
 21
48
  0
LINE
  8
0
 10
154.3
 11
154.065
 20
48
 21
47.991
  0
LINE
  8
0
 10
154.065
 11
153.831
 20
47.991
 21
47.963
  0
LINE
  8
0
 10
153.831
 11
153.6
 20
47.963
 21
47.917
  0
LINE
  8
0
 10
153.6
 11
153.373
 20
47.917
 21
47.853
  0
LINE
  8
0
 10
153.373
 11
153.152
 20
47.853
 21
47.772
  0
LINE
  8
0
 10
153.152
 11
152.938
 20
47.772
 21
47.673
  0
LINE
  8
0
 10
152.938
 11
152.733
 20
47.673
 21
47.558
  0
LINE
  8
0
 10
152.733
 11
152.537
 20
47.558
 21
47.427
  0
LINE
  8
0
 10
152.537
 11
152.352
 20
47.427
 21
47.281
  0
LINE
  8
0
 10
152.352
 11
152.179
 20
47.281
 21
47.121
  0
LINE
  8
0
 10
152.179
 11
152.019
 20
47.121
 21
46.948
  0
LINE
  8
0
 10
152.019
 11
151.873
 20
46.948
 21
46.763
  0
LINE
  8
0
 10
151.873
 11
151.742
 20
46.763
 21
46.567
  0
LINE
  8
0
 10
151.742
 11
151.627
 20
46.567
 21
46.362
  0
LINE
  8
0
 10
151.627
 11
151.528
 20
46.362
 21
46.148
  0
LINE
  8
0
 10
151.528
 11
151.447
 20
46.148
 21
45.927
  0
LINE
  8
0
 10
151.447
 11
151.383
 20
45.927
 21
45.7
  0
LINE
  8
0
 10
151.383
 11
151.337
 20
45.7
 21
45.469
  0
LINE
  8
0
 10
151.337
 11
151.309
 20
45.469
 21
45.235
  0
LINE
  8
0
 10
151.309
 11
151.3
 20
45.235
 21
45
  0
LINE
  8
0
 10
151.3
 11
151.309
 20
45
 21
44.765
  0
LINE
  8
0
 10
151.309
 11
151.337
 20
44.765
 21
44.531
  0
LINE
  8
0
 10
151.337
 11
151.383
 20
44.531
 21
44.3
  0
LINE
  8
0
 10
151.383
 11
151.447
 20
44.3
 21
44.073
  0
LINE
  8
0
 10
151.447
 11
151.528
 20
44.073
 21
43.852
  0
LINE
  8
0
 10
151.528
 11
151.627
 20
43.852
 21
43.638
  0
LINE
  8
0
 10
151.627
 11
151.742
 20
43.638
 21
43.433
  0
LINE
  8
0
 10
151.742
 11
151.873
 20
43.433
 21
43.237
  0
LINE
  8
0
 10
151.873
 11
152.019
 20
43.237
 21
43.052
  0
LINE
  8
0
 10
152.019
 11
152.179
 20
43.052
 21
42.879
  0
LINE
  8
0
 10
152.179
 11
152.352
 20
42.879
 21
42.719
  0
LINE
  8
0
 10
152.352
 11
152.537
 20
42.719
 21
42.573
  0
LINE
  8
0
 10
152.537
 11
152.733
 20
42.573
 21
42.442
  0
LINE
  8
0
 10
152.733
 11
152.938
 20
42.442
 21
42.327
  0
LINE
  8
0
 10
152.938
 11
153.152
 20
42.327
 21
42.228
  0
LINE
  8
0
 10
153.152
 11
153.373
 20
42.228
 21
42.147
  0
LINE
  8
0
 10
153.373
 11
153.6
 20
42.147
 21
42.083
  0
LINE
  8
0
 10
153.6
 11
153.831
 20
42.083
 21
42.037
  0
LINE
  8
0
 10
153.831
 11
154.065
 20
42.037
 21
42.009
  0
LINE
  8
0
 10
154.065
 11
154.3
 20
42.009
 21
42
  0
LINE
  8
0
 10
154.3
 11
154.3
 20
42
 21
31.7
  0
LINE
  8
0
 10
154.3
 11
149.65
 20
31.7
 21
31.7
  0
LINE
  8
0
 10
149.65
 11
149.65
 20
31.7
 21
28.7
  0
LINE
  8
0
 10
149.65
 11
115.95
 20
28.7
 21
28.7
  0
LINE
  8
0
 10
115.95
 11
115.95
 20
28.7
 21
21.5
  0
LINE
  8
0
 10
115.95
 11
114.6
 20
21.5
 21
21.5
  0
LINE
  8
0
 10
114.6
 11
114.7
 20
21.5
 21
18.5
  0
LINE
  8
0
 10
114.7
 11
108.5
 20
18.5
 21
18.5
  0
LINE
  8
0
 10
108.5
 11
108.6
 20
68.5
 21
71.5
  0
LINE
  8
0
 10
108.6
 11
108.6
 20
71.5
 21
94.5
  0
LINE
  8
0
 10
108.6
 11
118.6
 20
94.5
 21
94.5
  0
LINE
  8
0
 10
118.6
 11
118.6
 20
94.5
 21
104.5
  0
LINE
  8
0
 10
118.6
 11
126.15
 20
104.5
 21
104.5
  0
LINE
  8
0
 10
126.15
 11
126.15
 20
104.5
 21
91.5
  0
LINE
  8
0
 10
126.15
 11
129.05
 20
91.5
 21
91.5
  0
LINE
  8
0
 10
129.05
 11
129.05
 20
91.5
 21
104.5
  0
LINE
  8
0
 10
129.05
 11
202.6
 20
104.5
 21
104.5
  0
LINE
  8
0
 10
202.6
 11
202.6
 20
104.5
 21
94.5
  0
LINE
  8
0
 10
202.6
 11
212.6
 20
94.5
 21
94.5
  0
LINE
  8
0
 10
212.6
 11
212.6
 20
94.5
 21
71.5
  0
LINE
  8
0
 10
212.6
 11
212.7
 20
71.5
 21
68.5
  0
LINE
  8
0
 10
212.7
 11
206.5
 20
68.5
 21
68.5
  0
LINE
  8
0
 10
206.5
 11
206.6
 20
68.5
 21
71.5
  0
LINE
  8
0
 10
206.6
 11
205.95
 20
71.5
 21
71.5
  0
LINE
  8
0
 10
205.95
 11
205.95
 20
71.5
 21
78.7
  0
LINE
  8
0
 10
205.95
 11
190.05
 20
78.7
 21
78.7
  0
LINE
  8
0
 10
190.05
 11
190.05
 20
78.7
 21
89.5
  0
LINE
  8
0
 10
190.05
 11
187.15
 20
89.5
 21
89.5
  0
LINE
  8
0
 10
187.15
 11
187.15
 20
89.5
 21
78.7
  0
LINE
  8
0
 10
187.15
 11
115.95
 20
78.7
 21
78.7
  0
LINE
  8
0
 10
115.95
 11
115.95
 20
78.7
 21
71.5
  0
LINE
  8
0
 10
115.95
 11
114.6
 20
71.5
 21
71.5
  0
LINE
  8
0
 10
114.6
 11
114.7
 20
71.5
 21
68.5
  0
LINE
  8
0
 10
114.7
 11
108.5
 20
68.5
 21
68.5
  0
LINE
  8
0
 10
108.5
 11
108.6
 20
118.5
 21
121.5
  0
LINE
  8
0
 10
108.6
 11
108.6
 20
121.5
 21
144.5
  0
LINE
  8
0
 10
108.6
 11
118.6
 20
144.5
 21
144.5
  0
LINE
  8
0
 10
118.6
 11
118.6
 20
144.5
 21
154.5
  0
LINE
  8
0
 10
118.6
 11
126.15
 20
154.5
 21
154.5
  0
LINE
  8
0
 10
126.15
 11
126.15
 20
154.5
 21
141.5
  0
LINE
  8
0
 10
126.15
 11
129.05
 20
141.5
 21
141.5
  0
LINE
  8
0
 10
129.05
 11
129.05
 20
141.5
 21
154.5
  0
LINE
  8
0
 10
129.05
 11
202.6
 20
154.5
 21
154.5
  0
LINE
  8
0
 10
202.6
 11
202.6
 20
154.5
 21
144.5
  0
LINE
  8
0
 10
202.6
 11
212.6
 20
144.5
 21
144.5
  0
LINE
  8
0
 10
212.6
 11
212.6
 20
144.5
 21
121.5
  0
LINE
  8
0
 10
212.6
 11
212.7
 20
121.5
 21
118.5
  0
LINE
  8
0
 10
212.7
 11
206.5
 20
118.5
 21
118.5
  0
LINE
  8
0
 10
206.5
 11
206.6
 20
118.5
 21
121.5
  0
LINE
  8
0
 10
206.6
 11
205.95
 20
121.5
 21
121.5
  0
LINE
  8
0
 10
205.95
 11
205.95
 20
121.5
 21
128.7
  0
LINE
  8
0
 10
205.95
 11
190.05
 20
128.7
 21
128.7
  0
LINE
  8
0
 10
190.05
 11
190.05
 20
128.7
 21
139.5
  0
LINE
  8
0
 10
190.05
 11
187.15
 20
139.5
 21
139.5
  0
LINE
  8
0
 10
187.15
 11
187.15
 20
139.5
 21
128.7
  0
LINE
  8
0
 10
187.15
 11
115.95
 20
128.7
 21
128.7
  0
LINE
  8
0
 10
115.95
 11
115.95
 20
128.7
 21
121.5
  0
LINE
  8
0
 10
115.95
 11
114.6
 20
121.5
 21
121.5
  0
LINE
  8
0
 10
114.6
 11
114.7
 20
121.5
 21
118.5
  0
LINE
  8
0
 10
114.7
 11
108.5
 20
118.5
 21
118.5
  0
LINE
  8
0
 10
108.7
 11
108.7
 20
-77.45
 21
-74.55
  0
LINE
  8
0
 10
108.7
 11
114.6
 20
-74.55
 21
-74.55
  0
LINE
  8
0
 10
114.6
 11
114.6
 20
-74.55
 21
-77.45
  0
LINE
  8
0
 10
114.6
 11
108.7
 20
-77.45
 21
-77.45
  0
LINE
  8
0
 10
108.7
 11
108.7
 20
-69.45
 21
-66.55
  0
LINE
  8
0
 10
108.7
 11
114.6
 20
-66.55
 21
-66.55
  0
LINE
  8
0
 10
114.6
 11
114.6
 20
-66.55
 21
-69.45
  0
LINE
  8
0
 10
114.6
 11
108.7
 20
-69.45
 21
-69.45
  0
LINE
  8
0
 10
108.7
 11
108.7
 20
-61.45
 21
-58.55
  0
LINE
  8
0
 10
108.7
 11
114.6
 20
-58.55
 21
-58.55
  0
LINE
  8
0
 10
114.6
 11
114.6
 20
-58.55
 21
-61.45
  0
LINE
  8
0
 10
114.6
 11
108.7
 20
-61.45
 21
-61.45
  0
LINE
  8
0
 10
120.6
 11
120.723
 20
-68
 21
-64.862
  0
LINE
  8
0
 10
120.723
 11
121.092
 20
-64.862
 21
-61.743
  0
LINE
  8
0
 10
121.092
 11
121.705
 20
-61.743
 21
-58.662
  0
LINE
  8
0
 10
121.705
 11
122.558
 20
-58.662
 21
-55.639
  0
LINE
  8
0
 10
122.558
 11
123.645
 20
-55.639
 21
-52.693
  0
LINE
  8
0
 10
123.645
 11
124.96
 20
-52.693
 21
-49.84
  0
LINE
  8
0
 10
124.96
 11
126.494
 20
-49.84
 21
-47.1
  0
LINE
  8
0
 10
126.494
 11
128.239
 20
-47.1
 21
-44.489
  0
LINE
  8
0
 10
128.239
 11
130.184
 20
-44.489
 21
-42.022
  0
LINE
  8
0
 10
130.184
 11
132.316
 20
-42.022
 21
-39.716
  0
LINE
  8
0
 10
132.316
 11
134.622
 20
-39.716
 21
-37.584
  0
LINE
  8
0
 10
134.622
 11
137.089
 20
-37.584
 21
-35.639
  0
LINE
  8
0
 10
137.089
 11
139.7
 20
-35.639
 21
-33.894
  0
LINE
  8
0
 10
139.7
 11
142.44
 20
-33.894
 21
-32.36
  0
LINE
  8
0
 10
142.44
 11
145.293
 20
-32.36
 21
-31.045
  0
LINE
  8
0
 10
145.293
 11
148.239
 20
-31.045
 21
-29.958
  0
LINE
  8
0
 10
148.239
 11
151.262
 20
-29.958
 21
-29.105
  0
LINE
  8
0
 10
151.262
 11
154.343
 20
-29.105
 21
-28.492
  0
LINE
  8
0
 10
154.343
 11
157.462
 20
-28.492
 21
-28.123
  0
LINE
  8
0
 10
157.462
 11
160.6
 20
-28.123
 21
-28
  0
LINE
  8
0
 10
160.6
 11
163.738
 20
-28
 21
-28.123
  0
LINE
  8
0
 10
163.738
 11
166.857
 20
-28.123
 21
-28.492
  0
LINE
  8
0
 10
166.857
 11
169.938
 20
-28.492
 21
-29.105
  0
LINE
  8
0
 10
169.938
 11
172.961
 20
-29.105
 21
-29.958
  0
LINE
  8
0
 10
172.961
 11
175.907
 20
-29.958
 21
-31.045
  0
LINE
  8
0
 10
175.907
 11
178.76
 20
-31.045
 21
-32.36
  0
LINE
  8
0
 10
178.76
 11
181.5
 20
-32.36
 21
-33.894
  0
LINE
  8
0
 10
181.5
 11
184.111
 20
-33.894
 21
-35.639
  0
LINE
  8
0
 10
184.111
 11
186.578
 20
-35.639
 21
-37.584
  0
LINE
  8
0
 10
186.578
 11
188.884
 20
-37.584
 21
-39.716
  0
LINE
  8
0
 10
188.884
 11
191.016
 20
-39.716
 21
-42.022
  0
LINE
  8
0
 10
191.016
 11
192.961
 20
-42.022
 21
-44.489
  0
LINE
  8
0
 10
192.961
 11
194.706
 20
-44.489
 21
-47.1
  0
LINE
  8
0
 10
194.706
 11
196.24
 20
-47.1
 21
-49.84
  0
LINE
  8
0
 10
196.24
 11
197.555
 20
-49.84
 21
-52.693
  0
LINE
  8
0
 10
197.555
 11
198.642
 20
-52.693
 21
-55.639
  0
LINE
  8
0
 10
198.642
 11
199.495
 20
-55.639
 21
-58.662
  0
LINE
  8
0
 10
199.495
 11
200.108
 20
-58.662
 21
-61.743
  0
LINE
  8
0
 10
200.108
 11
200.477
 20
-61.743
 21
-64.862
  0
LINE
  8
0
 10
200.477
 11
200.6
 20
-64.862
 21
-68
  0
LINE
  8
0
 10
200.6
 11
200.477
 20
-68
 21
-71.138
  0
LINE
  8
0
 10
200.477
 11
200.108
 20
-71.138
 21
-74.257
  0
LINE
  8
0
 10
200.108
 11
199.495
 20
-74.257
 21
-77.338
  0
LINE
  8
0
 10
199.495
 11
198.642
 20
-77.338
 21
-80.361
  0
LINE
  8
0
 10
198.642
 11
197.555
 20
-80.361
 21
-83.307
  0
LINE
  8
0
 10
197.555
 11
196.24
 20
-83.307
 21
-86.16
  0
LINE
  8
0
 10
196.24
 11
194.706
 20
-86.16
 21
-88.9
  0
LINE
  8
0
 10
194.706
 11
192.961
 20
-88.9
 21
-91.511
  0
LINE
  8
0
 10
192.961
 11
191.016
 20
-91.511
 21
-93.978
  0
LINE
  8
0
 10
191.016
 11
188.884
 20
-93.978
 21
-96.284
  0
LINE
  8
0
 10
188.884
 11
186.578
 20
-96.284
 21
-98.416
  0
LINE
  8
0
 10
186.578
 11
184.111
 20
-98.416
 21
-100.361
  0
LINE
  8
0
 10
184.111
 11
181.5
 20
-100.361
 21
-102.106
  0
LINE
  8
0
 10
181.5
 11
178.76
 20
-102.106
 21
-103.64
  0
LINE
  8
0
 10
178.76
 11
175.907
 20
-103.64
 21
-104.955
  0
LINE
  8
0
 10
175.907
 11
172.961
 20
-104.955
 21
-106.042
  0
LINE
  8
0
 10
172.961
 11
169.938
 20
-106.042
 21
-106.895
  0
LINE
  8
0
 10
169.938
 11
166.857
 20
-106.895
 21
-107.508
  0
LINE
  8
0
 10
166.857
 11
163.738
 20
-107.508
 21
-107.877
  0
LINE
  8
0
 10
163.738
 11
160.6
 20
-107.877
 21
-108
  0
LINE
  8
0
 10
160.6
 11
157.462
 20
-108
 21
-107.877
  0
LINE
  8
0
 10
157.462
 11
154.343
 20
-107.877
 21
-107.508
  0
LINE
  8
0
 10
154.343
 11
151.262
 20
-107.508
 21
-106.895
  0
LINE
  8
0
 10
151.262
 11
148.239
 20
-106.895
 21
-106.042
  0
LINE
  8
0
 10
148.239
 11
145.293
 20
-106.042
 21
-104.955
  0
LINE
  8
0
 10
145.293
 11
142.44
 20
-104.955
 21
-103.64
  0
LINE
  8
0
 10
142.44
 11
139.7
 20
-103.64
 21
-102.106
  0
LINE
  8
0
 10
139.7
 11
137.089
 20
-102.106
 21
-100.361
  0
LINE
  8
0
 10
137.089
 11
134.622
 20
-100.361
 21
-98.416
  0
LINE
  8
0
 10
134.622
 11
132.316
 20
-98.416
 21
-96.284
  0
LINE
  8
0
 10
132.316
 11
130.184
 20
-96.284
 21
-93.978
  0
LINE
  8
0
 10
130.184
 11
128.239
 20
-93.978
 21
-91.511
  0
LINE
  8
0
 10
128.239
 11
126.494
 20
-91.511
 21
-88.9
  0
LINE
  8
0
 10
126.494
 11
124.96
 20
-88.9
 21
-86.16
  0
LINE
  8
0
 10
124.96
 11
123.645
 20
-86.16
 21
-83.307
  0
LINE
  8
0
 10
123.645
 11
122.558
 20
-83.307
 21
-80.361
  0
LINE
  8
0
 10
122.558
 11
121.705
 20
-80.361
 21
-77.338
  0
LINE
  8
0
 10
121.705
 11
121.092
 20
-77.338
 21
-74.257
  0
LINE
  8
0
 10
121.092
 11
120.723
 20
-74.257
 21
-71.138
  0
LINE
  8
0
 10
120.723
 11
120.6
 20
-71.138
 21
-68
  0
LINE
  8
0
 10
206.6
 11
206.6
 20
-77.45
 21
-74.55
  0
LINE
  8
0
 10
206.6
 11
212.5
 20
-74.55
 21
-74.55
  0
LINE
  8
0
 10
212.5
 11
212.5
 20
-74.55
 21
-77.45
  0
LINE
  8
0
 10
212.5
 11
206.6
 20
-77.45
 21
-77.45
  0
LINE
  8
0
 10
206.6
 11
206.6
 20
-69.45
 21
-66.55
  0
LINE
  8
0
 10
206.6
 11
212.5
 20
-66.55
 21
-66.55
  0
LINE
  8
0
 10
212.5
 11
212.5
 20
-66.55
 21
-69.45
  0
LINE
  8
0
 10
212.5
 11
206.6
 20
-69.45
 21
-69.45
  0
LINE
  8
0
 10
206.6
 11
206.6
 20
-61.45
 21
-58.55
  0
LINE
  8
0
 10
206.6
 11
212.5
 20
-58.55
 21
-58.55
  0
LINE
  8
0
 10
212.5
 11
212.5
 20
-58.55
 21
-61.45
  0
LINE
  8
0
 10
212.5
 11
206.6
 20
-61.45
 21
-61.45
  0
ENDSEC
  0
SECTION
  2
OBJECTS
  0
DICTIONARY
  0
ENDSEC
  0
EOF
