  0
SECTION
  2
BLOCKS
  0
ENDSEC
  0
SECTION
  2
ENTITIES
  0
LINE
  8
0
 10
-39
 11
-38.88
 20
0
 21
3.06
  0
LINE
  8
0
 10
-38.88
 11
-38.52
 20
3.06
 21
6.101
  0
LINE
  8
0
 10
-38.52
 11
-37.922
 20
6.101
 21
9.104
  0
LINE
  8
0
 10
-37.922
 11
-37.091
 20
9.104
 21
12.052
  0
LINE
  8
0
 10
-37.091
 11
-36.031
 20
12.052
 21
14.925
  0
LINE
  8
0
 10
-36.031
 11
-34.749
 20
14.925
 21
17.706
  0
LINE
  8
0
 10
-34.749
 11
-33.253
 20
17.706
 21
20.377
  0
LINE
  8
0
 10
-33.253
 11
-31.552
 20
20.377
 21
22.924
  0
LINE
  8
0
 10
-31.552
 11
-29.656
 20
22.924
 21
25.328
  0
LINE
  8
0
 10
-29.656
 11
-27.577
 20
25.328
 21
27.577
  0
LINE
  8
0
 10
-27.577
 11
-25.328
 20
27.577
 21
29.656
  0
LINE
  8
0
 10
-25.328
 11
-22.924
 20
29.656
 21
31.552
  0
LINE
  8
0
 10
-22.924
 11
-20.377
 20
31.552
 21
33.253
  0
LINE
  8
0
 10
-20.377
 11
-17.706
 20
33.253
 21
34.749
  0
LINE
  8
0
 10
-17.706
 11
-14.925
 20
34.749
 21
36.031
  0
LINE
  8
0
 10
-14.925
 11
-12.052
 20
36.031
 21
37.091
  0
LINE
  8
0
 10
-12.052
 11
-9.104
 20
37.091
 21
37.922
  0
LINE
  8
0
 10
-9.104
 11
-6.101
 20
37.922
 21
38.52
  0
LINE
  8
0
 10
-6.101
 11
-3.06
 20
38.52
 21
38.88
  0
LINE
  8
0
 10
-3.06
 11
0
 20
38.88
 21
39
  0
LINE
  8
0
 10
0
 11
3.06
 20
39
 21
38.88
  0
LINE
  8
0
 10
3.06
 11
6.101
 20
38.88
 21
38.52
  0
LINE
  8
0
 10
6.101
 11
9.104
 20
38.52
 21
37.922
  0
LINE
  8
0
 10
9.104
 11
12.052
 20
37.922
 21
37.091
  0
LINE
  8
0
 10
12.052
 11
14.925
 20
37.091
 21
36.031
  0
LINE
  8
0
 10
14.925
 11
17.706
 20
36.031
 21
34.749
  0
LINE
  8
0
 10
17.706
 11
20.377
 20
34.749
 21
33.253
  0
LINE
  8
0
 10
20.377
 11
22.924
 20
33.253
 21
31.552
  0
LINE
  8
0
 10
22.924
 11
25.328
 20
31.552
 21
29.656
  0
LINE
  8
0
 10
25.328
 11
27.577
 20
29.656
 21
27.577
  0
LINE
  8
0
 10
27.577
 11
29.656
 20
27.577
 21
25.328
  0
LINE
  8
0
 10
29.656
 11
31.552
 20
25.328
 21
22.924
  0
LINE
  8
0
 10
31.552
 11
33.253
 20
22.924
 21
20.377
  0
LINE
  8
0
 10
33.253
 11
34.749
 20
20.377
 21
17.706
  0
LINE
  8
0
 10
34.749
 11
36.031
 20
17.706
 21
14.925
  0
LINE
  8
0
 10
36.031
 11
37.091
 20
14.925
 21
12.052
  0
LINE
  8
0
 10
37.091
 11
37.922
 20
12.052
 21
9.104
  0
LINE
  8
0
 10
37.922
 11
38.52
 20
9.104
 21
6.101
  0
LINE
  8
0
 10
38.52
 11
38.88
 20
6.101
 21
3.06
  0
LINE
  8
0
 10
38.88
 11
39
 20
3.06
 21
0
  0
LINE
  8
0
 10
39
 11
38.88
 20
0
 21
-3.06
  0
LINE
  8
0
 10
38.88
 11
38.52
 20
-3.06
 21
-6.101
  0
LINE
  8
0
 10
38.52
 11
37.922
 20
-6.101
 21
-9.104
  0
LINE
  8
0
 10
37.922
 11
37.091
 20
-9.104
 21
-12.052
  0
LINE
  8
0
 10
37.091
 11
36.031
 20
-12.052
 21
-14.925
  0
LINE
  8
0
 10
36.031
 11
34.749
 20
-14.925
 21
-17.706
  0
LINE
  8
0
 10
34.749
 11
33.253
 20
-17.706
 21
-20.377
  0
LINE
  8
0
 10
33.253
 11
31.552
 20
-20.377
 21
-22.924
  0
LINE
  8
0
 10
31.552
 11
29.656
 20
-22.924
 21
-25.328
  0
LINE
  8
0
 10
29.656
 11
27.577
 20
-25.328
 21
-27.577
  0
LINE
  8
0
 10
27.577
 11
25.328
 20
-27.577
 21
-29.656
  0
LINE
  8
0
 10
25.328
 11
22.924
 20
-29.656
 21
-31.552
  0
LINE
  8
0
 10
22.924
 11
20.377
 20
-31.552
 21
-33.253
  0
LINE
  8
0
 10
20.377
 11
17.706
 20
-33.253
 21
-34.749
  0
LINE
  8
0
 10
17.706
 11
14.925
 20
-34.749
 21
-36.031
  0
LINE
  8
0
 10
14.925
 11
12.052
 20
-36.031
 21
-37.091
  0
LINE
  8
0
 10
12.052
 11
9.104
 20
-37.091
 21
-37.922
  0
LINE
  8
0
 10
9.104
 11
6.101
 20
-37.922
 21
-38.52
  0
LINE
  8
0
 10
6.101
 11
3.06
 20
-38.52
 21
-38.88
  0
LINE
  8
0
 10
3.06
 11
0
 20
-38.88
 21
-39
  0
LINE
  8
0
 10
0
 11
-3.06
 20
-39
 21
-38.88
  0
LINE
  8
0
 10
-3.06
 11
-6.101
 20
-38.88
 21
-38.52
  0
LINE
  8
0
 10
-6.101
 11
-9.104
 20
-38.52
 21
-37.922
  0
LINE
  8
0
 10
-9.104
 11
-12.052
 20
-37.922
 21
-37.091
  0
LINE
  8
0
 10
-12.052
 11
-14.925
 20
-37.091
 21
-36.031
  0
LINE
  8
0
 10
-14.925
 11
-17.706
 20
-36.031
 21
-34.749
  0
LINE
  8
0
 10
-17.706
 11
-20.377
 20
-34.749
 21
-33.253
  0
LINE
  8
0
 10
-20.377
 11
-22.924
 20
-33.253
 21
-31.552
  0
LINE
  8
0
 10
-22.924
 11
-25.328
 20
-31.552
 21
-29.656
  0
LINE
  8
0
 10
-25.328
 11
-27.577
 20
-29.656
 21
-27.577
  0
LINE
  8
0
 10
-27.577
 11
-29.656
 20
-27.577
 21
-25.328
  0
LINE
  8
0
 10
-29.656
 11
-31.552
 20
-25.328
 21
-22.924
  0
LINE
  8
0
 10
-31.552
 11
-33.253
 20
-22.924
 21
-20.377
  0
LINE
  8
0
 10
-33.253
 11
-34.749
 20
-20.377
 21
-17.706
  0
LINE
  8
0
 10
-34.749
 11
-36.031
 20
-17.706
 21
-14.925
  0
LINE
  8
0
 10
-36.031
 11
-37.091
 20
-14.925
 21
-12.052
  0
LINE
  8
0
 10
-37.091
 11
-37.922
 20
-12.052
 21
-9.104
  0
LINE
  8
0
 10
-37.922
 11
-38.52
 20
-9.104
 21
-6.101
  0
LINE
  8
0
 10
-38.52
 11
-38.88
 20
-6.101
 21
-3.06
  0
LINE
  8
0
 10
-38.88
 11
-39
 20
-3.06
 21
0
  0
LINE
  8
0
 10
-23.2
 11
-23.2
 20
-5.45
 21
-2.55
  0
LINE
  8
0
 10
-23.2
 11
-20.3
 20
-2.55
 21
-2.55
  0
LINE
  8
0
 10
-20.3
 11
-20.3
 20
-2.55
 21
-5.45
  0
LINE
  8
0
 10
-20.3
 11
-23.2
 20
-5.45
 21
-5.45
  0
LINE
  8
0
 10
-23.2
 11
-23.2
 20
2.55
 21
5.45
  0
LINE
  8
0
 10
-23.2
 11
-20.3
 20
5.45
 21
5.45
  0
LINE
  8
0
 10
-20.3
 11
-20.3
 20
5.45
 21
2.55
  0
LINE
  8
0
 10
-20.3
 11
-23.2
 20
2.55
 21
2.55
  0
LINE
  8
0
 10
-17.95
 11
-17.95
 20
-5.45
 21
-2.55
  0
LINE
  8
0
 10
-17.95
 11
-15.05
 20
-2.55
 21
-2.55
  0
LINE
  8
0
 10
-15.05
 11
-15.05
 20
-2.55
 21
-5.45
  0
LINE
  8
0
 10
-15.05
 11
-17.95
 20
-5.45
 21
-5.45
  0
LINE
  8
0
 10
-17.95
 11
-17.95
 20
2.55
 21
5.45
  0
LINE
  8
0
 10
-17.95
 11
-15.05
 20
5.45
 21
5.45
  0
LINE
  8
0
 10
-15.05
 11
-15.05
 20
5.45
 21
2.55
  0
LINE
  8
0
 10
-15.05
 11
-17.95
 20
2.55
 21
2.55
  0
LINE
  8
0
 10
-2.574
 11
-2.433
 20
0
 21
0.168
  0
LINE
  8
0
 10
-2.433
 11
-2.182
 20
0.168
 21
0.37
  0
LINE
  8
0
 10
-2.182
 11
-1.95
 20
0.37
 21
0.492
  0
LINE
  8
0
 10
-1.95
 11
-1.896
 20
0.492
 21
0.508
  0
LINE
  8
0
 10
-1.896
 11
-1.935
 20
0.508
 21
0.549
  0
LINE
  8
0
 10
-1.935
 11
-2.075
 20
0.549
 21
0.771
  0
LINE
  8
0
 10
-2.075
 11
-2.191
 20
0.771
 21
1.071
  0
LINE
  8
0
 10
-2.191
 11
-2.229
 20
1.071
 21
1.287
  0
LINE
  8
0
 10
-2.229
 11
-2.023
 20
1.287
 21
1.362
  0
LINE
  8
0
 10
-2.023
 11
-1.705
 20
1.362
 21
1.411
  0
LINE
  8
0
 10
-1.705
 11
-1.443
 20
1.411
 21
1.401
  0
LINE
  8
0
 10
-1.443
 11
-1.388
 20
1.401
 21
1.388
  0
LINE
  8
0
 10
-1.388
 11
-1.401
 20
1.388
 21
1.443
  0
LINE
  8
0
 10
-1.401
 11
-1.411
 20
1.443
 21
1.705
  0
LINE
  8
0
 10
-1.411
 11
-1.362
 20
1.705
 21
2.023
  0
LINE
  8
0
 10
-1.362
 11
-1.287
 20
2.023
 21
2.229
  0
LINE
  8
0
 10
-1.287
 11
-1.071
 20
2.229
 21
2.191
  0
LINE
  8
0
 10
-1.071
 11
-0.771
 20
2.191
 21
2.075
  0
LINE
  8
0
 10
-0.771
 11
-0.549
 20
2.075
 21
1.935
  0
LINE
  8
0
 10
-0.549
 11
-0.508
 20
1.935
 21
1.896
  0
LINE
  8
0
 10
-0.508
 11
-0.492
 20
1.896
 21
1.95
  0
LINE
  8
0
 10
-0.492
 11
-0.37
 20
1.95
 21
2.182
  0
LINE
  8
0
 10
-0.37
 11
-0.168
 20
2.182
 21
2.433
  0
LINE
  8
0
 10
-0.168
 11
0
 20
2.433
 21
2.574
  0
LINE
  8
0
 10
0
 11
0.168
 20
2.574
 21
2.433
  0
LINE
  8
0
 10
0.168
 11
0.37
 20
2.433
 21
2.182
  0
LINE
  8
0
 10
0.37
 11
0.492
 20
2.182
 21
1.95
  0
LINE
  8
0
 10
0.492
 11
0.508
 20
1.95
 21
1.896
  0
LINE
  8
0
 10
0.508
 11
0.549
 20
1.896
 21
1.935
  0
LINE
  8
0
 10
0.549
 11
0.771
 20
1.935
 21
2.075
  0
LINE
  8
0
 10
0.771
 11
1.071
 20
2.075
 21
2.191
  0
LINE
  8
0
 10
1.071
 11
1.287
 20
2.191
 21
2.229
  0
LINE
  8
0
 10
1.287
 11
1.362
 20
2.229
 21
2.023
  0
LINE
  8
0
 10
1.362
 11
1.411
 20
2.023
 21
1.705
  0
LINE
  8
0
 10
1.411
 11
1.401
 20
1.705
 21
1.443
  0
LINE
  8
0
 10
1.401
 11
1.388
 20
1.443
 21
1.388
  0
LINE
  8
0
 10
1.388
 11
1.443
 20
1.388
 21
1.401
  0
LINE
  8
0
 10
1.443
 11
1.705
 20
1.401
 21
1.411
  0
LINE
  8
0
 10
1.705
 11
2.023
 20
1.411
 21
1.362
  0
LINE
  8
0
 10
2.023
 11
2.229
 20
1.362
 21
1.287
  0
LINE
  8
0
 10
2.229
 11
2.191
 20
1.287
 21
1.071
  0
LINE
  8
0
 10
2.191
 11
2.075
 20
1.071
 21
0.771
  0
LINE
  8
0
 10
2.075
 11
1.935
 20
0.771
 21
0.549
  0
LINE
  8
0
 10
1.935
 11
1.896
 20
0.549
 21
0.508
  0
LINE
  8
0
 10
1.896
 11
1.95
 20
0.508
 21
0.492
  0
LINE
  8
0
 10
1.95
 11
2.182
 20
0.492
 21
0.37
  0
LINE
  8
0
 10
2.182
 11
2.433
 20
0.37
 21
0.168
  0
LINE
  8
0
 10
2.433
 11
2.574
 20
0.168
 21
0
  0
LINE
  8
0
 10
2.574
 11
2.433
 20
0
 21
-0.168
  0
LINE
  8
0
 10
2.433
 11
2.182
 20
-0.168
 21
-0.37
  0
LINE
  8
0
 10
2.182
 11
1.95
 20
-0.37
 21
-0.492
  0
LINE
  8
0
 10
1.95
 11
1.896
 20
-0.492
 21
-0.508
  0
LINE
  8
0
 10
1.896
 11
1.935
 20
-0.508
 21
-0.549
  0
LINE
  8
0
 10
1.935
 11
2.075
 20
-0.549
 21
-0.771
  0
LINE
  8
0
 10
2.075
 11
2.191
 20
-0.771
 21
-1.071
  0
LINE
  8
0
 10
2.191
 11
2.229
 20
-1.071
 21
-1.287
  0
LINE
  8
0
 10
2.229
 11
2.023
 20
-1.287
 21
-1.362
  0
LINE
  8
0
 10
2.023
 11
1.705
 20
-1.362
 21
-1.411
  0
LINE
  8
0
 10
1.705
 11
1.443
 20
-1.411
 21
-1.401
  0
LINE
  8
0
 10
1.443
 11
1.388
 20
-1.401
 21
-1.388
  0
LINE
  8
0
 10
1.388
 11
1.401
 20
-1.388
 21
-1.443
  0
LINE
  8
0
 10
1.401
 11
1.411
 20
-1.443
 21
-1.705
  0
LINE
  8
0
 10
1.411
 11
1.362
 20
-1.705
 21
-2.023
  0
LINE
  8
0
 10
1.362
 11
1.287
 20
-2.023
 21
-2.229
  0
LINE
  8
0
 10
1.287
 11
1.071
 20
-2.229
 21
-2.191
  0
LINE
  8
0
 10
1.071
 11
0.771
 20
-2.191
 21
-2.075
  0
LINE
  8
0
 10
0.771
 11
0.549
 20
-2.075
 21
-1.935
  0
LINE
  8
0
 10
0.549
 11
0.508
 20
-1.935
 21
-1.896
  0
LINE
  8
0
 10
0.508
 11
0.492
 20
-1.896
 21
-1.95
  0
LINE
  8
0
 10
0.492
 11
0.37
 20
-1.95
 21
-2.182
  0
LINE
  8
0
 10
0.37
 11
0.168
 20
-2.182
 21
-2.433
  0
LINE
  8
0
 10
0.168
 11
0
 20
-2.433
 21
-2.574
  0
LINE
  8
0
 10
0
 11
-0.168
 20
-2.574
 21
-2.433
  0
LINE
  8
0
 10
-0.168
 11
-0.37
 20
-2.433
 21
-2.182
  0
LINE
  8
0
 10
-0.37
 11
-0.492
 20
-2.182
 21
-1.95
  0
LINE
  8
0
 10
-0.492
 11
-0.508
 20
-1.95
 21
-1.896
  0
LINE
  8
0
 10
-0.508
 11
-0.549
 20
-1.896
 21
-1.935
  0
LINE
  8
0
 10
-0.549
 11
-0.771
 20
-1.935
 21
-2.075
  0
LINE
  8
0
 10
-0.771
 11
-1.071
 20
-2.075
 21
-2.191
  0
LINE
  8
0
 10
-1.071
 11
-1.287
 20
-2.191
 21
-2.229
  0
LINE
  8
0
 10
-1.287
 11
-1.362
 20
-2.229
 21
-2.023
  0
LINE
  8
0
 10
-1.362
 11
-1.411
 20
-2.023
 21
-1.705
  0
LINE
  8
0
 10
-1.411
 11
-1.401
 20
-1.705
 21
-1.443
  0
LINE
  8
0
 10
-1.401
 11
-1.388
 20
-1.443
 21
-1.388
  0
LINE
  8
0
 10
-1.388
 11
-1.443
 20
-1.388
 21
-1.401
  0
LINE
  8
0
 10
-1.443
 11
-1.705
 20
-1.401
 21
-1.411
  0
LINE
  8
0
 10
-1.705
 11
-2.023
 20
-1.411
 21
-1.362
  0
LINE
  8
0
 10
-2.023
 11
-2.229
 20
-1.362
 21
-1.287
  0
LINE
  8
0
 10
-2.229
 11
-2.191
 20
-1.287
 21
-1.071
  0
LINE
  8
0
 10
-2.191
 11
-2.075
 20
-1.071
 21
-0.771
  0
LINE
  8
0
 10
-2.075
 11
-1.935
 20
-0.771
 21
-0.549
  0
LINE
  8
0
 10
-1.935
 11
-1.896
 20
-0.549
 21
-0.508
  0
LINE
  8
0
 10
-1.896
 11
-1.95
 20
-0.508
 21
-0.492
  0
LINE
  8
0
 10
-1.95
 11
-2.182
 20
-0.492
 21
-0.37
  0
LINE
  8
0
 10
-2.182
 11
-2.433
 20
-0.37
 21
-0.168
  0
LINE
  8
0
 10
-2.433
 11
-2.574
 20
-0.168
 21
0
  0
LINE
  8
0
 10
3.314
 11
3.457
 20
0
 21
0.171
  0
LINE
  8
0
 10
3.457
 11
3.715
 20
0.171
 21
0.381
  0
LINE
  8
0
 10
3.715
 11
3.954
 20
0.381
 21
0.509
  0
LINE
  8
0
 10
3.954
 11
4.022
 20
0.509
 21
0.53
  0
LINE
  8
0
 10
4.022
 11
3.974
 20
0.53
 21
0.582
  0
LINE
  8
0
 10
3.974
 11
3.831
 20
0.582
 21
0.813
  0
LINE
  8
0
 10
3.831
 11
3.712
 20
0.813
 21
1.123
  0
LINE
  8
0
 10
3.712
 11
3.674
 20
1.123
 21
1.343
  0
LINE
  8
0
 10
3.674
 11
3.883
 20
1.343
 21
1.42
  0
LINE
  8
0
 10
3.883
 11
4.212
 20
1.42
 21
1.472
  0
LINE
  8
0
 10
4.212
 11
4.483
 20
1.472
 21
1.464
  0
LINE
  8
0
 10
4.483
 11
4.552
 20
1.464
 21
1.448
  0
LINE
  8
0
 10
4.552
 11
4.536
 20
1.448
 21
1.517
  0
LINE
  8
0
 10
4.536
 11
4.528
 20
1.517
 21
1.788
  0
LINE
  8
0
 10
4.528
 11
4.58
 20
1.788
 21
2.117
  0
LINE
  8
0
 10
4.58
 11
4.657
 20
2.117
 21
2.326
  0
LINE
  8
0
 10
4.657
 11
4.877
 20
2.326
 21
2.288
  0
LINE
  8
0
 10
4.877
 11
5.187
 20
2.288
 21
2.169
  0
LINE
  8
0
 10
5.187
 11
5.418
 20
2.169
 21
2.026
  0
LINE
  8
0
 10
5.418
 11
5.47
 20
2.026
 21
1.978
  0
LINE
  8
0
 10
5.47
 11
5.491
 20
1.978
 21
2.046
  0
LINE
  8
0
 10
5.491
 11
5.619
 20
2.046
 21
2.285
  0
LINE
  8
0
 10
5.619
 11
5.829
 20
2.285
 21
2.543
  0
LINE
  8
0
 10
5.829
 11
6
 20
2.543
 21
2.686
  0
LINE
  8
0
 10
6
 11
6.171
 20
2.686
 21
2.543
  0
LINE
  8
0
 10
6.171
 11
6.381
 20
2.543
 21
2.285
  0
LINE
  8
0
 10
6.381
 11
6.509
 20
2.285
 21
2.046
  0
LINE
  8
0
 10
6.509
 11
6.53
 20
2.046
 21
1.978
  0
LINE
  8
0
 10
6.53
 11
6.582
 20
1.978
 21
2.026
  0
LINE
  8
0
 10
6.582
 11
6.813
 20
2.026
 21
2.169
  0
LINE
  8
0
 10
6.813
 11
7.123
 20
2.169
 21
2.288
  0
LINE
  8
0
 10
7.123
 11
7.343
 20
2.288
 21
2.326
  0
LINE
  8
0
 10
7.343
 11
7.42
 20
2.326
 21
2.117
  0
LINE
  8
0
 10
7.42
 11
7.472
 20
2.117
 21
1.788
  0
LINE
  8
0
 10
7.472
 11
7.464
 20
1.788
 21
1.517
  0
LINE
  8
0
 10
7.464
 11
7.448
 20
1.517
 21
1.448
  0
LINE
  8
0
 10
7.448
 11
7.517
 20
1.448
 21
1.464
  0
LINE
  8
0
 10
7.517
 11
7.788
 20
1.464
 21
1.472
  0
LINE
  8
0
 10
7.788
 11
8.117
 20
1.472
 21
1.42
  0
LINE
  8
0
 10
8.117
 11
8.326
 20
1.42
 21
1.343
  0
LINE
  8
0
 10
8.326
 11
8.288
 20
1.343
 21
1.123
  0
LINE
  8
0
 10
8.288
 11
8.169
 20
1.123
 21
0.813
  0
LINE
  8
0
 10
8.169
 11
8.026
 20
0.813
 21
0.582
  0
LINE
  8
0
 10
8.026
 11
7.978
 20
0.582
 21
0.53
  0
LINE
  8
0
 10
7.978
 11
8.046
 20
0.53
 21
0.509
  0
LINE
  8
0
 10
8.046
 11
8.285
 20
0.509
 21
0.381
  0
LINE
  8
0
 10
8.285
 11
8.543
 20
0.381
 21
0.171
  0
LINE
  8
0
 10
8.543
 11
8.686
 20
0.171
 21
0
  0
LINE
  8
0
 10
8.686
 11
8.543
 20
0
 21
-0.171
  0
LINE
  8
0
 10
8.543
 11
8.285
 20
-0.171
 21
-0.381
  0
LINE
  8
0
 10
8.285
 11
8.046
 20
-0.381
 21
-0.509
  0
LINE
  8
0
 10
8.046
 11
7.978
 20
-0.509
 21
-0.53
  0
LINE
  8
0
 10
7.978
 11
8.026
 20
-0.53
 21
-0.582
  0
LINE
  8
0
 10
8.026
 11
8.169
 20
-0.582
 21
-0.813
  0
LINE
  8
0
 10
8.169
 11
8.288
 20
-0.813
 21
-1.123
  0
LINE
  8
0
 10
8.288
 11
8.326
 20
-1.123
 21
-1.343
  0
LINE
  8
0
 10
8.326
 11
8.117
 20
-1.343
 21
-1.42
  0
LINE
  8
0
 10
8.117
 11
7.788
 20
-1.42
 21
-1.472
  0
LINE
  8
0
 10
7.788
 11
7.517
 20
-1.472
 21
-1.464
  0
LINE
  8
0
 10
7.517
 11
7.448
 20
-1.464
 21
-1.448
  0
LINE
  8
0
 10
7.448
 11
7.464
 20
-1.448
 21
-1.517
  0
LINE
  8
0
 10
7.464
 11
7.472
 20
-1.517
 21
-1.788
  0
LINE
  8
0
 10
7.472
 11
7.42
 20
-1.788
 21
-2.117
  0
LINE
  8
0
 10
7.42
 11
7.343
 20
-2.117
 21
-2.326
  0
LINE
  8
0
 10
7.343
 11
7.123
 20
-2.326
 21
-2.288
  0
LINE
  8
0
 10
7.123
 11
6.813
 20
-2.288
 21
-2.169
  0
LINE
  8
0
 10
6.813
 11
6.582
 20
-2.169
 21
-2.026
  0
LINE
  8
0
 10
6.582
 11
6.53
 20
-2.026
 21
-1.978
  0
LINE
  8
0
 10
6.53
 11
6.509
 20
-1.978
 21
-2.046
  0
LINE
  8
0
 10
6.509
 11
6.381
 20
-2.046
 21
-2.285
  0
LINE
  8
0
 10
6.381
 11
6.171
 20
-2.285
 21
-2.543
  0
LINE
  8
0
 10
6.171
 11
6
 20
-2.543
 21
-2.686
  0
LINE
  8
0
 10
6
 11
5.829
 20
-2.686
 21
-2.543
  0
LINE
  8
0
 10
5.829
 11
5.619
 20
-2.543
 21
-2.285
  0
LINE
  8
0
 10
5.619
 11
5.491
 20
-2.285
 21
-2.046
  0
LINE
  8
0
 10
5.491
 11
5.47
 20
-2.046
 21
-1.978
  0
LINE
  8
0
 10
5.47
 11
5.418
 20
-1.978
 21
-2.026
  0
LINE
  8
0
 10
5.418
 11
5.187
 20
-2.026
 21
-2.169
  0
LINE
  8
0
 10
5.187
 11
4.877
 20
-2.169
 21
-2.288
  0
LINE
  8
0
 10
4.877
 11
4.657
 20
-2.288
 21
-2.326
  0
LINE
  8
0
 10
4.657
 11
4.58
 20
-2.326
 21
-2.117
  0
LINE
  8
0
 10
4.58
 11
4.528
 20
-2.117
 21
-1.788
  0
LINE
  8
0
 10
4.528
 11
4.536
 20
-1.788
 21
-1.517
  0
LINE
  8
0
 10
4.536
 11
4.552
 20
-1.517
 21
-1.448
  0
LINE
  8
0
 10
4.552
 11
4.483
 20
-1.448
 21
-1.464
  0
LINE
  8
0
 10
4.483
 11
4.212
 20
-1.464
 21
-1.472
  0
LINE
  8
0
 10
4.212
 11
3.883
 20
-1.472
 21
-1.42
  0
LINE
  8
0
 10
3.883
 11
3.674
 20
-1.42
 21
-1.343
  0
LINE
  8
0
 10
3.674
 11
3.712
 20
-1.343
 21
-1.123
  0
LINE
  8
0
 10
3.712
 11
3.831
 20
-1.123
 21
-0.813
  0
LINE
  8
0
 10
3.831
 11
3.974
 20
-0.813
 21
-0.582
  0
LINE
  8
0
 10
3.974
 11
4.022
 20
-0.582
 21
-0.53
  0
LINE
  8
0
 10
4.022
 11
3.954
 20
-0.53
 21
-0.509
  0
LINE
  8
0
 10
3.954
 11
3.715
 20
-0.509
 21
-0.381
  0
LINE
  8
0
 10
3.715
 11
3.457
 20
-0.381
 21
-0.171
  0
LINE
  8
0
 10
3.457
 11
3.314
 20
-0.171
 21
0
  0
LINE
  8
0
 10
9.538
 11
9.677
 20
0
 21
0.165
  0
LINE
  8
0
 10
9.677
 11
9.922
 20
0.165
 21
0.36
  0
LINE
  8
0
 10
9.922
 11
10.146
 20
0.36
 21
0.475
  0
LINE
  8
0
 10
10.146
 11
10.186
 20
0.475
 21
0.486
  0
LINE
  8
0
 10
10.186
 11
10.157
 20
0.486
 21
0.516
  0
LINE
  8
0
 10
10.157
 11
10.02
 20
0.516
 21
0.727
  0
LINE
  8
0
 10
10.02
 11
9.906
 20
0.727
 21
1.019
  0
LINE
  8
0
 10
9.906
 11
9.868
 20
1.019
 21
1.231
  0
LINE
  8
0
 10
9.868
 11
10.071
 20
1.231
 21
1.304
  0
LINE
  8
0
 10
10.071
 11
10.38
 20
1.304
 21
1.351
  0
LINE
  8
0
 10
10.38
 11
10.632
 20
1.351
 21
1.338
  0
LINE
  8
0
 10
10.632
 11
10.672
 20
1.338
 21
1.328
  0
LINE
  8
0
 10
10.672
 11
10.662
 20
1.328
 21
1.368
  0
LINE
  8
0
 10
10.662
 11
10.649
 20
1.368
 21
1.62
  0
LINE
  8
0
 10
10.649
 11
10.696
 20
1.62
 21
1.929
  0
LINE
  8
0
 10
10.696
 11
10.769
 20
1.929
 21
2.132
  0
LINE
  8
0
 10
10.769
 11
10.981
 20
2.132
 21
2.094
  0
LINE
  8
0
 10
10.981
 11
11.273
 20
2.094
 21
1.98
  0
LINE
  8
0
 10
11.273
 11
11.484
 20
1.98
 21
1.843
  0
LINE
  8
0
 10
11.484
 11
11.514
 20
1.843
 21
1.814
  0
LINE
  8
0
 10
11.514
 11
11.525
 20
1.814
 21
1.854
  0
LINE
  8
0
 10
11.525
 11
11.64
 20
1.854
 21
2.078
  0
LINE
  8
0
 10
11.64
 11
11.835
 20
2.078
 21
2.323
  0
LINE
  8
0
 10
11.835
 11
12
 20
2.323
 21
2.462
  0
LINE
  8
0
 10
12
 11
12.165
 20
2.462
 21
2.323
  0
LINE
  8
0
 10
12.165
 11
12.36
 20
2.323
 21
2.078
  0
LINE
  8
0
 10
12.36
 11
12.475
 20
2.078
 21
1.854
  0
LINE
  8
0
 10
12.475
 11
12.486
 20
1.854
 21
1.814
  0
LINE
  8
0
 10
12.486
 11
12.516
 20
1.814
 21
1.843
  0
LINE
  8
0
 10
12.516
 11
12.727
 20
1.843
 21
1.98
  0
LINE
  8
0
 10
12.727
 11
13.019
 20
1.98
 21
2.094
  0
LINE
  8
0
 10
13.019
 11
13.231
 20
2.094
 21
2.132
  0
LINE
  8
0
 10
13.231
 11
13.304
 20
2.132
 21
1.929
  0
LINE
  8
0
 10
13.304
 11
13.351
 20
1.929
 21
1.62
  0
LINE
  8
0
 10
13.351
 11
13.338
 20
1.62
 21
1.368
  0
LINE
  8
0
 10
13.338
 11
13.328
 20
1.368
 21
1.328
  0
LINE
  8
0
 10
13.328
 11
13.368
 20
1.328
 21
1.338
  0
LINE
  8
0
 10
13.368
 11
13.62
 20
1.338
 21
1.351
  0
LINE
  8
0
 10
13.62
 11
13.929
 20
1.351
 21
1.304
  0
LINE
  8
0
 10
13.929
 11
14.132
 20
1.304
 21
1.231
  0
LINE
  8
0
 10
14.132
 11
14.094
 20
1.231
 21
1.019
  0
LINE
  8
0
 10
14.094
 11
13.98
 20
1.019
 21
0.727
  0
LINE
  8
0
 10
13.98
 11
13.843
 20
0.727
 21
0.516
  0
LINE
  8
0
 10
13.843
 11
13.814
 20
0.516
 21
0.486
  0
LINE
  8
0
 10
13.814
 11
13.854
 20
0.486
 21
0.475
  0
LINE
  8
0
 10
13.854
 11
14.078
 20
0.475
 21
0.36
  0
LINE
  8
0
 10
14.078
 11
14.323
 20
0.36
 21
0.165
  0
LINE
  8
0
 10
14.323
 11
14.462
 20
0.165
 21
0
  0
LINE
  8
0
 10
14.462
 11
14.323
 20
0
 21
-0.165
  0
LINE
  8
0
 10
14.323
 11
14.078
 20
-0.165
 21
-0.36
  0
LINE
  8
0
 10
14.078
 11
13.854
 20
-0.36
 21
-0.475
  0
LINE
  8
0
 10
13.854
 11
13.814
 20
-0.475
 21
-0.486
  0
LINE
  8
0
 10
13.814
 11
13.843
 20
-0.486
 21
-0.516
  0
LINE
  8
0
 10
13.843
 11
13.98
 20
-0.516
 21
-0.727
  0
LINE
  8
0
 10
13.98
 11
14.094
 20
-0.727
 21
-1.019
  0
LINE
  8
0
 10
14.094
 11
14.132
 20
-1.019
 21
-1.231
  0
LINE
  8
0
 10
14.132
 11
13.929
 20
-1.231
 21
-1.304
  0
LINE
  8
0
 10
13.929
 11
13.62
 20
-1.304
 21
-1.351
  0
LINE
  8
0
 10
13.62
 11
13.368
 20
-1.351
 21
-1.338
  0
LINE
  8
0
 10
13.368
 11
13.328
 20
-1.338
 21
-1.328
  0
LINE
  8
0
 10
13.328
 11
13.338
 20
-1.328
 21
-1.368
  0
LINE
  8
0
 10
13.338
 11
13.351
 20
-1.368
 21
-1.62
  0
LINE
  8
0
 10
13.351
 11
13.304
 20
-1.62
 21
-1.929
  0
LINE
  8
0
 10
13.304
 11
13.231
 20
-1.929
 21
-2.132
  0
LINE
  8
0
 10
13.231
 11
13.019
 20
-2.132
 21
-2.094
  0
LINE
  8
0
 10
13.019
 11
12.727
 20
-2.094
 21
-1.98
  0
LINE
  8
0
 10
12.727
 11
12.516
 20
-1.98
 21
-1.843
  0
LINE
  8
0
 10
12.516
 11
12.486
 20
-1.843
 21
-1.814
  0
LINE
  8
0
 10
12.486
 11
12.475
 20
-1.814
 21
-1.854
  0
LINE
  8
0
 10
12.475
 11
12.36
 20
-1.854
 21
-2.078
  0
LINE
  8
0
 10
12.36
 11
12.165
 20
-2.078
 21
-2.323
  0
LINE
  8
0
 10
12.165
 11
12
 20
-2.323
 21
-2.462
  0
LINE
  8
0
 10
12
 11
11.835
 20
-2.462
 21
-2.323
  0
LINE
  8
0
 10
11.835
 11
11.64
 20
-2.323
 21
-2.078
  0
LINE
  8
0
 10
11.64
 11
11.525
 20
-2.078
 21
-1.854
  0
LINE
  8
0
 10
11.525
 11
11.514
 20
-1.854
 21
-1.814
  0
LINE
  8
0
 10
11.514
 11
11.484
 20
-1.814
 21
-1.843
  0
LINE
  8
0
 10
11.484
 11
11.273
 20
-1.843
 21
-1.98
  0
LINE
  8
0
 10
11.273
 11
10.981
 20
-1.98
 21
-2.094
  0
LINE
  8
0
 10
10.981
 11
10.769
 20
-2.094
 21
-2.132
  0
LINE
  8
0
 10
10.769
 11
10.696
 20
-2.132
 21
-1.929
  0
LINE
  8
0
 10
10.696
 11
10.649
 20
-1.929
 21
-1.62
  0
LINE
  8
0
 10
10.649
 11
10.662
 20
-1.62
 21
-1.368
  0
LINE
  8
0
 10
10.662
 11
10.672
 20
-1.368
 21
-1.328
  0
LINE
  8
0
 10
10.672
 11
10.632
 20
-1.328
 21
-1.338
  0
LINE
  8
0
 10
10.632
 11
10.38
 20
-1.338
 21
-1.351
  0
LINE
  8
0
 10
10.38
 11
10.071
 20
-1.351
 21
-1.304
  0
LINE
  8
0
 10
10.071
 11
9.868
 20
-1.304
 21
-1.231
  0
LINE
  8
0
 10
9.868
 11
9.906
 20
-1.231
 21
-1.019
  0
LINE
  8
0
 10
9.906
 11
10.02
 20
-1.019
 21
-0.727
  0
LINE
  8
0
 10
10.02
 11
10.157
 20
-0.727
 21
-0.516
  0
LINE
  8
0
 10
10.157
 11
10.186
 20
-0.516
 21
-0.486
  0
LINE
  8
0
 10
10.186
 11
10.146
 20
-0.486
 21
-0.475
  0
LINE
  8
0
 10
10.146
 11
9.922
 20
-0.475
 21
-0.36
  0
LINE
  8
0
 10
9.922
 11
9.677
 20
-0.36
 21
-0.165
  0
LINE
  8
0
 10
9.677
 11
9.538
 20
-0.165
 21
0
  0
LINE
  8
0
 10
15.651
 11
15.788
 20
0
 21
0.162
  0
LINE
  8
0
 10
15.788
 11
16.026
 20
0.162
 21
0.349
  0
LINE
  8
0
 10
16.026
 11
16.242
 20
0.349
 21
0.458
  0
LINE
  8
0
 10
16.242
 11
16.266
 20
0.458
 21
0.465
  0
LINE
  8
0
 10
16.266
 11
16.249
 20
0.465
 21
0.482
  0
LINE
  8
0
 10
16.249
 11
16.116
 20
0.482
 21
0.685
  0
LINE
  8
0
 10
16.116
 11
16.003
 20
0.685
 21
0.966
  0
LINE
  8
0
 10
16.003
 11
15.966
 20
0.966
 21
1.174
  0
LINE
  8
0
 10
15.966
 11
16.165
 20
1.174
 21
1.246
  0
LINE
  8
0
 10
16.165
 11
16.465
 20
1.246
 21
1.289
  0
LINE
  8
0
 10
16.465
 11
16.707
 20
1.289
 21
1.276
  0
LINE
  8
0
 10
16.707
 11
16.73
 20
1.276
 21
1.27
  0
LINE
  8
0
 10
16.73
 11
16.724
 20
1.27
 21
1.293
  0
LINE
  8
0
 10
16.724
 11
16.711
 20
1.293
 21
1.535
  0
LINE
  8
0
 10
16.711
 11
16.754
 20
1.535
 21
1.835
  0
LINE
  8
0
 10
16.754
 11
16.826
 20
1.835
 21
2.034
  0
LINE
  8
0
 10
16.826
 11
17.034
 20
2.034
 21
1.997
  0
LINE
  8
0
 10
17.034
 11
17.315
 20
1.997
 21
1.884
  0
LINE
  8
0
 10
17.315
 11
17.518
 20
1.884
 21
1.751
  0
LINE
  8
0
 10
17.518
 11
17.535
 20
1.751
 21
1.734
  0
LINE
  8
0
 10
17.535
 11
17.542
 20
1.734
 21
1.758
  0
LINE
  8
0
 10
17.542
 11
17.651
 20
1.758
 21
1.974
  0
LINE
  8
0
 10
17.651
 11
17.838
 20
1.974
 21
2.212
  0
LINE
  8
0
 10
17.838
 11
18
 20
2.212
 21
2.349
  0
LINE
  8
0
 10
18
 11
18.162
 20
2.349
 21
2.212
  0
LINE
  8
0
 10
18.162
 11
18.349
 20
2.212
 21
1.974
  0
LINE
  8
0
 10
18.349
 11
18.458
 20
1.974
 21
1.758
  0
LINE
  8
0
 10
18.458
 11
18.465
 20
1.758
 21
1.734
  0
LINE
  8
0
 10
18.465
 11
18.482
 20
1.734
 21
1.751
  0
LINE
  8
0
 10
18.482
 11
18.685
 20
1.751
 21
1.884
  0
LINE
  8
0
 10
18.685
 11
18.966
 20
1.884
 21
1.997
  0
LINE
  8
0
 10
18.966
 11
19.174
 20
1.997
 21
2.034
  0
LINE
  8
0
 10
19.174
 11
19.246
 20
2.034
 21
1.835
  0
LINE
  8
0
 10
19.246
 11
19.289
 20
1.835
 21
1.535
  0
LINE
  8
0
 10
19.289
 11
19.276
 20
1.535
 21
1.293
  0
LINE
  8
0
 10
19.276
 11
19.27
 20
1.293
 21
1.27
  0
LINE
  8
0
 10
19.27
 11
19.293
 20
1.27
 21
1.276
  0
LINE
  8
0
 10
19.293
 11
19.535
 20
1.276
 21
1.289
  0
LINE
  8
0
 10
19.535
 11
19.835
 20
1.289
 21
1.246
  0
LINE
  8
0
 10
19.835
 11
20.034
 20
1.246
 21
1.174
  0
LINE
  8
0
 10
20.034
 11
19.997
 20
1.174
 21
0.966
  0
LINE
  8
0
 10
19.997
 11
19.884
 20
0.966
 21
0.685
  0
LINE
  8
0
 10
19.884
 11
19.751
 20
0.685
 21
0.482
  0
LINE
  8
0
 10
19.751
 11
19.734
 20
0.482
 21
0.465
  0
LINE
  8
0
 10
19.734
 11
19.758
 20
0.465
 21
0.458
  0
LINE
  8
0
 10
19.758
 11
19.974
 20
0.458
 21
0.349
  0
LINE
  8
0
 10
19.974
 11
20.212
 20
0.349
 21
0.162
  0
LINE
  8
0
 10
20.212
 11
20.349
 20
0.162
 21
0
  0
LINE
  8
0
 10
20.349
 11
20.212
 20
0
 21
-0.162
  0
LINE
  8
0
 10
20.212
 11
19.974
 20
-0.162
 21
-0.349
  0
LINE
  8
0
 10
19.974
 11
19.758
 20
-0.349
 21
-0.458
  0
LINE
  8
0
 10
19.758
 11
19.734
 20
-0.458
 21
-0.465
  0
LINE
  8
0
 10
19.734
 11
19.751
 20
-0.465
 21
-0.482
  0
LINE
  8
0
 10
19.751
 11
19.884
 20
-0.482
 21
-0.685
  0
LINE
  8
0
 10
19.884
 11
19.997
 20
-0.685
 21
-0.966
  0
LINE
  8
0
 10
19.997
 11
20.034
 20
-0.966
 21
-1.174
  0
LINE
  8
0
 10
20.034
 11
19.835
 20
-1.174
 21
-1.246
  0
LINE
  8
0
 10
19.835
 11
19.535
 20
-1.246
 21
-1.289
  0
LINE
  8
0
 10
19.535
 11
19.293
 20
-1.289
 21
-1.276
  0
LINE
  8
0
 10
19.293
 11
19.27
 20
-1.276
 21
-1.27
  0
LINE
  8
0
 10
19.27
 11
19.276
 20
-1.27
 21
-1.293
  0
LINE
  8
0
 10
19.276
 11
19.289
 20
-1.293
 21
-1.535
  0
LINE
  8
0
 10
19.289
 11
19.246
 20
-1.535
 21
-1.835
  0
LINE
  8
0
 10
19.246
 11
19.174
 20
-1.835
 21
-2.034
  0
LINE
  8
0
 10
19.174
 11
18.966
 20
-2.034
 21
-1.997
  0
LINE
  8
0
 10
18.966
 11
18.685
 20
-1.997
 21
-1.884
  0
LINE
  8
0
 10
18.685
 11
18.482
 20
-1.884
 21
-1.751
  0
LINE
  8
0
 10
18.482
 11
18.465
 20
-1.751
 21
-1.734
  0
LINE
  8
0
 10
18.465
 11
18.458
 20
-1.734
 21
-1.758
  0
LINE
  8
0
 10
18.458
 11
18.349
 20
-1.758
 21
-1.974
  0
LINE
  8
0
 10
18.349
 11
18.162
 20
-1.974
 21
-2.212
  0
LINE
  8
0
 10
18.162
 11
18
 20
-2.212
 21
-2.349
  0
LINE
  8
0
 10
18
 11
17.838
 20
-2.349
 21
-2.212
  0
LINE
  8
0
 10
17.838
 11
17.651
 20
-2.212
 21
-1.974
  0
LINE
  8
0
 10
17.651
 11
17.542
 20
-1.974
 21
-1.758
  0
LINE
  8
0
 10
17.542
 11
17.535
 20
-1.758
 21
-1.734
  0
LINE
  8
0
 10
17.535
 11
17.518
 20
-1.734
 21
-1.751
  0
LINE
  8
0
 10
17.518
 11
17.315
 20
-1.751
 21
-1.884
  0
LINE
  8
0
 10
17.315
 11
17.034
 20
-1.884
 21
-1.997
  0
LINE
  8
0
 10
17.034
 11
16.826
 20
-1.997
 21
-2.034
  0
LINE
  8
0
 10
16.826
 11
16.754
 20
-2.034
 21
-1.835
  0
LINE
  8
0
 10
16.754
 11
16.711
 20
-1.835
 21
-1.535
  0
LINE
  8
0
 10
16.711
 11
16.724
 20
-1.535
 21
-1.293
  0
LINE
  8
0
 10
16.724
 11
16.73
 20
-1.293
 21
-1.27
  0
LINE
  8
0
 10
16.73
 11
16.707
 20
-1.27
 21
-1.276
  0
LINE
  8
0
 10
16.707
 11
16.465
 20
-1.276
 21
-1.289
  0
LINE
  8
0
 10
16.465
 11
16.165
 20
-1.289
 21
-1.246
  0
LINE
  8
0
 10
16.165
 11
15.966
 20
-1.246
 21
-1.174
  0
LINE
  8
0
 10
15.966
 11
16.003
 20
-1.174
 21
-0.966
  0
LINE
  8
0
 10
16.003
 11
16.116
 20
-0.966
 21
-0.685
  0
LINE
  8
0
 10
16.116
 11
16.249
 20
-0.685
 21
-0.482
  0
LINE
  8
0
 10
16.249
 11
16.266
 20
-0.482
 21
-0.465
  0
LINE
  8
0
 10
16.266
 11
16.242
 20
-0.465
 21
-0.458
  0
LINE
  8
0
 10
16.242
 11
16.026
 20
-0.458
 21
-0.349
  0
LINE
  8
0
 10
16.026
 11
15.788
 20
-0.349
 21
-0.162
  0
LINE
  8
0
 10
15.788
 11
15.651
 20
-0.162
 21
0
  0
LINE
  8
0
 10
21.763
 11
21.899
 20
0
 21
0.16
  0
LINE
  8
0
 10
21.899
 11
22.13
 20
0.16
 21
0.339
  0
LINE
  8
0
 10
22.13
 11
22.339
 20
0.339
 21
0.441
  0
LINE
  8
0
 10
22.339
 11
22.347
 20
0.441
 21
0.443
  0
LINE
  8
0
 10
22.347
 11
22.341
 20
0.443
 21
0.449
  0
LINE
  8
0
 10
22.341
 11
22.211
 20
0.449
 21
0.641
  0
LINE
  8
0
 10
22.211
 11
22.1
 20
0.641
 21
0.912
  0
LINE
  8
0
 10
22.1
 11
22.063
 20
0.912
 21
1.119
  0
LINE
  8
0
 10
22.063
 11
22.26
 20
1.119
 21
1.189
  0
LINE
  8
0
 10
22.26
 11
22.55
 20
1.189
 21
1.229
  0
LINE
  8
0
 10
22.55
 11
22.782
 20
1.229
 21
1.212
  0
LINE
  8
0
 10
22.782
 11
22.79
 20
1.212
 21
1.21
  0
LINE
  8
0
 10
22.79
 11
22.788
 20
1.21
 21
1.218
  0
LINE
  8
0
 10
22.788
 11
22.771
 20
1.218
 21
1.45
  0
LINE
  8
0
 10
22.771
 11
22.811
 20
1.45
 21
1.74
  0
LINE
  8
0
 10
22.811
 11
22.881
 20
1.74
 21
1.937
  0
LINE
  8
0
 10
22.881
 11
23.088
 20
1.937
 21
1.9
  0
LINE
  8
0
 10
23.088
 11
23.359
 20
1.9
 21
1.789
  0
LINE
  8
0
 10
23.359
 11
23.551
 20
1.789
 21
1.659
  0
LINE
  8
0
 10
23.551
 11
23.557
 20
1.659
 21
1.653
  0
LINE
  8
0
 10
23.557
 11
23.559
 20
1.653
 21
1.661
  0
LINE
  8
0
 10
23.559
 11
23.661
 20
1.661
 21
1.87
  0
LINE
  8
0
 10
23.661
 11
23.84
 20
1.87
 21
2.101
  0
LINE
  8
0
 10
23.84
 11
24
 20
2.101
 21
2.237
  0
LINE
  8
0
 10
24
 11
24.16
 20
2.237
 21
2.101
  0
LINE
  8
0
 10
24.16
 11
24.339
 20
2.101
 21
1.87
  0
LINE
  8
0
 10
24.339
 11
24.441
 20
1.87
 21
1.661
  0
LINE
  8
0
 10
24.441
 11
24.443
 20
1.661
 21
1.653
  0
LINE
  8
0
 10
24.443
 11
24.449
 20
1.653
 21
1.659
  0
LINE
  8
0
 10
24.449
 11
24.641
 20
1.659
 21
1.789
  0
LINE
  8
0
 10
24.641
 11
24.912
 20
1.789
 21
1.9
  0
LINE
  8
0
 10
24.912
 11
25.119
 20
1.9
 21
1.937
  0
LINE
  8
0
 10
25.119
 11
25.189
 20
1.937
 21
1.74
  0
LINE
  8
0
 10
25.189
 11
25.229
 20
1.74
 21
1.45
  0
LINE
  8
0
 10
25.229
 11
25.212
 20
1.45
 21
1.218
  0
LINE
  8
0
 10
25.212
 11
25.21
 20
1.218
 21
1.21
  0
LINE
  8
0
 10
25.21
 11
25.218
 20
1.21
 21
1.212
  0
LINE
  8
0
 10
25.218
 11
25.45
 20
1.212
 21
1.229
  0
LINE
  8
0
 10
25.45
 11
25.74
 20
1.229
 21
1.189
  0
LINE
  8
0
 10
25.74
 11
25.937
 20
1.189
 21
1.119
  0
LINE
  8
0
 10
25.937
 11
25.9
 20
1.119
 21
0.912
  0
LINE
  8
0
 10
25.9
 11
25.789
 20
0.912
 21
0.641
  0
LINE
  8
0
 10
25.789
 11
25.659
 20
0.641
 21
0.449
  0
LINE
  8
0
 10
25.659
 11
25.653
 20
0.449
 21
0.443
  0
LINE
  8
0
 10
25.653
 11
25.661
 20
0.443
 21
0.441
  0
LINE
  8
0
 10
25.661
 11
25.87
 20
0.441
 21
0.339
  0
LINE
  8
0
 10
25.87
 11
26.101
 20
0.339
 21
0.16
  0
LINE
  8
0
 10
26.101
 11
26.237
 20
0.16
 21
0
  0
LINE
  8
0
 10
26.237
 11
26.101
 20
0
 21
-0.16
  0
LINE
  8
0
 10
26.101
 11
25.87
 20
-0.16
 21
-0.339
  0
LINE
  8
0
 10
25.87
 11
25.661
 20
-0.339
 21
-0.441
  0
LINE
  8
0
 10
25.661
 11
25.653
 20
-0.441
 21
-0.443
  0
LINE
  8
0
 10
25.653
 11
25.659
 20
-0.443
 21
-0.449
  0
LINE
  8
0
 10
25.659
 11
25.789
 20
-0.449
 21
-0.641
  0
LINE
  8
0
 10
25.789
 11
25.9
 20
-0.641
 21
-0.912
  0
LINE
  8
0
 10
25.9
 11
25.937
 20
-0.912
 21
-1.119
  0
LINE
  8
0
 10
25.937
 11
25.74
 20
-1.119
 21
-1.189
  0
LINE
  8
0
 10
25.74
 11
25.45
 20
-1.189
 21
-1.229
  0
LINE
  8
0
 10
25.45
 11
25.218
 20
-1.229
 21
-1.212
  0
LINE
  8
0
 10
25.218
 11
25.21
 20
-1.212
 21
-1.21
  0
LINE
  8
0
 10
25.21
 11
25.212
 20
-1.21
 21
-1.218
  0
LINE
  8
0
 10
25.212
 11
25.229
 20
-1.218
 21
-1.45
  0
LINE
  8
0
 10
25.229
 11
25.189
 20
-1.45
 21
-1.74
  0
LINE
  8
0
 10
25.189
 11
25.119
 20
-1.74
 21
-1.937
  0
LINE
  8
0
 10
25.119
 11
24.912
 20
-1.937
 21
-1.9
  0
LINE
  8
0
 10
24.912
 11
24.641
 20
-1.9
 21
-1.789
  0
LINE
  8
0
 10
24.641
 11
24.449
 20
-1.789
 21
-1.659
  0
LINE
  8
0
 10
24.449
 11
24.443
 20
-1.659
 21
-1.653
  0
LINE
  8
0
 10
24.443
 11
24.441
 20
-1.653
 21
-1.661
  0
LINE
  8
0
 10
24.441
 11
24.339
 20
-1.661
 21
-1.87
  0
LINE
  8
0
 10
24.339
 11
24.16
 20
-1.87
 21
-2.101
  0
LINE
  8
0
 10
24.16
 11
24
 20
-2.101
 21
-2.237
  0
LINE
  8
0
 10
24
 11
23.84
 20
-2.237
 21
-2.101
  0
LINE
  8
0
 10
23.84
 11
23.661
 20
-2.101
 21
-1.87
  0
LINE
  8
0
 10
23.661
 11
23.559
 20
-1.87
 21
-1.661
  0
LINE
  8
0
 10
23.559
 11
23.557
 20
-1.661
 21
-1.653
  0
LINE
  8
0
 10
23.557
 11
23.551
 20
-1.653
 21
-1.659
  0
LINE
  8
0
 10
23.551
 11
23.359
 20
-1.659
 21
-1.789
  0
LINE
  8
0
 10
23.359
 11
23.088
 20
-1.789
 21
-1.9
  0
LINE
  8
0
 10
23.088
 11
22.881
 20
-1.9
 21
-1.937
  0
LINE
  8
0
 10
22.881
 11
22.811
 20
-1.937
 21
-1.74
  0
LINE
  8
0
 10
22.811
 11
22.771
 20
-1.74
 21
-1.45
  0
LINE
  8
0
 10
22.771
 11
22.788
 20
-1.45
 21
-1.218
  0
LINE
  8
0
 10
22.788
 11
22.79
 20
-1.218
 21
-1.21
  0
LINE
  8
0
 10
22.79
 11
22.782
 20
-1.21
 21
-1.212
  0
LINE
  8
0
 10
22.782
 11
22.55
 20
-1.212
 21
-1.229
  0
LINE
  8
0
 10
22.55
 11
22.26
 20
-1.229
 21
-1.189
  0
LINE
  8
0
 10
22.26
 11
22.063
 20
-1.189
 21
-1.119
  0
LINE
  8
0
 10
22.063
 11
22.1
 20
-1.119
 21
-0.912
  0
LINE
  8
0
 10
22.1
 11
22.211
 20
-0.912
 21
-0.641
  0
LINE
  8
0
 10
22.211
 11
22.341
 20
-0.641
 21
-0.449
  0
LINE
  8
0
 10
22.341
 11
22.347
 20
-0.449
 21
-0.443
  0
LINE
  8
0
 10
22.347
 11
22.339
 20
-0.443
 21
-0.441
  0
LINE
  8
0
 10
22.339
 11
22.13
 20
-0.441
 21
-0.339
  0
LINE
  8
0
 10
22.13
 11
21.899
 20
-0.339
 21
-0.16
  0
LINE
  8
0
 10
21.899
 11
21.763
 20
-0.16
 21
0
  0
ENDSEC
  0
SECTION
  2
OBJECTS
  0
DICTIONARY
  0
ENDSEC
  0
EOF
