  0
SECTION
  2
BLOCKS
  0
ENDSEC
  0
SECTION
  2
ENTITIES
  0
LINE
  8
0
 10
-3
 11
-3
 20
-3.1
 21
3.1
  0
LINE
  8
0
 10
-3
 11
0
 20
3.1
 21
3.1
  0
LINE
  8
0
 10
0
 11
0
 20
3.1
 21
7
  0
LINE
  8
0
 10
0
 11
8
 20
7
 21
7
  0
LINE
  8
0
 10
8
 11
10.163
 20
7
 21
6.657
  0
LINE
  8
0
 10
10.163
 11
12.114
 20
6.657
 21
5.663
  0
LINE
  8
0
 10
12.114
 11
13.663
 20
5.663
 21
4.114
  0
LINE
  8
0
 10
13.663
 11
14.657
 20
4.114
 21
2.163
  0
LINE
  8
0
 10
14.657
 11
15
 20
2.163
 21
0
  0
LINE
  8
0
 10
15
 11
14.657
 20
0
 21
-2.163
  0
LINE
  8
0
 10
14.657
 11
13.663
 20
-2.163
 21
-4.114
  0
LINE
  8
0
 10
13.663
 11
12.114
 20
-4.114
 21
-5.663
  0
LINE
  8
0
 10
12.114
 11
10.163
 20
-5.663
 21
-6.657
  0
LINE
  8
0
 10
10.163
 11
8
 20
-6.657
 21
-7
  0
LINE
  8
0
 10
8
 11
0
 20
-7
 21
-7
  0
LINE
  8
0
 10
0
 11
0
 20
-7
 21
-3.1
  0
LINE
  8
0
 10
0
 11
-3
 20
-3.1
 21
-3.1
  0
LINE
  8
0
 10
3.2
 11
3.435
 20
0
 21
1.483
  0
LINE
  8
0
 10
3.435
 11
4.117
 20
1.483
 21
2.821
  0
LINE
  8
0
 10
4.117
 11
5.179
 20
2.821
 21
3.883
  0
LINE
  8
0
 10
5.179
 11
6.517
 20
3.883
 21
4.565
  0
LINE
  8
0
 10
6.517
 11
8
 20
4.565
 21
4.8
  0
LINE
  8
0
 10
8
 11
9.483
 20
4.8
 21
4.565
  0
LINE
  8
0
 10
9.483
 11
10.821
 20
4.565
 21
3.883
  0
LINE
  8
0
 10
10.821
 11
11.883
 20
3.883
 21
2.821
  0
LINE
  8
0
 10
11.883
 11
12.565
 20
2.821
 21
1.483
  0
LINE
  8
0
 10
12.565
 11
12.8
 20
1.483
 21
0
  0
LINE
  8
0
 10
12.8
 11
12.565
 20
0
 21
-1.483
  0
LINE
  8
0
 10
12.565
 11
11.883
 20
-1.483
 21
-2.821
  0
LINE
  8
0
 10
11.883
 11
10.821
 20
-2.821
 21
-3.883
  0
LINE
  8
0
 10
10.821
 11
9.483
 20
-3.883
 21
-4.565
  0
LINE
  8
0
 10
9.483
 11
8
 20
-4.565
 21
-4.8
  0
LINE
  8
0
 10
8
 11
6.517
 20
-4.8
 21
-4.565
  0
LINE
  8
0
 10
6.517
 11
5.179
 20
-4.565
 21
-3.883
  0
LINE
  8
0
 10
5.179
 11
4.117
 20
-3.883
 21
-2.821
  0
LINE
  8
0
 10
4.117
 11
3.435
 20
-2.821
 21
-1.483
  0
LINE
  8
0
 10
3.435
 11
3.2
 20
-1.483
 21
0
  0
LINE
  8
0
 10
17
 11
17
 20
-3.1
 21
3.1
  0
LINE
  8
0
 10
17
 11
20
 20
3.1
 21
3.1
  0
LINE
  8
0
 10
20
 11
20
 20
3.1
 21
7
  0
LINE
  8
0
 10
20
 11
28
 20
7
 21
7
  0
LINE
  8
0
 10
28
 11
30.163
 20
7
 21
6.657
  0
LINE
  8
0
 10
30.163
 11
32.114
 20
6.657
 21
5.663
  0
LINE
  8
0
 10
32.114
 11
33.663
 20
5.663
 21
4.114
  0
LINE
  8
0
 10
33.663
 11
34.657
 20
4.114
 21
2.163
  0
LINE
  8
0
 10
34.657
 11
35
 20
2.163
 21
0
  0
LINE
  8
0
 10
35
 11
34.657
 20
0
 21
-2.163
  0
LINE
  8
0
 10
34.657
 11
33.663
 20
-2.163
 21
-4.114
  0
LINE
  8
0
 10
33.663
 11
32.114
 20
-4.114
 21
-5.663
  0
LINE
  8
0
 10
32.114
 11
30.163
 20
-5.663
 21
-6.657
  0
LINE
  8
0
 10
30.163
 11
28
 20
-6.657
 21
-7
  0
LINE
  8
0
 10
28
 11
20
 20
-7
 21
-7
  0
LINE
  8
0
 10
20
 11
20
 20
-7
 21
-3.1
  0
LINE
  8
0
 10
20
 11
17
 20
-3.1
 21
-3.1
  0
LINE
  8
0
 10
23.3
 11
23.53
 20
0
 21
1.452
  0
LINE
  8
0
 10
23.53
 11
24.198
 20
1.452
 21
2.763
  0
LINE
  8
0
 10
24.198
 11
25.237
 20
2.763
 21
3.802
  0
LINE
  8
0
 10
25.237
 11
26.548
 20
3.802
 21
4.47
  0
LINE
  8
0
 10
26.548
 11
28
 20
4.47
 21
4.7
  0
LINE
  8
0
 10
28
 11
29.452
 20
4.7
 21
4.47
  0
LINE
  8
0
 10
29.452
 11
30.763
 20
4.47
 21
3.802
  0
LINE
  8
0
 10
30.763
 11
31.802
 20
3.802
 21
2.763
  0
LINE
  8
0
 10
31.802
 11
32.47
 20
2.763
 21
1.452
  0
LINE
  8
0
 10
32.47
 11
32.7
 20
1.452
 21
0
  0
LINE
  8
0
 10
32.7
 11
32.47
 20
0
 21
-1.452
  0
LINE
  8
0
 10
32.47
 11
31.802
 20
-1.452
 21
-2.763
  0
LINE
  8
0
 10
31.802
 11
30.763
 20
-2.763
 21
-3.802
  0
LINE
  8
0
 10
30.763
 11
29.452
 20
-3.802
 21
-4.47
  0
LINE
  8
0
 10
29.452
 11
28
 20
-4.47
 21
-4.7
  0
LINE
  8
0
 10
28
 11
26.548
 20
-4.7
 21
-4.47
  0
LINE
  8
0
 10
26.548
 11
25.237
 20
-4.47
 21
-3.802
  0
LINE
  8
0
 10
25.237
 11
24.198
 20
-3.802
 21
-2.763
  0
LINE
  8
0
 10
24.198
 11
23.53
 20
-2.763
 21
-1.452
  0
LINE
  8
0
 10
23.53
 11
23.3
 20
-1.452
 21
0
  0
LINE
  8
0
 10
37
 11
37
 20
-3.1
 21
3.1
  0
LINE
  8
0
 10
37
 11
40
 20
3.1
 21
3.1
  0
LINE
  8
0
 10
40
 11
40
 20
3.1
 21
7
  0
LINE
  8
0
 10
40
 11
48
 20
7
 21
7
  0
LINE
  8
0
 10
48
 11
50.163
 20
7
 21
6.657
  0
LINE
  8
0
 10
50.163
 11
52.114
 20
6.657
 21
5.663
  0
LINE
  8
0
 10
52.114
 11
53.663
 20
5.663
 21
4.114
  0
LINE
  8
0
 10
53.663
 11
54.657
 20
4.114
 21
2.163
  0
LINE
  8
0
 10
54.657
 11
55
 20
2.163
 21
0
  0
LINE
  8
0
 10
55
 11
54.657
 20
0
 21
-2.163
  0
LINE
  8
0
 10
54.657
 11
53.663
 20
-2.163
 21
-4.114
  0
LINE
  8
0
 10
53.663
 11
52.114
 20
-4.114
 21
-5.663
  0
LINE
  8
0
 10
52.114
 11
50.163
 20
-5.663
 21
-6.657
  0
LINE
  8
0
 10
50.163
 11
48
 20
-6.657
 21
-7
  0
LINE
  8
0
 10
48
 11
40
 20
-7
 21
-7
  0
LINE
  8
0
 10
40
 11
40
 20
-7
 21
-3.1
  0
LINE
  8
0
 10
40
 11
37
 20
-3.1
 21
-3.1
  0
LINE
  8
0
 10
43.4
 11
43.625
 20
0
 21
1.421
  0
LINE
  8
0
 10
43.625
 11
44.279
 20
1.421
 21
2.704
  0
LINE
  8
0
 10
44.279
 11
45.296
 20
2.704
 21
3.721
  0
LINE
  8
0
 10
45.296
 11
46.579
 20
3.721
 21
4.375
  0
LINE
  8
0
 10
46.579
 11
48
 20
4.375
 21
4.6
  0
LINE
  8
0
 10
48
 11
49.421
 20
4.6
 21
4.375
  0
LINE
  8
0
 10
49.421
 11
50.704
 20
4.375
 21
3.721
  0
LINE
  8
0
 10
50.704
 11
51.721
 20
3.721
 21
2.704
  0
LINE
  8
0
 10
51.721
 11
52.375
 20
2.704
 21
1.421
  0
LINE
  8
0
 10
52.375
 11
52.6
 20
1.421
 21
0
  0
LINE
  8
0
 10
52.6
 11
52.375
 20
0
 21
-1.421
  0
LINE
  8
0
 10
52.375
 11
51.721
 20
-1.421
 21
-2.704
  0
LINE
  8
0
 10
51.721
 11
50.704
 20
-2.704
 21
-3.721
  0
LINE
  8
0
 10
50.704
 11
49.421
 20
-3.721
 21
-4.375
  0
LINE
  8
0
 10
49.421
 11
48
 20
-4.375
 21
-4.6
  0
LINE
  8
0
 10
48
 11
46.579
 20
-4.6
 21
-4.375
  0
LINE
  8
0
 10
46.579
 11
45.296
 20
-4.375
 21
-3.721
  0
LINE
  8
0
 10
45.296
 11
44.279
 20
-3.721
 21
-2.704
  0
LINE
  8
0
 10
44.279
 11
43.625
 20
-2.704
 21
-1.421
  0
LINE
  8
0
 10
43.625
 11
43.4
 20
-1.421
 21
0
  0
LINE
  8
0
 10
57
 11
57
 20
-3.1
 21
3.1
  0
LINE
  8
0
 10
57
 11
60
 20
3.1
 21
3.1
  0
LINE
  8
0
 10
60
 11
60
 20
3.1
 21
7
  0
LINE
  8
0
 10
60
 11
68
 20
7
 21
7
  0
LINE
  8
0
 10
68
 11
70.163
 20
7
 21
6.657
  0
LINE
  8
0
 10
70.163
 11
72.114
 20
6.657
 21
5.663
  0
LINE
  8
0
 10
72.114
 11
73.663
 20
5.663
 21
4.114
  0
LINE
  8
0
 10
73.663
 11
74.657
 20
4.114
 21
2.163
  0
LINE
  8
0
 10
74.657
 11
75
 20
2.163
 21
0
  0
LINE
  8
0
 10
75
 11
74.657
 20
0
 21
-2.163
  0
LINE
  8
0
 10
74.657
 11
73.663
 20
-2.163
 21
-4.114
  0
LINE
  8
0
 10
73.663
 11
72.114
 20
-4.114
 21
-5.663
  0
LINE
  8
0
 10
72.114
 11
70.163
 20
-5.663
 21
-6.657
  0
LINE
  8
0
 10
70.163
 11
68
 20
-6.657
 21
-7
  0
LINE
  8
0
 10
68
 11
60
 20
-7
 21
-7
  0
LINE
  8
0
 10
60
 11
60
 20
-7
 21
-3.1
  0
LINE
  8
0
 10
60
 11
57
 20
-3.1
 21
-3.1
  0
LINE
  8
0
 10
63.5
 11
63.72
 20
0
 21
1.391
  0
LINE
  8
0
 10
63.72
 11
64.359
 20
1.391
 21
2.645
  0
LINE
  8
0
 10
64.359
 11
65.355
 20
2.645
 21
3.641
  0
LINE
  8
0
 10
65.355
 11
66.609
 20
3.641
 21
4.28
  0
LINE
  8
0
 10
66.609
 11
68
 20
4.28
 21
4.5
  0
LINE
  8
0
 10
68
 11
69.391
 20
4.5
 21
4.28
  0
LINE
  8
0
 10
69.391
 11
70.645
 20
4.28
 21
3.641
  0
LINE
  8
0
 10
70.645
 11
71.641
 20
3.641
 21
2.645
  0
LINE
  8
0
 10
71.641
 11
72.28
 20
2.645
 21
1.391
  0
LINE
  8
0
 10
72.28
 11
72.5
 20
1.391
 21
0
  0
LINE
  8
0
 10
72.5
 11
72.28
 20
0
 21
-1.391
  0
LINE
  8
0
 10
72.28
 11
71.641
 20
-1.391
 21
-2.645
  0
LINE
  8
0
 10
71.641
 11
70.645
 20
-2.645
 21
-3.641
  0
LINE
  8
0
 10
70.645
 11
69.391
 20
-3.641
 21
-4.28
  0
LINE
  8
0
 10
69.391
 11
68
 20
-4.28
 21
-4.5
  0
LINE
  8
0
 10
68
 11
66.609
 20
-4.5
 21
-4.28
  0
LINE
  8
0
 10
66.609
 11
65.355
 20
-4.28
 21
-3.641
  0
LINE
  8
0
 10
65.355
 11
64.359
 20
-3.641
 21
-2.645
  0
LINE
  8
0
 10
64.359
 11
63.72
 20
-2.645
 21
-1.391
  0
LINE
  8
0
 10
63.72
 11
63.5
 20
-1.391
 21
0
  0
LINE
  8
0
 10
77
 11
77
 20
-3.1
 21
3.1
  0
LINE
  8
0
 10
77
 11
80
 20
3.1
 21
3.1
  0
LINE
  8
0
 10
80
 11
80
 20
3.1
 21
7
  0
LINE
  8
0
 10
80
 11
88
 20
7
 21
7
  0
LINE
  8
0
 10
88
 11
90.163
 20
7
 21
6.657
  0
LINE
  8
0
 10
90.163
 11
92.114
 20
6.657
 21
5.663
  0
LINE
  8
0
 10
92.114
 11
93.663
 20
5.663
 21
4.114
  0
LINE
  8
0
 10
93.663
 11
94.657
 20
4.114
 21
2.163
  0
LINE
  8
0
 10
94.657
 11
95
 20
2.163
 21
0
  0
LINE
  8
0
 10
95
 11
94.657
 20
0
 21
-2.163
  0
LINE
  8
0
 10
94.657
 11
93.663
 20
-2.163
 21
-4.114
  0
LINE
  8
0
 10
93.663
 11
92.114
 20
-4.114
 21
-5.663
  0
LINE
  8
0
 10
92.114
 11
90.163
 20
-5.663
 21
-6.657
  0
LINE
  8
0
 10
90.163
 11
88
 20
-6.657
 21
-7
  0
LINE
  8
0
 10
88
 11
80
 20
-7
 21
-7
  0
LINE
  8
0
 10
80
 11
80
 20
-7
 21
-3.1
  0
LINE
  8
0
 10
80
 11
77
 20
-3.1
 21
-3.1
  0
LINE
  8
0
 10
83.6
 11
83.815
 20
0
 21
1.36
  0
LINE
  8
0
 10
83.815
 11
84.44
 20
1.36
 21
2.586
  0
LINE
  8
0
 10
84.44
 11
85.414
 20
2.586
 21
3.56
  0
LINE
  8
0
 10
85.414
 11
86.64
 20
3.56
 21
4.185
  0
LINE
  8
0
 10
86.64
 11
88
 20
4.185
 21
4.4
  0
LINE
  8
0
 10
88
 11
89.36
 20
4.4
 21
4.185
  0
LINE
  8
0
 10
89.36
 11
90.586
 20
4.185
 21
3.56
  0
LINE
  8
0
 10
90.586
 11
91.56
 20
3.56
 21
2.586
  0
LINE
  8
0
 10
91.56
 11
92.185
 20
2.586
 21
1.36
  0
LINE
  8
0
 10
92.185
 11
92.4
 20
1.36
 21
0
  0
LINE
  8
0
 10
92.4
 11
92.185
 20
0
 21
-1.36
  0
LINE
  8
0
 10
92.185
 11
91.56
 20
-1.36
 21
-2.586
  0
LINE
  8
0
 10
91.56
 11
90.586
 20
-2.586
 21
-3.56
  0
LINE
  8
0
 10
90.586
 11
89.36
 20
-3.56
 21
-4.185
  0
LINE
  8
0
 10
89.36
 11
88
 20
-4.185
 21
-4.4
  0
LINE
  8
0
 10
88
 11
86.64
 20
-4.4
 21
-4.185
  0
LINE
  8
0
 10
86.64
 11
85.414
 20
-4.185
 21
-3.56
  0
LINE
  8
0
 10
85.414
 11
84.44
 20
-3.56
 21
-2.586
  0
LINE
  8
0
 10
84.44
 11
83.815
 20
-2.586
 21
-1.36
  0
LINE
  8
0
 10
83.815
 11
83.6
 20
-1.36
 21
0
  0
LINE
  8
0
 10
97
 11
97
 20
-3.1
 21
3.1
  0
LINE
  8
0
 10
97
 11
100
 20
3.1
 21
3.1
  0
LINE
  8
0
 10
100
 11
100
 20
3.1
 21
7
  0
LINE
  8
0
 10
100
 11
108
 20
7
 21
7
  0
LINE
  8
0
 10
108
 11
110.163
 20
7
 21
6.657
  0
LINE
  8
0
 10
110.163
 11
112.114
 20
6.657
 21
5.663
  0
LINE
  8
0
 10
112.114
 11
113.663
 20
5.663
 21
4.114
  0
LINE
  8
0
 10
113.663
 11
114.657
 20
4.114
 21
2.163
  0
LINE
  8
0
 10
114.657
 11
115
 20
2.163
 21
0
  0
LINE
  8
0
 10
115
 11
114.657
 20
0
 21
-2.163
  0
LINE
  8
0
 10
114.657
 11
113.663
 20
-2.163
 21
-4.114
  0
LINE
  8
0
 10
113.663
 11
112.114
 20
-4.114
 21
-5.663
  0
LINE
  8
0
 10
112.114
 11
110.163
 20
-5.663
 21
-6.657
  0
LINE
  8
0
 10
110.163
 11
108
 20
-6.657
 21
-7
  0
LINE
  8
0
 10
108
 11
100
 20
-7
 21
-7
  0
LINE
  8
0
 10
100
 11
100
 20
-7
 21
-3.1
  0
LINE
  8
0
 10
100
 11
97
 20
-3.1
 21
-3.1
  0
LINE
  8
0
 10
103.7
 11
103.91
 20
0
 21
1.329
  0
LINE
  8
0
 10
103.91
 11
104.521
 20
1.329
 21
2.527
  0
LINE
  8
0
 10
104.521
 11
105.473
 20
2.527
 21
3.479
  0
LINE
  8
0
 10
105.473
 11
106.671
 20
3.479
 21
4.09
  0
LINE
  8
0
 10
106.671
 11
108
 20
4.09
 21
4.3
  0
LINE
  8
0
 10
108
 11
109.329
 20
4.3
 21
4.09
  0
LINE
  8
0
 10
109.329
 11
110.527
 20
4.09
 21
3.479
  0
LINE
  8
0
 10
110.527
 11
111.479
 20
3.479
 21
2.527
  0
LINE
  8
0
 10
111.479
 11
112.09
 20
2.527
 21
1.329
  0
LINE
  8
0
 10
112.09
 11
112.3
 20
1.329
 21
0
  0
LINE
  8
0
 10
112.3
 11
112.09
 20
0
 21
-1.329
  0
LINE
  8
0
 10
112.09
 11
111.479
 20
-1.329
 21
-2.527
  0
LINE
  8
0
 10
111.479
 11
110.527
 20
-2.527
 21
-3.479
  0
LINE
  8
0
 10
110.527
 11
109.329
 20
-3.479
 21
-4.09
  0
LINE
  8
0
 10
109.329
 11
108
 20
-4.09
 21
-4.3
  0
LINE
  8
0
 10
108
 11
106.671
 20
-4.3
 21
-4.09
  0
LINE
  8
0
 10
106.671
 11
105.473
 20
-4.09
 21
-3.479
  0
LINE
  8
0
 10
105.473
 11
104.521
 20
-3.479
 21
-2.527
  0
LINE
  8
0
 10
104.521
 11
103.91
 20
-2.527
 21
-1.329
  0
LINE
  8
0
 10
103.91
 11
103.7
 20
-1.329
 21
0
  0
ENDSEC
  0
SECTION
  2
OBJECTS
  0
DICTIONARY
  0
ENDSEC
  0
EOF
