  0
SECTION
  2
BLOCKS
  0
ENDSEC
  0
SECTION
  2
ENTITIES
  0
LINE
  8
0
 10
-75.5
 11
-75.5
 20
-15
 21
-3.75
  0
LINE
  8
0
 10
-75.5
 11
-72.5
 20
-3.75
 21
-3.75
  0
LINE
  8
0
 10
-72.5
 11
-72.3
 20
-3.75
 21
-12
  0
LINE
  8
0
 10
-72.3
 11
-69.7
 20
-12
 21
-12
  0
LINE
  8
0
 10
-69.7
 11
-69.5
 20
-12
 21
-6
  0
LINE
  8
0
 10
-69.5
 11
-67.25
 20
-6
 21
-6
  0
LINE
  8
0
 10
-67.25
 11
-67.05
 20
-6
 21
-12
  0
LINE
  8
0
 10
-67.05
 11
-64.45
 20
-12
 21
-12
  0
LINE
  8
0
 10
-64.45
 11
-64.25
 20
-12
 21
-6
  0
LINE
  8
0
 10
-64.25
 11
-61.25
 20
-6
 21
-6
  0
LINE
  8
0
 10
-61.25
 11
-61.25
 20
-6
 21
-15
  0
LINE
  8
0
 10
-61.25
 11
-75.5
 20
-15
 21
-15
  0
LINE
  8
0
 10
-75.5
 11
-75.5
 20
-2
 21
9.25
  0
LINE
  8
0
 10
-75.5
 11
-72.5
 20
9.25
 21
9.25
  0
LINE
  8
0
 10
-72.5
 11
-72.3
 20
9.25
 21
1
  0
LINE
  8
0
 10
-72.3
 11
-69.7
 20
1
 21
1
  0
LINE
  8
0
 10
-69.7
 11
-69.5
 20
1
 21
7
  0
LINE
  8
0
 10
-69.5
 11
-67.25
 20
7
 21
7
  0
LINE
  8
0
 10
-67.25
 11
-67.05
 20
7
 21
1
  0
LINE
  8
0
 10
-67.05
 11
-64.45
 20
1
 21
1
  0
LINE
  8
0
 10
-64.45
 11
-64.25
 20
1
 21
7
  0
LINE
  8
0
 10
-64.25
 11
-61.25
 20
7
 21
7
  0
LINE
  8
0
 10
-61.25
 11
-61.25
 20
7
 21
-2
  0
LINE
  8
0
 10
-61.25
 11
-75.5
 20
-2
 21
-2
  0
LINE
  8
0
 10
-58.5
 11
-58.5
 20
-12.5
 21
12.5
  0
LINE
  8
0
 10
-58.5
 11
-18.5
 20
12.5
 21
12.5
  0
LINE
  8
0
 10
-18.5
 11
-18.108
 20
12.5
 21
12.485
  0
LINE
  8
0
 10
-18.108
 11
-17.718
 20
12.485
 21
12.438
  0
LINE
  8
0
 10
-17.718
 11
-17.333
 20
12.438
 21
12.362
  0
LINE
  8
0
 10
-17.333
 11
-16.955
 20
12.362
 21
12.255
  0
LINE
  8
0
 10
-16.955
 11
-16.587
 20
12.255
 21
12.119
  0
LINE
  8
0
 10
-16.587
 11
-16.23
 20
12.119
 21
11.955
  0
LINE
  8
0
 10
-16.23
 11
-15.888
 20
11.955
 21
11.763
  0
LINE
  8
0
 10
-15.888
 11
-15.561
 20
11.763
 21
11.545
  0
LINE
  8
0
 10
-15.561
 11
-15.253
 20
11.545
 21
11.302
  0
LINE
  8
0
 10
-15.253
 11
-14.964
 20
11.302
 21
11.036
  0
LINE
  8
0
 10
-14.964
 11
-14.698
 20
11.036
 21
10.747
  0
LINE
  8
0
 10
-14.698
 11
-14.455
 20
10.747
 21
10.439
  0
LINE
  8
0
 10
-14.455
 11
-14.237
 20
10.439
 21
10.112
  0
LINE
  8
0
 10
-14.237
 11
-14.045
 20
10.112
 21
9.77
  0
LINE
  8
0
 10
-14.045
 11
-13.881
 20
9.77
 21
9.413
  0
LINE
  8
0
 10
-13.881
 11
-13.745
 20
9.413
 21
9.045
  0
LINE
  8
0
 10
-13.745
 11
-13.638
 20
9.045
 21
8.667
  0
LINE
  8
0
 10
-13.638
 11
-13.562
 20
8.667
 21
8.282
  0
LINE
  8
0
 10
-13.562
 11
-13.515
 20
8.282
 21
7.892
  0
LINE
  8
0
 10
-13.515
 11
-13.5
 20
7.892
 21
7.5
  0
LINE
  8
0
 10
-13.5
 11
-13.5
 20
7.5
 21
-7.5
  0
LINE
  8
0
 10
-13.5
 11
-13.515
 20
-7.5
 21
-7.892
  0
LINE
  8
0
 10
-13.515
 11
-13.562
 20
-7.892
 21
-8.282
  0
LINE
  8
0
 10
-13.562
 11
-13.638
 20
-8.282
 21
-8.667
  0
LINE
  8
0
 10
-13.638
 11
-13.745
 20
-8.667
 21
-9.045
  0
LINE
  8
0
 10
-13.745
 11
-13.881
 20
-9.045
 21
-9.413
  0
LINE
  8
0
 10
-13.881
 11
-14.045
 20
-9.413
 21
-9.77
  0
LINE
  8
0
 10
-14.045
 11
-14.237
 20
-9.77
 21
-10.112
  0
LINE
  8
0
 10
-14.237
 11
-14.455
 20
-10.112
 21
-10.439
  0
LINE
  8
0
 10
-14.455
 11
-14.698
 20
-10.439
 21
-10.747
  0
LINE
  8
0
 10
-14.698
 11
-14.964
 20
-10.747
 21
-11.036
  0
LINE
  8
0
 10
-14.964
 11
-15.253
 20
-11.036
 21
-11.302
  0
LINE
  8
0
 10
-15.253
 11
-15.561
 20
-11.302
 21
-11.545
  0
LINE
  8
0
 10
-15.561
 11
-15.888
 20
-11.545
 21
-11.763
  0
LINE
  8
0
 10
-15.888
 11
-16.23
 20
-11.763
 21
-11.955
  0
LINE
  8
0
 10
-16.23
 11
-16.587
 20
-11.955
 21
-12.119
  0
LINE
  8
0
 10
-16.587
 11
-16.955
 20
-12.119
 21
-12.255
  0
LINE
  8
0
 10
-16.955
 11
-17.333
 20
-12.255
 21
-12.362
  0
LINE
  8
0
 10
-17.333
 11
-17.718
 20
-12.362
 21
-12.438
  0
LINE
  8
0
 10
-17.718
 11
-18.108
 20
-12.438
 21
-12.485
  0
LINE
  8
0
 10
-18.108
 11
-18.5
 20
-12.485
 21
-12.5
  0
LINE
  8
0
 10
-18.5
 11
-58.5
 20
-12.5
 21
-12.5
  0
LINE
  8
0
 10
-54.8
 11
-54.8
 20
-75.6
 21
-72.4
  0
LINE
  8
0
 10
-54.8
 11
-51.8
 20
-72.4
 21
-72.5
  0
LINE
  8
0
 10
-51.8
 11
-51.8
 20
-72.5
 21
-67.5
  0
LINE
  8
0
 10
-51.8
 11
-54.8
 20
-67.5
 21
-67.6
  0
LINE
  8
0
 10
-54.8
 11
-54.8
 20
-67.6
 21
-64.4
  0
LINE
  8
0
 10
-54.8
 11
-51.8
 20
-64.4
 21
-64.5
  0
LINE
  8
0
 10
-51.8
 11
-51.8
 20
-64.5
 21
-60
  0
LINE
  8
0
 10
-51.8
 11
-44.1
 20
-60
 21
-60
  0
LINE
  8
0
 10
-44.1
 11
-44.1
 20
-60
 21
-63
  0
LINE
  8
0
 10
-44.1
 11
-41.1
 20
-63
 21
-63
  0
LINE
  8
0
 10
-41.1
 11
-41.1
 20
-63
 21
-60
  0
LINE
  8
0
 10
-41.1
 11
-1.8
 20
-60
 21
-60
  0
LINE
  8
0
 10
-1.8
 11
-1.8
 20
-60
 21
-80
  0
LINE
  8
0
 10
-1.8
 11
-41.1
 20
-80
 21
-80
  0
LINE
  8
0
 10
-41.1
 11
-41.1
 20
-80
 21
-77
  0
LINE
  8
0
 10
-41.1
 11
-44.1
 20
-77
 21
-77
  0
LINE
  8
0
 10
-44.1
 11
-44.1
 20
-77
 21
-80
  0
LINE
  8
0
 10
-44.1
 11
-51.8
 20
-80
 21
-80
  0
LINE
  8
0
 10
-51.8
 11
-51.8
 20
-80
 21
-75.5
  0
LINE
  8
0
 10
-51.8
 11
-54.8
 20
-75.5
 21
-75.6
  0
LINE
  8
0
 10
-54.8
 11
-54.8
 20
-53.6
 21
-50.4
  0
LINE
  8
0
 10
-54.8
 11
-51.8
 20
-50.4
 21
-50.5
  0
LINE
  8
0
 10
-51.8
 11
-51.8
 20
-50.5
 21
-45.5
  0
LINE
  8
0
 10
-51.8
 11
-54.8
 20
-45.5
 21
-45.6
  0
LINE
  8
0
 10
-54.8
 11
-54.8
 20
-45.6
 21
-42.4
  0
LINE
  8
0
 10
-54.8
 11
-51.8
 20
-42.4
 21
-42.5
  0
LINE
  8
0
 10
-51.8
 11
-51.8
 20
-42.5
 21
-38
  0
LINE
  8
0
 10
-51.8
 11
-44.1
 20
-38
 21
-38
  0
LINE
  8
0
 10
-44.1
 11
-44.1
 20
-38
 21
-41
  0
LINE
  8
0
 10
-44.1
 11
-41.1
 20
-41
 21
-41
  0
LINE
  8
0
 10
-41.1
 11
-41.1
 20
-41
 21
-38
  0
LINE
  8
0
 10
-41.1
 11
-1.8
 20
-38
 21
-38
  0
LINE
  8
0
 10
-1.8
 11
-1.8
 20
-38
 21
-58
  0
LINE
  8
0
 10
-1.8
 11
-41.1
 20
-58
 21
-58
  0
LINE
  8
0
 10
-41.1
 11
-41.1
 20
-58
 21
-55
  0
LINE
  8
0
 10
-41.1
 11
-44.1
 20
-55
 21
-55
  0
LINE
  8
0
 10
-44.1
 11
-44.1
 20
-55
 21
-58
  0
LINE
  8
0
 10
-44.1
 11
-51.8
 20
-58
 21
-58
  0
LINE
  8
0
 10
-51.8
 11
-51.8
 20
-58
 21
-53.5
  0
LINE
  8
0
 10
-51.8
 11
-54.8
 20
-53.5
 21
-53.6
  0
LINE
  8
0
 10
-47.8
 11
-47.778
 20
-24
 21
-23.435
  0
LINE
  8
0
 10
-47.778
 11
-47.711
 20
-23.435
 21
-22.874
  0
LINE
  8
0
 10
-47.711
 11
-47.601
 20
-22.874
 21
-22.319
  0
LINE
  8
0
 10
-47.601
 11
-47.448
 20
-22.319
 21
-21.775
  0
LINE
  8
0
 10
-47.448
 11
-47.252
 20
-21.775
 21
-21.245
  0
LINE
  8
0
 10
-47.252
 11
-47.015
 20
-21.245
 21
-20.731
  0
LINE
  8
0
 10
-47.015
 11
-46.739
 20
-20.731
 21
-20.238
  0
LINE
  8
0
 10
-46.739
 11
-46.425
 20
-20.238
 21
-19.768
  0
LINE
  8
0
 10
-46.425
 11
-46.075
 20
-19.768
 21
-19.324
  0
LINE
  8
0
 10
-46.075
 11
-45.691
 20
-19.324
 21
-18.909
  0
LINE
  8
0
 10
-45.691
 11
-45.276
 20
-18.909
 21
-18.525
  0
LINE
  8
0
 10
-45.276
 11
-44.832
 20
-18.525
 21
-18.175
  0
LINE
  8
0
 10
-44.832
 11
-44.362
 20
-18.175
 21
-17.861
  0
LINE
  8
0
 10
-44.362
 11
-43.869
 20
-17.861
 21
-17.585
  0
LINE
  8
0
 10
-43.869
 11
-43.355
 20
-17.585
 21
-17.348
  0
LINE
  8
0
 10
-43.355
 11
-42.825
 20
-17.348
 21
-17.152
  0
LINE
  8
0
 10
-42.825
 11
-42.281
 20
-17.152
 21
-16.999
  0
LINE
  8
0
 10
-42.281
 11
-41.726
 20
-16.999
 21
-16.889
  0
LINE
  8
0
 10
-41.726
 11
-41.165
 20
-16.889
 21
-16.822
  0
LINE
  8
0
 10
-41.165
 11
-40.6
 20
-16.822
 21
-16.8
  0
LINE
  8
0
 10
-40.6
 11
-40.035
 20
-16.8
 21
-16.822
  0
LINE
  8
0
 10
-40.035
 11
-39.474
 20
-16.822
 21
-16.889
  0
LINE
  8
0
 10
-39.474
 11
-38.919
 20
-16.889
 21
-16.999
  0
LINE
  8
0
 10
-38.919
 11
-38.375
 20
-16.999
 21
-17.152
  0
LINE
  8
0
 10
-38.375
 11
-37.845
 20
-17.152
 21
-17.348
  0
LINE
  8
0
 10
-37.845
 11
-37.331
 20
-17.348
 21
-17.585
  0
LINE
  8
0
 10
-37.331
 11
-36.838
 20
-17.585
 21
-17.861
  0
LINE
  8
0
 10
-36.838
 11
-36.368
 20
-17.861
 21
-18.175
  0
LINE
  8
0
 10
-36.368
 11
-35.924
 20
-18.175
 21
-18.525
  0
LINE
  8
0
 10
-35.924
 11
-35.509
 20
-18.525
 21
-18.909
  0
LINE
  8
0
 10
-35.509
 11
-35.125
 20
-18.909
 21
-19.324
  0
LINE
  8
0
 10
-35.125
 11
-34.775
 20
-19.324
 21
-19.768
  0
LINE
  8
0
 10
-34.775
 11
-34.461
 20
-19.768
 21
-20.238
  0
LINE
  8
0
 10
-34.461
 11
-34.185
 20
-20.238
 21
-20.731
  0
LINE
  8
0
 10
-34.185
 11
-33.948
 20
-20.731
 21
-21.245
  0
LINE
  8
0
 10
-33.948
 11
-33.752
 20
-21.245
 21
-21.775
  0
LINE
  8
0
 10
-33.752
 11
-33.599
 20
-21.775
 21
-22.319
  0
LINE
  8
0
 10
-33.599
 11
-33.489
 20
-22.319
 21
-22.874
  0
LINE
  8
0
 10
-33.489
 11
-33.422
 20
-22.874
 21
-23.435
  0
LINE
  8
0
 10
-33.422
 11
-33.4
 20
-23.435
 21
-24
  0
LINE
  8
0
 10
-33.4
 11
-33.422
 20
-24
 21
-24.565
  0
LINE
  8
0
 10
-33.422
 11
-33.489
 20
-24.565
 21
-25.126
  0
LINE
  8
0
 10
-33.489
 11
-33.599
 20
-25.126
 21
-25.681
  0
LINE
  8
0
 10
-33.599
 11
-33.752
 20
-25.681
 21
-26.225
  0
LINE
  8
0
 10
-33.752
 11
-33.948
 20
-26.225
 21
-26.755
  0
LINE
  8
0
 10
-33.948
 11
-34.185
 20
-26.755
 21
-27.269
  0
LINE
  8
0
 10
-34.185
 11
-34.461
 20
-27.269
 21
-27.762
  0
LINE
  8
0
 10
-34.461
 11
-34.775
 20
-27.762
 21
-28.232
  0
LINE
  8
0
 10
-34.775
 11
-35.125
 20
-28.232
 21
-28.676
  0
LINE
  8
0
 10
-35.125
 11
-35.509
 20
-28.676
 21
-29.091
  0
LINE
  8
0
 10
-35.509
 11
-35.924
 20
-29.091
 21
-29.475
  0
LINE
  8
0
 10
-35.924
 11
-36.368
 20
-29.475
 21
-29.825
  0
LINE
  8
0
 10
-36.368
 11
-36.838
 20
-29.825
 21
-30.139
  0
LINE
  8
0
 10
-36.838
 11
-37.331
 20
-30.139
 21
-30.415
  0
LINE
  8
0
 10
-37.331
 11
-37.845
 20
-30.415
 21
-30.652
  0
LINE
  8
0
 10
-37.845
 11
-38.375
 20
-30.652
 21
-30.848
  0
LINE
  8
0
 10
-38.375
 11
-38.919
 20
-30.848
 21
-31.001
  0
LINE
  8
0
 10
-38.919
 11
-39.474
 20
-31.001
 21
-31.111
  0
LINE
  8
0
 10
-39.474
 11
-40.035
 20
-31.111
 21
-31.178
  0
LINE
  8
0
 10
-40.035
 11
-40.6
 20
-31.178
 21
-31.2
  0
LINE
  8
0
 10
-40.6
 11
-41.165
 20
-31.2
 21
-31.178
  0
LINE
  8
0
 10
-41.165
 11
-41.726
 20
-31.178
 21
-31.111
  0
LINE
  8
0
 10
-41.726
 11
-42.281
 20
-31.111
 21
-31.001
  0
LINE
  8
0
 10
-42.281
 11
-42.825
 20
-31.001
 21
-30.848
  0
LINE
  8
0
 10
-42.825
 11
-43.355
 20
-30.848
 21
-30.652
  0
LINE
  8
0
 10
-43.355
 11
-43.869
 20
-30.652
 21
-30.415
  0
LINE
  8
0
 10
-43.869
 11
-44.362
 20
-30.415
 21
-30.139
  0
LINE
  8
0
 10
-44.362
 11
-44.832
 20
-30.139
 21
-29.825
  0
LINE
  8
0
 10
-44.832
 11
-45.276
 20
-29.825
 21
-29.475
  0
LINE
  8
0
 10
-45.276
 11
-45.691
 20
-29.475
 21
-29.091
  0
LINE
  8
0
 10
-45.691
 11
-46.075
 20
-29.091
 21
-28.676
  0
LINE
  8
0
 10
-46.075
 11
-46.425
 20
-28.676
 21
-28.232
  0
LINE
  8
0
 10
-46.425
 11
-46.739
 20
-28.232
 21
-27.762
  0
LINE
  8
0
 10
-46.739
 11
-47.015
 20
-27.762
 21
-27.269
  0
LINE
  8
0
 10
-47.015
 11
-47.252
 20
-27.269
 21
-26.755
  0
LINE
  8
0
 10
-47.252
 11
-47.448
 20
-26.755
 21
-26.225
  0
LINE
  8
0
 10
-47.448
 11
-47.601
 20
-26.225
 21
-25.681
  0
LINE
  8
0
 10
-47.601
 11
-47.711
 20
-25.681
 21
-25.126
  0
LINE
  8
0
 10
-47.711
 11
-47.778
 20
-25.126
 21
-24.565
  0
LINE
  8
0
 10
-47.778
 11
-47.8
 20
-24.565
 21
-24
  0
LINE
  8
0
 10
-45.8
 11
-45.784
 20
-24
 21
-23.592
  0
LINE
  8
0
 10
-45.784
 11
-45.736
 20
-23.592
 21
-23.187
  0
LINE
  8
0
 10
-45.736
 11
-45.656
 20
-23.187
 21
-22.786
  0
LINE
  8
0
 10
-45.656
 11
-45.545
 20
-22.786
 21
-22.393
  0
LINE
  8
0
 10
-45.545
 11
-45.404
 20
-22.393
 21
-22.01
  0
LINE
  8
0
 10
-45.404
 11
-45.233
 20
-22.01
 21
-21.639
  0
LINE
  8
0
 10
-45.233
 11
-45.034
 20
-21.639
 21
-21.283
  0
LINE
  8
0
 10
-45.034
 11
-44.807
 20
-21.283
 21
-20.944
  0
LINE
  8
0
 10
-44.807
 11
-44.554
 20
-20.944
 21
-20.623
  0
LINE
  8
0
 10
-44.554
 11
-44.277
 20
-20.623
 21
-20.323
  0
LINE
  8
0
 10
-44.277
 11
-43.977
 20
-20.323
 21
-20.046
  0
LINE
  8
0
 10
-43.977
 11
-43.656
 20
-20.046
 21
-19.793
  0
LINE
  8
0
 10
-43.656
 11
-43.317
 20
-19.793
 21
-19.566
  0
LINE
  8
0
 10
-43.317
 11
-42.961
 20
-19.566
 21
-19.367
  0
LINE
  8
0
 10
-42.961
 11
-42.59
 20
-19.367
 21
-19.196
  0
LINE
  8
0
 10
-42.59
 11
-42.207
 20
-19.196
 21
-19.055
  0
LINE
  8
0
 10
-42.207
 11
-41.814
 20
-19.055
 21
-18.944
  0
LINE
  8
0
 10
-41.814
 11
-41.413
 20
-18.944
 21
-18.864
  0
LINE
  8
0
 10
-41.413
 11
-41.008
 20
-18.864
 21
-18.816
  0
LINE
  8
0
 10
-41.008
 11
-40.6
 20
-18.816
 21
-18.8
  0
LINE
  8
0
 10
-40.6
 11
-40.192
 20
-18.8
 21
-18.816
  0
LINE
  8
0
 10
-40.192
 11
-39.787
 20
-18.816
 21
-18.864
  0
LINE
  8
0
 10
-39.787
 11
-39.386
 20
-18.864
 21
-18.944
  0
LINE
  8
0
 10
-39.386
 11
-38.993
 20
-18.944
 21
-19.055
  0
LINE
  8
0
 10
-38.993
 11
-38.61
 20
-19.055
 21
-19.196
  0
LINE
  8
0
 10
-38.61
 11
-38.239
 20
-19.196
 21
-19.367
  0
LINE
  8
0
 10
-38.239
 11
-37.883
 20
-19.367
 21
-19.566
  0
LINE
  8
0
 10
-37.883
 11
-37.544
 20
-19.566
 21
-19.793
  0
LINE
  8
0
 10
-37.544
 11
-37.223
 20
-19.793
 21
-20.046
  0
LINE
  8
0
 10
-37.223
 11
-36.923
 20
-20.046
 21
-20.323
  0
LINE
  8
0
 10
-36.923
 11
-36.646
 20
-20.323
 21
-20.623
  0
LINE
  8
0
 10
-36.646
 11
-36.393
 20
-20.623
 21
-20.944
  0
LINE
  8
0
 10
-36.393
 11
-36.166
 20
-20.944
 21
-21.283
  0
LINE
  8
0
 10
-36.166
 11
-35.967
 20
-21.283
 21
-21.639
  0
LINE
  8
0
 10
-35.967
 11
-35.796
 20
-21.639
 21
-22.01
  0
LINE
  8
0
 10
-35.796
 11
-35.655
 20
-22.01
 21
-22.393
  0
LINE
  8
0
 10
-35.655
 11
-35.544
 20
-22.393
 21
-22.786
  0
LINE
  8
0
 10
-35.544
 11
-35.464
 20
-22.786
 21
-23.187
  0
LINE
  8
0
 10
-35.464
 11
-35.416
 20
-23.187
 21
-23.592
  0
LINE
  8
0
 10
-35.416
 11
-35.4
 20
-23.592
 21
-24
  0
LINE
  8
0
 10
-35.4
 11
-35.416
 20
-24
 21
-24.408
  0
LINE
  8
0
 10
-35.416
 11
-35.464
 20
-24.408
 21
-24.813
  0
LINE
  8
0
 10
-35.464
 11
-35.544
 20
-24.813
 21
-25.214
  0
LINE
  8
0
 10
-35.544
 11
-35.655
 20
-25.214
 21
-25.607
  0
LINE
  8
0
 10
-35.655
 11
-35.796
 20
-25.607
 21
-25.99
  0
LINE
  8
0
 10
-35.796
 11
-35.967
 20
-25.99
 21
-26.361
  0
LINE
  8
0
 10
-35.967
 11
-36.166
 20
-26.361
 21
-26.717
  0
LINE
  8
0
 10
-36.166
 11
-36.393
 20
-26.717
 21
-27.056
  0
LINE
  8
0
 10
-36.393
 11
-36.646
 20
-27.056
 21
-27.377
  0
LINE
  8
0
 10
-36.646
 11
-36.923
 20
-27.377
 21
-27.677
  0
LINE
  8
0
 10
-36.923
 11
-37.223
 20
-27.677
 21
-27.954
  0
LINE
  8
0
 10
-37.223
 11
-37.544
 20
-27.954
 21
-28.207
  0
LINE
  8
0
 10
-37.544
 11
-37.883
 20
-28.207
 21
-28.434
  0
LINE
  8
0
 10
-37.883
 11
-38.239
 20
-28.434
 21
-28.633
  0
LINE
  8
0
 10
-38.239
 11
-38.61
 20
-28.633
 21
-28.804
  0
LINE
  8
0
 10
-38.61
 11
-38.993
 20
-28.804
 21
-28.945
  0
LINE
  8
0
 10
-38.993
 11
-39.386
 20
-28.945
 21
-29.056
  0
LINE
  8
0
 10
-39.386
 11
-39.787
 20
-29.056
 21
-29.136
  0
LINE
  8
0
 10
-39.787
 11
-40.192
 20
-29.136
 21
-29.184
  0
LINE
  8
0
 10
-40.192
 11
-40.6
 20
-29.184
 21
-29.2
  0
LINE
  8
0
 10
-40.6
 11
-41.008
 20
-29.2
 21
-29.184
  0
LINE
  8
0
 10
-41.008
 11
-41.413
 20
-29.184
 21
-29.136
  0
LINE
  8
0
 10
-41.413
 11
-41.814
 20
-29.136
 21
-29.056
  0
LINE
  8
0
 10
-41.814
 11
-42.207
 20
-29.056
 21
-28.945
  0
LINE
  8
0
 10
-42.207
 11
-42.59
 20
-28.945
 21
-28.804
  0
LINE
  8
0
 10
-42.59
 11
-42.961
 20
-28.804
 21
-28.633
  0
LINE
  8
0
 10
-42.961
 11
-43.317
 20
-28.633
 21
-28.434
  0
LINE
  8
0
 10
-43.317
 11
-43.656
 20
-28.434
 21
-28.207
  0
LINE
  8
0
 10
-43.656
 11
-43.977
 20
-28.207
 21
-27.954
  0
LINE
  8
0
 10
-43.977
 11
-44.277
 20
-27.954
 21
-27.677
  0
LINE
  8
0
 10
-44.277
 11
-44.554
 20
-27.677
 21
-27.377
  0
LINE
  8
0
 10
-44.554
 11
-44.807
 20
-27.377
 21
-27.056
  0
LINE
  8
0
 10
-44.807
 11
-45.034
 20
-27.056
 21
-26.717
  0
LINE
  8
0
 10
-45.034
 11
-45.233
 20
-26.717
 21
-26.361
  0
LINE
  8
0
 10
-45.233
 11
-45.404
 20
-26.361
 21
-25.99
  0
LINE
  8
0
 10
-45.404
 11
-45.545
 20
-25.99
 21
-25.607
  0
LINE
  8
0
 10
-45.545
 11
-45.656
 20
-25.607
 21
-25.214
  0
LINE
  8
0
 10
-45.656
 11
-45.736
 20
-25.214
 21
-24.813
  0
LINE
  8
0
 10
-45.736
 11
-45.784
 20
-24.813
 21
-24.408
  0
LINE
  8
0
 10
-45.784
 11
-45.8
 20
-24.408
 21
-24
  0
LINE
  8
0
 10
-32.8
 11
-32.797
 20
-70
 21
-69.922
  0
LINE
  8
0
 10
-32.797
 11
-32.788
 20
-69.922
 21
-69.844
  0
LINE
  8
0
 10
-32.788
 11
-32.772
 20
-69.844
 21
-69.767
  0
LINE
  8
0
 10
-32.772
 11
-32.751
 20
-69.767
 21
-69.691
  0
LINE
  8
0
 10
-32.751
 11
-32.724
 20
-69.691
 21
-69.617
  0
LINE
  8
0
 10
-32.724
 11
-32.691
 20
-69.617
 21
-69.546
  0
LINE
  8
0
 10
-32.691
 11
-32.653
 20
-69.546
 21
-69.478
  0
LINE
  8
0
 10
-32.653
 11
-32.609
 20
-69.478
 21
-69.412
  0
LINE
  8
0
 10
-32.609
 11
-32.56
 20
-69.412
 21
-69.351
  0
LINE
  8
0
 10
-32.56
 11
-32.507
 20
-69.351
 21
-69.293
  0
LINE
  8
0
 10
-32.507
 11
-32.449
 20
-69.293
 21
-69.24
  0
LINE
  8
0
 10
-32.449
 11
-32.388
 20
-69.24
 21
-69.191
  0
LINE
  8
0
 10
-32.388
 11
-32.322
 20
-69.191
 21
-69.147
  0
LINE
  8
0
 10
-32.322
 11
-32.254
 20
-69.147
 21
-69.109
  0
LINE
  8
0
 10
-32.254
 11
-32.183
 20
-69.109
 21
-69.076
  0
LINE
  8
0
 10
-32.183
 11
-32.109
 20
-69.076
 21
-69.049
  0
LINE
  8
0
 10
-32.109
 11
-32.033
 20
-69.049
 21
-69.028
  0
LINE
  8
0
 10
-32.033
 11
-31.956
 20
-69.028
 21
-69.012
  0
LINE
  8
0
 10
-31.956
 11
-31.878
 20
-69.012
 21
-69.003
  0
LINE
  8
0
 10
-31.878
 11
-31.8
 20
-69.003
 21
-69
  0
LINE
  8
0
 10
-31.8
 11
-31.722
 20
-69
 21
-69.003
  0
LINE
  8
0
 10
-31.722
 11
-31.644
 20
-69.003
 21
-69.012
  0
LINE
  8
0
 10
-31.644
 11
-31.567
 20
-69.012
 21
-69.028
  0
LINE
  8
0
 10
-31.567
 11
-31.491
 20
-69.028
 21
-69.049
  0
LINE
  8
0
 10
-31.491
 11
-31.417
 20
-69.049
 21
-69.076
  0
LINE
  8
0
 10
-31.417
 11
-31.346
 20
-69.076
 21
-69.109
  0
LINE
  8
0
 10
-31.346
 11
-31.278
 20
-69.109
 21
-69.147
  0
LINE
  8
0
 10
-31.278
 11
-31.212
 20
-69.147
 21
-69.191
  0
LINE
  8
0
 10
-31.212
 11
-31.151
 20
-69.191
 21
-69.24
  0
LINE
  8
0
 10
-31.151
 11
-31.093
 20
-69.24
 21
-69.293
  0
LINE
  8
0
 10
-31.093
 11
-31.04
 20
-69.293
 21
-69.351
  0
LINE
  8
0
 10
-31.04
 11
-30.991
 20
-69.351
 21
-69.412
  0
LINE
  8
0
 10
-30.991
 11
-30.947
 20
-69.412
 21
-69.478
  0
LINE
  8
0
 10
-30.947
 11
-30.909
 20
-69.478
 21
-69.546
  0
LINE
  8
0
 10
-30.909
 11
-30.876
 20
-69.546
 21
-69.617
  0
LINE
  8
0
 10
-30.876
 11
-30.849
 20
-69.617
 21
-69.691
  0
LINE
  8
0
 10
-30.849
 11
-30.828
 20
-69.691
 21
-69.767
  0
LINE
  8
0
 10
-30.828
 11
-30.812
 20
-69.767
 21
-69.844
  0
LINE
  8
0
 10
-30.812
 11
-30.803
 20
-69.844
 21
-69.922
  0
LINE
  8
0
 10
-30.803
 11
-30.8
 20
-69.922
 21
-70
  0
LINE
  8
0
 10
-30.8
 11
-30.803
 20
-70
 21
-70.078
  0
LINE
  8
0
 10
-30.803
 11
-30.812
 20
-70.078
 21
-70.156
  0
LINE
  8
0
 10
-30.812
 11
-30.828
 20
-70.156
 21
-70.233
  0
LINE
  8
0
 10
-30.828
 11
-30.849
 20
-70.233
 21
-70.309
  0
LINE
  8
0
 10
-30.849
 11
-30.876
 20
-70.309
 21
-70.383
  0
LINE
  8
0
 10
-30.876
 11
-30.909
 20
-70.383
 21
-70.454
  0
LINE
  8
0
 10
-30.909
 11
-30.947
 20
-70.454
 21
-70.522
  0
LINE
  8
0
 10
-30.947
 11
-30.991
 20
-70.522
 21
-70.588
  0
LINE
  8
0
 10
-30.991
 11
-31.04
 20
-70.588
 21
-70.649
  0
LINE
  8
0
 10
-31.04
 11
-31.093
 20
-70.649
 21
-70.707
  0
LINE
  8
0
 10
-31.093
 11
-31.151
 20
-70.707
 21
-70.76
  0
LINE
  8
0
 10
-31.151
 11
-31.212
 20
-70.76
 21
-70.809
  0
LINE
  8
0
 10
-31.212
 11
-31.278
 20
-70.809
 21
-70.853
  0
LINE
  8
0
 10
-31.278
 11
-31.346
 20
-70.853
 21
-70.891
  0
LINE
  8
0
 10
-31.346
 11
-31.417
 20
-70.891
 21
-70.924
  0
LINE
  8
0
 10
-31.417
 11
-31.491
 20
-70.924
 21
-70.951
  0
LINE
  8
0
 10
-31.491
 11
-31.567
 20
-70.951
 21
-70.972
  0
LINE
  8
0
 10
-31.567
 11
-31.644
 20
-70.972
 21
-70.988
  0
LINE
  8
0
 10
-31.644
 11
-31.722
 20
-70.988
 21
-70.997
  0
LINE
  8
0
 10
-31.722
 11
-31.8
 20
-70.997
 21
-71
  0
LINE
  8
0
 10
-31.8
 11
-31.878
 20
-71
 21
-70.997
  0
LINE
  8
0
 10
-31.878
 11
-31.956
 20
-70.997
 21
-70.988
  0
LINE
  8
0
 10
-31.956
 11
-32.033
 20
-70.988
 21
-70.972
  0
LINE
  8
0
 10
-32.033
 11
-32.109
 20
-70.972
 21
-70.951
  0
LINE
  8
0
 10
-32.109
 11
-32.183
 20
-70.951
 21
-70.924
  0
LINE
  8
0
 10
-32.183
 11
-32.254
 20
-70.924
 21
-70.891
  0
LINE
  8
0
 10
-32.254
 11
-32.322
 20
-70.891
 21
-70.853
  0
LINE
  8
0
 10
-32.322
 11
-32.388
 20
-70.853
 21
-70.809
  0
LINE
  8
0
 10
-32.388
 11
-32.449
 20
-70.809
 21
-70.76
  0
LINE
  8
0
 10
-32.449
 11
-32.507
 20
-70.76
 21
-70.707
  0
LINE
  8
0
 10
-32.507
 11
-32.56
 20
-70.707
 21
-70.649
  0
LINE
  8
0
 10
-32.56
 11
-32.609
 20
-70.649
 21
-70.588
  0
LINE
  8
0
 10
-32.609
 11
-32.653
 20
-70.588
 21
-70.522
  0
LINE
  8
0
 10
-32.653
 11
-32.691
 20
-70.522
 21
-70.454
  0
LINE
  8
0
 10
-32.691
 11
-32.724
 20
-70.454
 21
-70.383
  0
LINE
  8
0
 10
-32.724
 11
-32.751
 20
-70.383
 21
-70.309
  0
LINE
  8
0
 10
-32.751
 11
-32.772
 20
-70.309
 21
-70.233
  0
LINE
  8
0
 10
-32.772
 11
-32.788
 20
-70.233
 21
-70.156
  0
LINE
  8
0
 10
-32.788
 11
-32.797
 20
-70.156
 21
-70.078
  0
LINE
  8
0
 10
-32.797
 11
-32.8
 20
-70.078
 21
-70
  0
LINE
  8
0
 10
-32.8
 11
-32.797
 20
-48
 21
-47.922
  0
LINE
  8
0
 10
-32.797
 11
-32.788
 20
-47.922
 21
-47.844
  0
LINE
  8
0
 10
-32.788
 11
-32.772
 20
-47.844
 21
-47.767
  0
LINE
  8
0
 10
-32.772
 11
-32.751
 20
-47.767
 21
-47.691
  0
LINE
  8
0
 10
-32.751
 11
-32.724
 20
-47.691
 21
-47.617
  0
LINE
  8
0
 10
-32.724
 11
-32.691
 20
-47.617
 21
-47.546
  0
LINE
  8
0
 10
-32.691
 11
-32.653
 20
-47.546
 21
-47.478
  0
LINE
  8
0
 10
-32.653
 11
-32.609
 20
-47.478
 21
-47.412
  0
LINE
  8
0
 10
-32.609
 11
-32.56
 20
-47.412
 21
-47.351
  0
LINE
  8
0
 10
-32.56
 11
-32.507
 20
-47.351
 21
-47.293
  0
LINE
  8
0
 10
-32.507
 11
-32.449
 20
-47.293
 21
-47.24
  0
LINE
  8
0
 10
-32.449
 11
-32.388
 20
-47.24
 21
-47.191
  0
LINE
  8
0
 10
-32.388
 11
-32.322
 20
-47.191
 21
-47.147
  0
LINE
  8
0
 10
-32.322
 11
-32.254
 20
-47.147
 21
-47.109
  0
LINE
  8
0
 10
-32.254
 11
-32.183
 20
-47.109
 21
-47.076
  0
LINE
  8
0
 10
-32.183
 11
-32.109
 20
-47.076
 21
-47.049
  0
LINE
  8
0
 10
-32.109
 11
-32.033
 20
-47.049
 21
-47.028
  0
LINE
  8
0
 10
-32.033
 11
-31.956
 20
-47.028
 21
-47.012
  0
LINE
  8
0
 10
-31.956
 11
-31.878
 20
-47.012
 21
-47.003
  0
LINE
  8
0
 10
-31.878
 11
-31.8
 20
-47.003
 21
-47
  0
LINE
  8
0
 10
-31.8
 11
-31.722
 20
-47
 21
-47.003
  0
LINE
  8
0
 10
-31.722
 11
-31.644
 20
-47.003
 21
-47.012
  0
LINE
  8
0
 10
-31.644
 11
-31.567
 20
-47.012
 21
-47.028
  0
LINE
  8
0
 10
-31.567
 11
-31.491
 20
-47.028
 21
-47.049
  0
LINE
  8
0
 10
-31.491
 11
-31.417
 20
-47.049
 21
-47.076
  0
LINE
  8
0
 10
-31.417
 11
-31.346
 20
-47.076
 21
-47.109
  0
LINE
  8
0
 10
-31.346
 11
-31.278
 20
-47.109
 21
-47.147
  0
LINE
  8
0
 10
-31.278
 11
-31.212
 20
-47.147
 21
-47.191
  0
LINE
  8
0
 10
-31.212
 11
-31.151
 20
-47.191
 21
-47.24
  0
LINE
  8
0
 10
-31.151
 11
-31.093
 20
-47.24
 21
-47.293
  0
LINE
  8
0
 10
-31.093
 11
-31.04
 20
-47.293
 21
-47.351
  0
LINE
  8
0
 10
-31.04
 11
-30.991
 20
-47.351
 21
-47.412
  0
LINE
  8
0
 10
-30.991
 11
-30.947
 20
-47.412
 21
-47.478
  0
LINE
  8
0
 10
-30.947
 11
-30.909
 20
-47.478
 21
-47.546
  0
LINE
  8
0
 10
-30.909
 11
-30.876
 20
-47.546
 21
-47.617
  0
LINE
  8
0
 10
-30.876
 11
-30.849
 20
-47.617
 21
-47.691
  0
LINE
  8
0
 10
-30.849
 11
-30.828
 20
-47.691
 21
-47.767
  0
LINE
  8
0
 10
-30.828
 11
-30.812
 20
-47.767
 21
-47.844
  0
LINE
  8
0
 10
-30.812
 11
-30.803
 20
-47.844
 21
-47.922
  0
LINE
  8
0
 10
-30.803
 11
-30.8
 20
-47.922
 21
-48
  0
LINE
  8
0
 10
-30.8
 11
-30.803
 20
-48
 21
-48.078
  0
LINE
  8
0
 10
-30.803
 11
-30.812
 20
-48.078
 21
-48.156
  0
LINE
  8
0
 10
-30.812
 11
-30.828
 20
-48.156
 21
-48.233
  0
LINE
  8
0
 10
-30.828
 11
-30.849
 20
-48.233
 21
-48.309
  0
LINE
  8
0
 10
-30.849
 11
-30.876
 20
-48.309
 21
-48.383
  0
LINE
  8
0
 10
-30.876
 11
-30.909
 20
-48.383
 21
-48.454
  0
LINE
  8
0
 10
-30.909
 11
-30.947
 20
-48.454
 21
-48.522
  0
LINE
  8
0
 10
-30.947
 11
-30.991
 20
-48.522
 21
-48.588
  0
LINE
  8
0
 10
-30.991
 11
-31.04
 20
-48.588
 21
-48.649
  0
LINE
  8
0
 10
-31.04
 11
-31.093
 20
-48.649
 21
-48.707
  0
LINE
  8
0
 10
-31.093
 11
-31.151
 20
-48.707
 21
-48.76
  0
LINE
  8
0
 10
-31.151
 11
-31.212
 20
-48.76
 21
-48.809
  0
LINE
  8
0
 10
-31.212
 11
-31.278
 20
-48.809
 21
-48.853
  0
LINE
  8
0
 10
-31.278
 11
-31.346
 20
-48.853
 21
-48.891
  0
LINE
  8
0
 10
-31.346
 11
-31.417
 20
-48.891
 21
-48.924
  0
LINE
  8
0
 10
-31.417
 11
-31.491
 20
-48.924
 21
-48.951
  0
LINE
  8
0
 10
-31.491
 11
-31.567
 20
-48.951
 21
-48.972
  0
LINE
  8
0
 10
-31.567
 11
-31.644
 20
-48.972
 21
-48.988
  0
LINE
  8
0
 10
-31.644
 11
-31.722
 20
-48.988
 21
-48.997
  0
LINE
  8
0
 10
-31.722
 11
-31.8
 20
-48.997
 21
-49
  0
LINE
  8
0
 10
-31.8
 11
-31.878
 20
-49
 21
-48.997
  0
LINE
  8
0
 10
-31.878
 11
-31.956
 20
-48.997
 21
-48.988
  0
LINE
  8
0
 10
-31.956
 11
-32.033
 20
-48.988
 21
-48.972
  0
LINE
  8
0
 10
-32.033
 11
-32.109
 20
-48.972
 21
-48.951
  0
LINE
  8
0
 10
-32.109
 11
-32.183
 20
-48.951
 21
-48.924
  0
LINE
  8
0
 10
-32.183
 11
-32.254
 20
-48.924
 21
-48.891
  0
LINE
  8
0
 10
-32.254
 11
-32.322
 20
-48.891
 21
-48.853
  0
LINE
  8
0
 10
-32.322
 11
-32.388
 20
-48.853
 21
-48.809
  0
LINE
  8
0
 10
-32.388
 11
-32.449
 20
-48.809
 21
-48.76
  0
LINE
  8
0
 10
-32.449
 11
-32.507
 20
-48.76
 21
-48.707
  0
LINE
  8
0
 10
-32.507
 11
-32.56
 20
-48.707
 21
-48.649
  0
LINE
  8
0
 10
-32.56
 11
-32.609
 20
-48.649
 21
-48.588
  0
LINE
  8
0
 10
-32.609
 11
-32.653
 20
-48.588
 21
-48.522
  0
LINE
  8
0
 10
-32.653
 11
-32.691
 20
-48.522
 21
-48.454
  0
LINE
  8
0
 10
-32.691
 11
-32.724
 20
-48.454
 21
-48.383
  0
LINE
  8
0
 10
-32.724
 11
-32.751
 20
-48.383
 21
-48.309
  0
LINE
  8
0
 10
-32.751
 11
-32.772
 20
-48.309
 21
-48.233
  0
LINE
  8
0
 10
-32.772
 11
-32.788
 20
-48.233
 21
-48.156
  0
LINE
  8
0
 10
-32.788
 11
-32.797
 20
-48.156
 21
-48.078
  0
LINE
  8
0
 10
-32.797
 11
-32.8
 20
-48.078
 21
-48
  0
LINE
  8
0
 10
-32.8
 11
-32.778
 20
-24
 21
-23.435
  0
LINE
  8
0
 10
-32.778
 11
-32.711
 20
-23.435
 21
-22.874
  0
LINE
  8
0
 10
-32.711
 11
-32.601
 20
-22.874
 21
-22.319
  0
LINE
  8
0
 10
-32.601
 11
-32.448
 20
-22.319
 21
-21.775
  0
LINE
  8
0
 10
-32.448
 11
-32.252
 20
-21.775
 21
-21.245
  0
LINE
  8
0
 10
-32.252
 11
-32.015
 20
-21.245
 21
-20.731
  0
LINE
  8
0
 10
-32.015
 11
-31.739
 20
-20.731
 21
-20.238
  0
LINE
  8
0
 10
-31.739
 11
-31.425
 20
-20.238
 21
-19.768
  0
LINE
  8
0
 10
-31.425
 11
-31.075
 20
-19.768
 21
-19.324
  0
LINE
  8
0
 10
-31.075
 11
-30.691
 20
-19.324
 21
-18.909
  0
LINE
  8
0
 10
-30.691
 11
-30.276
 20
-18.909
 21
-18.525
  0
LINE
  8
0
 10
-30.276
 11
-29.832
 20
-18.525
 21
-18.175
  0
LINE
  8
0
 10
-29.832
 11
-29.362
 20
-18.175
 21
-17.861
  0
LINE
  8
0
 10
-29.362
 11
-28.869
 20
-17.861
 21
-17.585
  0
LINE
  8
0
 10
-28.869
 11
-28.355
 20
-17.585
 21
-17.348
  0
LINE
  8
0
 10
-28.355
 11
-27.825
 20
-17.348
 21
-17.152
  0
LINE
  8
0
 10
-27.825
 11
-27.281
 20
-17.152
 21
-16.999
  0
LINE
  8
0
 10
-27.281
 11
-26.726
 20
-16.999
 21
-16.889
  0
LINE
  8
0
 10
-26.726
 11
-26.165
 20
-16.889
 21
-16.822
  0
LINE
  8
0
 10
-26.165
 11
-25.6
 20
-16.822
 21
-16.8
  0
LINE
  8
0
 10
-25.6
 11
-25.035
 20
-16.8
 21
-16.822
  0
LINE
  8
0
 10
-25.035
 11
-24.474
 20
-16.822
 21
-16.889
  0
LINE
  8
0
 10
-24.474
 11
-23.919
 20
-16.889
 21
-16.999
  0
LINE
  8
0
 10
-23.919
 11
-23.375
 20
-16.999
 21
-17.152
  0
LINE
  8
0
 10
-23.375
 11
-22.845
 20
-17.152
 21
-17.348
  0
LINE
  8
0
 10
-22.845
 11
-22.331
 20
-17.348
 21
-17.585
  0
LINE
  8
0
 10
-22.331
 11
-21.838
 20
-17.585
 21
-17.861
  0
LINE
  8
0
 10
-21.838
 11
-21.368
 20
-17.861
 21
-18.175
  0
LINE
  8
0
 10
-21.368
 11
-20.924
 20
-18.175
 21
-18.525
  0
LINE
  8
0
 10
-20.924
 11
-20.509
 20
-18.525
 21
-18.909
  0
LINE
  8
0
 10
-20.509
 11
-20.125
 20
-18.909
 21
-19.324
  0
LINE
  8
0
 10
-20.125
 11
-19.775
 20
-19.324
 21
-19.768
  0
LINE
  8
0
 10
-19.775
 11
-19.461
 20
-19.768
 21
-20.238
  0
LINE
  8
0
 10
-19.461
 11
-19.185
 20
-20.238
 21
-20.731
  0
LINE
  8
0
 10
-19.185
 11
-18.948
 20
-20.731
 21
-21.245
  0
LINE
  8
0
 10
-18.948
 11
-18.752
 20
-21.245
 21
-21.775
  0
LINE
  8
0
 10
-18.752
 11
-18.599
 20
-21.775
 21
-22.319
  0
LINE
  8
0
 10
-18.599
 11
-18.489
 20
-22.319
 21
-22.874
  0
LINE
  8
0
 10
-18.489
 11
-18.422
 20
-22.874
 21
-23.435
  0
LINE
  8
0
 10
-18.422
 11
-18.4
 20
-23.435
 21
-24
  0
LINE
  8
0
 10
-18.4
 11
-18.422
 20
-24
 21
-24.565
  0
LINE
  8
0
 10
-18.422
 11
-18.489
 20
-24.565
 21
-25.126
  0
LINE
  8
0
 10
-18.489
 11
-18.599
 20
-25.126
 21
-25.681
  0
LINE
  8
0
 10
-18.599
 11
-18.752
 20
-25.681
 21
-26.225
  0
LINE
  8
0
 10
-18.752
 11
-18.948
 20
-26.225
 21
-26.755
  0
LINE
  8
0
 10
-18.948
 11
-19.185
 20
-26.755
 21
-27.269
  0
LINE
  8
0
 10
-19.185
 11
-19.461
 20
-27.269
 21
-27.762
  0
LINE
  8
0
 10
-19.461
 11
-19.775
 20
-27.762
 21
-28.232
  0
LINE
  8
0
 10
-19.775
 11
-20.125
 20
-28.232
 21
-28.676
  0
LINE
  8
0
 10
-20.125
 11
-20.509
 20
-28.676
 21
-29.091
  0
LINE
  8
0
 10
-20.509
 11
-20.924
 20
-29.091
 21
-29.475
  0
LINE
  8
0
 10
-20.924
 11
-21.368
 20
-29.475
 21
-29.825
  0
LINE
  8
0
 10
-21.368
 11
-21.838
 20
-29.825
 21
-30.139
  0
LINE
  8
0
 10
-21.838
 11
-22.331
 20
-30.139
 21
-30.415
  0
LINE
  8
0
 10
-22.331
 11
-22.845
 20
-30.415
 21
-30.652
  0
LINE
  8
0
 10
-22.845
 11
-23.375
 20
-30.652
 21
-30.848
  0
LINE
  8
0
 10
-23.375
 11
-23.919
 20
-30.848
 21
-31.001
  0
LINE
  8
0
 10
-23.919
 11
-24.474
 20
-31.001
 21
-31.111
  0
LINE
  8
0
 10
-24.474
 11
-25.035
 20
-31.111
 21
-31.178
  0
LINE
  8
0
 10
-25.035
 11
-25.6
 20
-31.178
 21
-31.2
  0
LINE
  8
0
 10
-25.6
 11
-26.165
 20
-31.2
 21
-31.178
  0
LINE
  8
0
 10
-26.165
 11
-26.726
 20
-31.178
 21
-31.111
  0
LINE
  8
0
 10
-26.726
 11
-27.281
 20
-31.111
 21
-31.001
  0
LINE
  8
0
 10
-27.281
 11
-27.825
 20
-31.001
 21
-30.848
  0
LINE
  8
0
 10
-27.825
 11
-28.355
 20
-30.848
 21
-30.652
  0
LINE
  8
0
 10
-28.355
 11
-28.869
 20
-30.652
 21
-30.415
  0
LINE
  8
0
 10
-28.869
 11
-29.362
 20
-30.415
 21
-30.139
  0
LINE
  8
0
 10
-29.362
 11
-29.832
 20
-30.139
 21
-29.825
  0
LINE
  8
0
 10
-29.832
 11
-30.276
 20
-29.825
 21
-29.475
  0
LINE
  8
0
 10
-30.276
 11
-30.691
 20
-29.475
 21
-29.091
  0
LINE
  8
0
 10
-30.691
 11
-31.075
 20
-29.091
 21
-28.676
  0
LINE
  8
0
 10
-31.075
 11
-31.425
 20
-28.676
 21
-28.232
  0
LINE
  8
0
 10
-31.425
 11
-31.739
 20
-28.232
 21
-27.762
  0
LINE
  8
0
 10
-31.739
 11
-32.015
 20
-27.762
 21
-27.269
  0
LINE
  8
0
 10
-32.015
 11
-32.252
 20
-27.269
 21
-26.755
  0
LINE
  8
0
 10
-32.252
 11
-32.448
 20
-26.755
 21
-26.225
  0
LINE
  8
0
 10
-32.448
 11
-32.601
 20
-26.225
 21
-25.681
  0
LINE
  8
0
 10
-32.601
 11
-32.711
 20
-25.681
 21
-25.126
  0
LINE
  8
0
 10
-32.711
 11
-32.778
 20
-25.126
 21
-24.565
  0
LINE
  8
0
 10
-32.778
 11
-32.8
 20
-24.565
 21
-24
  0
LINE
  8
0
 10
-30.8
 11
-30.784
 20
-24
 21
-23.592
  0
LINE
  8
0
 10
-30.784
 11
-30.736
 20
-23.592
 21
-23.187
  0
LINE
  8
0
 10
-30.736
 11
-30.656
 20
-23.187
 21
-22.786
  0
LINE
  8
0
 10
-30.656
 11
-30.545
 20
-22.786
 21
-22.393
  0
LINE
  8
0
 10
-30.545
 11
-30.404
 20
-22.393
 21
-22.01
  0
LINE
  8
0
 10
-30.404
 11
-30.233
 20
-22.01
 21
-21.639
  0
LINE
  8
0
 10
-30.233
 11
-30.034
 20
-21.639
 21
-21.283
  0
LINE
  8
0
 10
-30.034
 11
-29.807
 20
-21.283
 21
-20.944
  0
LINE
  8
0
 10
-29.807
 11
-29.554
 20
-20.944
 21
-20.623
  0
LINE
  8
0
 10
-29.554
 11
-29.277
 20
-20.623
 21
-20.323
  0
LINE
  8
0
 10
-29.277
 11
-28.977
 20
-20.323
 21
-20.046
  0
LINE
  8
0
 10
-28.977
 11
-28.656
 20
-20.046
 21
-19.793
  0
LINE
  8
0
 10
-28.656
 11
-28.317
 20
-19.793
 21
-19.566
  0
LINE
  8
0
 10
-28.317
 11
-27.961
 20
-19.566
 21
-19.367
  0
LINE
  8
0
 10
-27.961
 11
-27.59
 20
-19.367
 21
-19.196
  0
LINE
  8
0
 10
-27.59
 11
-27.207
 20
-19.196
 21
-19.055
  0
LINE
  8
0
 10
-27.207
 11
-26.814
 20
-19.055
 21
-18.944
  0
LINE
  8
0
 10
-26.814
 11
-26.413
 20
-18.944
 21
-18.864
  0
LINE
  8
0
 10
-26.413
 11
-26.008
 20
-18.864
 21
-18.816
  0
LINE
  8
0
 10
-26.008
 11
-25.6
 20
-18.816
 21
-18.8
  0
LINE
  8
0
 10
-25.6
 11
-25.192
 20
-18.8
 21
-18.816
  0
LINE
  8
0
 10
-25.192
 11
-24.787
 20
-18.816
 21
-18.864
  0
LINE
  8
0
 10
-24.787
 11
-24.386
 20
-18.864
 21
-18.944
  0
LINE
  8
0
 10
-24.386
 11
-23.993
 20
-18.944
 21
-19.055
  0
LINE
  8
0
 10
-23.993
 11
-23.61
 20
-19.055
 21
-19.196
  0
LINE
  8
0
 10
-23.61
 11
-23.239
 20
-19.196
 21
-19.367
  0
LINE
  8
0
 10
-23.239
 11
-22.883
 20
-19.367
 21
-19.566
  0
LINE
  8
0
 10
-22.883
 11
-22.544
 20
-19.566
 21
-19.793
  0
LINE
  8
0
 10
-22.544
 11
-22.223
 20
-19.793
 21
-20.046
  0
LINE
  8
0
 10
-22.223
 11
-21.923
 20
-20.046
 21
-20.323
  0
LINE
  8
0
 10
-21.923
 11
-21.646
 20
-20.323
 21
-20.623
  0
LINE
  8
0
 10
-21.646
 11
-21.393
 20
-20.623
 21
-20.944
  0
LINE
  8
0
 10
-21.393
 11
-21.166
 20
-20.944
 21
-21.283
  0
LINE
  8
0
 10
-21.166
 11
-20.967
 20
-21.283
 21
-21.639
  0
LINE
  8
0
 10
-20.967
 11
-20.796
 20
-21.639
 21
-22.01
  0
LINE
  8
0
 10
-20.796
 11
-20.655
 20
-22.01
 21
-22.393
  0
LINE
  8
0
 10
-20.655
 11
-20.544
 20
-22.393
 21
-22.786
  0
LINE
  8
0
 10
-20.544
 11
-20.464
 20
-22.786
 21
-23.187
  0
LINE
  8
0
 10
-20.464
 11
-20.416
 20
-23.187
 21
-23.592
  0
LINE
  8
0
 10
-20.416
 11
-20.4
 20
-23.592
 21
-24
  0
LINE
  8
0
 10
-20.4
 11
-20.416
 20
-24
 21
-24.408
  0
LINE
  8
0
 10
-20.416
 11
-20.464
 20
-24.408
 21
-24.813
  0
LINE
  8
0
 10
-20.464
 11
-20.544
 20
-24.813
 21
-25.214
  0
LINE
  8
0
 10
-20.544
 11
-20.655
 20
-25.214
 21
-25.607
  0
LINE
  8
0
 10
-20.655
 11
-20.796
 20
-25.607
 21
-25.99
  0
LINE
  8
0
 10
-20.796
 11
-20.967
 20
-25.99
 21
-26.361
  0
LINE
  8
0
 10
-20.967
 11
-21.166
 20
-26.361
 21
-26.717
  0
LINE
  8
0
 10
-21.166
 11
-21.393
 20
-26.717
 21
-27.056
  0
LINE
  8
0
 10
-21.393
 11
-21.646
 20
-27.056
 21
-27.377
  0
LINE
  8
0
 10
-21.646
 11
-21.923
 20
-27.377
 21
-27.677
  0
LINE
  8
0
 10
-21.923
 11
-22.223
 20
-27.677
 21
-27.954
  0
LINE
  8
0
 10
-22.223
 11
-22.544
 20
-27.954
 21
-28.207
  0
LINE
  8
0
 10
-22.544
 11
-22.883
 20
-28.207
 21
-28.434
  0
LINE
  8
0
 10
-22.883
 11
-23.239
 20
-28.434
 21
-28.633
  0
LINE
  8
0
 10
-23.239
 11
-23.61
 20
-28.633
 21
-28.804
  0
LINE
  8
0
 10
-23.61
 11
-23.993
 20
-28.804
 21
-28.945
  0
LINE
  8
0
 10
-23.993
 11
-24.386
 20
-28.945
 21
-29.056
  0
LINE
  8
0
 10
-24.386
 11
-24.787
 20
-29.056
 21
-29.136
  0
LINE
  8
0
 10
-24.787
 11
-25.192
 20
-29.136
 21
-29.184
  0
LINE
  8
0
 10
-25.192
 11
-25.6
 20
-29.184
 21
-29.2
  0
LINE
  8
0
 10
-25.6
 11
-26.008
 20
-29.2
 21
-29.184
  0
LINE
  8
0
 10
-26.008
 11
-26.413
 20
-29.184
 21
-29.136
  0
LINE
  8
0
 10
-26.413
 11
-26.814
 20
-29.136
 21
-29.056
  0
LINE
  8
0
 10
-26.814
 11
-27.207
 20
-29.056
 21
-28.945
  0
LINE
  8
0
 10
-27.207
 11
-27.59
 20
-28.945
 21
-28.804
  0
LINE
  8
0
 10
-27.59
 11
-27.961
 20
-28.804
 21
-28.633
  0
LINE
  8
0
 10
-27.961
 11
-28.317
 20
-28.633
 21
-28.434
  0
LINE
  8
0
 10
-28.317
 11
-28.656
 20
-28.434
 21
-28.207
  0
LINE
  8
0
 10
-28.656
 11
-28.977
 20
-28.207
 21
-27.954
  0
LINE
  8
0
 10
-28.977
 11
-29.277
 20
-27.954
 21
-27.677
  0
LINE
  8
0
 10
-29.277
 11
-29.554
 20
-27.677
 21
-27.377
  0
LINE
  8
0
 10
-29.554
 11
-29.807
 20
-27.377
 21
-27.056
  0
LINE
  8
0
 10
-29.807
 11
-30.034
 20
-27.056
 21
-26.717
  0
LINE
  8
0
 10
-30.034
 11
-30.233
 20
-26.717
 21
-26.361
  0
LINE
  8
0
 10
-30.233
 11
-30.404
 20
-26.361
 21
-25.99
  0
LINE
  8
0
 10
-30.404
 11
-30.545
 20
-25.99
 21
-25.607
  0
LINE
  8
0
 10
-30.545
 11
-30.656
 20
-25.607
 21
-25.214
  0
LINE
  8
0
 10
-30.656
 11
-30.736
 20
-25.214
 21
-24.813
  0
LINE
  8
0
 10
-30.736
 11
-30.784
 20
-24.813
 21
-24.408
  0
LINE
  8
0
 10
-30.784
 11
-30.8
 20
-24.408
 21
-24
  0
LINE
  8
0
 10
-29.8
 11
-29.8
 20
-76.3
 21
-63.7
  0
LINE
  8
0
 10
-29.8
 11
-6.3
 20
-63.7
 21
-63.7
  0
LINE
  8
0
 10
-6.3
 11
-6.3
 20
-63.7
 21
-76.3
  0
LINE
  8
0
 10
-6.3
 11
-29.8
 20
-76.3
 21
-76.3
  0
LINE
  8
0
 10
-29.8
 11
-29.8
 20
-54.3
 21
-41.7
  0
LINE
  8
0
 10
-29.8
 11
-6.3
 20
-41.7
 21
-41.7
  0
LINE
  8
0
 10
-6.3
 11
-6.3
 20
-41.7
 21
-54.3
  0
LINE
  8
0
 10
-6.3
 11
-29.8
 20
-54.3
 21
-54.3
  0
LINE
  8
0
 10
-21.45
 11
-21.45
 20
-1.45
 21
1.45
  0
LINE
  8
0
 10
-21.45
 11
-18.55
 20
1.45
 21
1.45
  0
LINE
  8
0
 10
-18.55
 11
-18.55
 20
1.45
 21
-1.45
  0
LINE
  8
0
 10
-18.55
 11
-21.45
 20
-1.45
 21
-1.45
  0
LINE
  8
0
 10
-15.6
 11
-15.6
 20
-25.6
 21
-22.4
  0
LINE
  8
0
 10
-15.6
 11
-12.6
 20
-22.4
 21
-22.5
  0
LINE
  8
0
 10
-12.6
 11
-12.6
 20
-22.5
 21
-14
  0
LINE
  8
0
 10
-12.6
 11
27.4
 20
-14
 21
-14
  0
LINE
  8
0
 10
27.4
 11
27.4
 20
-14
 21
-22.5
  0
LINE
  8
0
 10
27.4
 11
30.4
 20
-22.5
 21
-22.4
  0
LINE
  8
0
 10
30.4
 11
30.4
 20
-22.4
 21
-25.6
  0
LINE
  8
0
 10
30.4
 11
27.4
 20
-25.6
 21
-25.5
  0
LINE
  8
0
 10
27.4
 11
27.4
 20
-25.5
 21
-34
  0
LINE
  8
0
 10
27.4
 11
-12.6
 20
-34
 21
-34
  0
LINE
  8
0
 10
-12.6
 11
-12.6
 20
-34
 21
-25.5
  0
LINE
  8
0
 10
-12.6
 11
-15.6
 20
-25.5
 21
-25.6
  0
LINE
  8
0
 10
-12.5
 11
-12.5
 20
-12.5
 21
12.5
  0
LINE
  8
0
 10
-12.5
 11
27.5
 20
12.5
 21
12.5
  0
LINE
  8
0
 10
27.5
 11
27.892
 20
12.5
 21
12.485
  0
LINE
  8
0
 10
27.892
 11
28.282
 20
12.485
 21
12.438
  0
LINE
  8
0
 10
28.282
 11
28.667
 20
12.438
 21
12.362
  0
LINE
  8
0
 10
28.667
 11
29.045
 20
12.362
 21
12.255
  0
LINE
  8
0
 10
29.045
 11
29.413
 20
12.255
 21
12.119
  0
LINE
  8
0
 10
29.413
 11
29.77
 20
12.119
 21
11.955
  0
LINE
  8
0
 10
29.77
 11
30.112
 20
11.955
 21
11.763
  0
LINE
  8
0
 10
30.112
 11
30.439
 20
11.763
 21
11.545
  0
LINE
  8
0
 10
30.439
 11
30.747
 20
11.545
 21
11.302
  0
LINE
  8
0
 10
30.747
 11
31.036
 20
11.302
 21
11.036
  0
LINE
  8
0
 10
31.036
 11
31.302
 20
11.036
 21
10.747
  0
LINE
  8
0
 10
31.302
 11
31.545
 20
10.747
 21
10.439
  0
LINE
  8
0
 10
31.545
 11
31.763
 20
10.439
 21
10.112
  0
LINE
  8
0
 10
31.763
 11
31.955
 20
10.112
 21
9.77
  0
LINE
  8
0
 10
31.955
 11
32.119
 20
9.77
 21
9.413
  0
LINE
  8
0
 10
32.119
 11
32.255
 20
9.413
 21
9.045
  0
LINE
  8
0
 10
32.255
 11
32.362
 20
9.045
 21
8.667
  0
LINE
  8
0
 10
32.362
 11
32.438
 20
8.667
 21
8.282
  0
LINE
  8
0
 10
32.438
 11
32.485
 20
8.282
 21
7.892
  0
LINE
  8
0
 10
32.485
 11
32.5
 20
7.892
 21
7.5
  0
LINE
  8
0
 10
32.5
 11
32.5
 20
7.5
 21
-7.5
  0
LINE
  8
0
 10
32.5
 11
32.485
 20
-7.5
 21
-7.892
  0
LINE
  8
0
 10
32.485
 11
32.438
 20
-7.892
 21
-8.282
  0
LINE
  8
0
 10
32.438
 11
32.362
 20
-8.282
 21
-8.667
  0
LINE
  8
0
 10
32.362
 11
32.255
 20
-8.667
 21
-9.045
  0
LINE
  8
0
 10
32.255
 11
32.119
 20
-9.045
 21
-9.413
  0
LINE
  8
0
 10
32.119
 11
31.955
 20
-9.413
 21
-9.77
  0
LINE
  8
0
 10
31.955
 11
31.763
 20
-9.77
 21
-10.112
  0
LINE
  8
0
 10
31.763
 11
31.545
 20
-10.112
 21
-10.439
  0
LINE
  8
0
 10
31.545
 11
31.302
 20
-10.439
 21
-10.747
  0
LINE
  8
0
 10
31.302
 11
31.036
 20
-10.747
 21
-11.036
  0
LINE
  8
0
 10
31.036
 11
30.747
 20
-11.036
 21
-11.302
  0
LINE
  8
0
 10
30.747
 11
30.439
 20
-11.302
 21
-11.545
  0
LINE
  8
0
 10
30.439
 11
30.112
 20
-11.545
 21
-11.763
  0
LINE
  8
0
 10
30.112
 11
29.77
 20
-11.763
 21
-11.955
  0
LINE
  8
0
 10
29.77
 11
29.413
 20
-11.955
 21
-12.119
  0
LINE
  8
0
 10
29.413
 11
29.045
 20
-12.119
 21
-12.255
  0
LINE
  8
0
 10
29.045
 11
28.667
 20
-12.255
 21
-12.362
  0
LINE
  8
0
 10
28.667
 11
28.282
 20
-12.362
 21
-12.438
  0
LINE
  8
0
 10
28.282
 11
27.892
 20
-12.438
 21
-12.485
  0
LINE
  8
0
 10
27.892
 11
27.5
 20
-12.485
 21
-12.5
  0
LINE
  8
0
 10
27.5
 11
-12.5
 20
-12.5
 21
-12.5
  0
LINE
  8
0
 10
-5.3
 11
-5.297
 20
-70
 21
-69.922
  0
LINE
  8
0
 10
-5.297
 11
-5.288
 20
-69.922
 21
-69.844
  0
LINE
  8
0
 10
-5.288
 11
-5.272
 20
-69.844
 21
-69.767
  0
LINE
  8
0
 10
-5.272
 11
-5.251
 20
-69.767
 21
-69.691
  0
LINE
  8
0
 10
-5.251
 11
-5.224
 20
-69.691
 21
-69.617
  0
LINE
  8
0
 10
-5.224
 11
-5.191
 20
-69.617
 21
-69.546
  0
LINE
  8
0
 10
-5.191
 11
-5.153
 20
-69.546
 21
-69.478
  0
LINE
  8
0
 10
-5.153
 11
-5.109
 20
-69.478
 21
-69.412
  0
LINE
  8
0
 10
-5.109
 11
-5.06
 20
-69.412
 21
-69.351
  0
LINE
  8
0
 10
-5.06
 11
-5.007
 20
-69.351
 21
-69.293
  0
LINE
  8
0
 10
-5.007
 11
-4.949
 20
-69.293
 21
-69.24
  0
LINE
  8
0
 10
-4.949
 11
-4.888
 20
-69.24
 21
-69.191
  0
LINE
  8
0
 10
-4.888
 11
-4.822
 20
-69.191
 21
-69.147
  0
LINE
  8
0
 10
-4.822
 11
-4.754
 20
-69.147
 21
-69.109
  0
LINE
  8
0
 10
-4.754
 11
-4.683
 20
-69.109
 21
-69.076
  0
LINE
  8
0
 10
-4.683
 11
-4.609
 20
-69.076
 21
-69.049
  0
LINE
  8
0
 10
-4.609
 11
-4.533
 20
-69.049
 21
-69.028
  0
LINE
  8
0
 10
-4.533
 11
-4.456
 20
-69.028
 21
-69.012
  0
LINE
  8
0
 10
-4.456
 11
-4.378
 20
-69.012
 21
-69.003
  0
LINE
  8
0
 10
-4.378
 11
-4.3
 20
-69.003
 21
-69
  0
LINE
  8
0
 10
-4.3
 11
-4.222
 20
-69
 21
-69.003
  0
LINE
  8
0
 10
-4.222
 11
-4.144
 20
-69.003
 21
-69.012
  0
LINE
  8
0
 10
-4.144
 11
-4.067
 20
-69.012
 21
-69.028
  0
LINE
  8
0
 10
-4.067
 11
-3.991
 20
-69.028
 21
-69.049
  0
LINE
  8
0
 10
-3.991
 11
-3.917
 20
-69.049
 21
-69.076
  0
LINE
  8
0
 10
-3.917
 11
-3.846
 20
-69.076
 21
-69.109
  0
LINE
  8
0
 10
-3.846
 11
-3.778
 20
-69.109
 21
-69.147
  0
LINE
  8
0
 10
-3.778
 11
-3.712
 20
-69.147
 21
-69.191
  0
LINE
  8
0
 10
-3.712
 11
-3.651
 20
-69.191
 21
-69.24
  0
LINE
  8
0
 10
-3.651
 11
-3.593
 20
-69.24
 21
-69.293
  0
LINE
  8
0
 10
-3.593
 11
-3.54
 20
-69.293
 21
-69.351
  0
LINE
  8
0
 10
-3.54
 11
-3.491
 20
-69.351
 21
-69.412
  0
LINE
  8
0
 10
-3.491
 11
-3.447
 20
-69.412
 21
-69.478
  0
LINE
  8
0
 10
-3.447
 11
-3.409
 20
-69.478
 21
-69.546
  0
LINE
  8
0
 10
-3.409
 11
-3.376
 20
-69.546
 21
-69.617
  0
LINE
  8
0
 10
-3.376
 11
-3.349
 20
-69.617
 21
-69.691
  0
LINE
  8
0
 10
-3.349
 11
-3.328
 20
-69.691
 21
-69.767
  0
LINE
  8
0
 10
-3.328
 11
-3.312
 20
-69.767
 21
-69.844
  0
LINE
  8
0
 10
-3.312
 11
-3.303
 20
-69.844
 21
-69.922
  0
LINE
  8
0
 10
-3.303
 11
-3.3
 20
-69.922
 21
-70
  0
LINE
  8
0
 10
-3.3
 11
-3.303
 20
-70
 21
-70.078
  0
LINE
  8
0
 10
-3.303
 11
-3.312
 20
-70.078
 21
-70.156
  0
LINE
  8
0
 10
-3.312
 11
-3.328
 20
-70.156
 21
-70.233
  0
LINE
  8
0
 10
-3.328
 11
-3.349
 20
-70.233
 21
-70.309
  0
LINE
  8
0
 10
-3.349
 11
-3.376
 20
-70.309
 21
-70.383
  0
LINE
  8
0
 10
-3.376
 11
-3.409
 20
-70.383
 21
-70.454
  0
LINE
  8
0
 10
-3.409
 11
-3.447
 20
-70.454
 21
-70.522
  0
LINE
  8
0
 10
-3.447
 11
-3.491
 20
-70.522
 21
-70.588
  0
LINE
  8
0
 10
-3.491
 11
-3.54
 20
-70.588
 21
-70.649
  0
LINE
  8
0
 10
-3.54
 11
-3.593
 20
-70.649
 21
-70.707
  0
LINE
  8
0
 10
-3.593
 11
-3.651
 20
-70.707
 21
-70.76
  0
LINE
  8
0
 10
-3.651
 11
-3.712
 20
-70.76
 21
-70.809
  0
LINE
  8
0
 10
-3.712
 11
-3.778
 20
-70.809
 21
-70.853
  0
LINE
  8
0
 10
-3.778
 11
-3.846
 20
-70.853
 21
-70.891
  0
LINE
  8
0
 10
-3.846
 11
-3.917
 20
-70.891
 21
-70.924
  0
LINE
  8
0
 10
-3.917
 11
-3.991
 20
-70.924
 21
-70.951
  0
LINE
  8
0
 10
-3.991
 11
-4.067
 20
-70.951
 21
-70.972
  0
LINE
  8
0
 10
-4.067
 11
-4.144
 20
-70.972
 21
-70.988
  0
LINE
  8
0
 10
-4.144
 11
-4.222
 20
-70.988
 21
-70.997
  0
LINE
  8
0
 10
-4.222
 11
-4.3
 20
-70.997
 21
-71
  0
LINE
  8
0
 10
-4.3
 11
-4.378
 20
-71
 21
-70.997
  0
LINE
  8
0
 10
-4.378
 11
-4.456
 20
-70.997
 21
-70.988
  0
LINE
  8
0
 10
-4.456
 11
-4.533
 20
-70.988
 21
-70.972
  0
LINE
  8
0
 10
-4.533
 11
-4.609
 20
-70.972
 21
-70.951
  0
LINE
  8
0
 10
-4.609
 11
-4.683
 20
-70.951
 21
-70.924
  0
LINE
  8
0
 10
-4.683
 11
-4.754
 20
-70.924
 21
-70.891
  0
LINE
  8
0
 10
-4.754
 11
-4.822
 20
-70.891
 21
-70.853
  0
LINE
  8
0
 10
-4.822
 11
-4.888
 20
-70.853
 21
-70.809
  0
LINE
  8
0
 10
-4.888
 11
-4.949
 20
-70.809
 21
-70.76
  0
LINE
  8
0
 10
-4.949
 11
-5.007
 20
-70.76
 21
-70.707
  0
LINE
  8
0
 10
-5.007
 11
-5.06
 20
-70.707
 21
-70.649
  0
LINE
  8
0
 10
-5.06
 11
-5.109
 20
-70.649
 21
-70.588
  0
LINE
  8
0
 10
-5.109
 11
-5.153
 20
-70.588
 21
-70.522
  0
LINE
  8
0
 10
-5.153
 11
-5.191
 20
-70.522
 21
-70.454
  0
LINE
  8
0
 10
-5.191
 11
-5.224
 20
-70.454
 21
-70.383
  0
LINE
  8
0
 10
-5.224
 11
-5.251
 20
-70.383
 21
-70.309
  0
LINE
  8
0
 10
-5.251
 11
-5.272
 20
-70.309
 21
-70.233
  0
LINE
  8
0
 10
-5.272
 11
-5.288
 20
-70.233
 21
-70.156
  0
LINE
  8
0
 10
-5.288
 11
-5.297
 20
-70.156
 21
-70.078
  0
LINE
  8
0
 10
-5.297
 11
-5.3
 20
-70.078
 21
-70
  0
LINE
  8
0
 10
-5.3
 11
-5.297
 20
-48
 21
-47.922
  0
LINE
  8
0
 10
-5.297
 11
-5.288
 20
-47.922
 21
-47.844
  0
LINE
  8
0
 10
-5.288
 11
-5.272
 20
-47.844
 21
-47.767
  0
LINE
  8
0
 10
-5.272
 11
-5.251
 20
-47.767
 21
-47.691
  0
LINE
  8
0
 10
-5.251
 11
-5.224
 20
-47.691
 21
-47.617
  0
LINE
  8
0
 10
-5.224
 11
-5.191
 20
-47.617
 21
-47.546
  0
LINE
  8
0
 10
-5.191
 11
-5.153
 20
-47.546
 21
-47.478
  0
LINE
  8
0
 10
-5.153
 11
-5.109
 20
-47.478
 21
-47.412
  0
LINE
  8
0
 10
-5.109
 11
-5.06
 20
-47.412
 21
-47.351
  0
LINE
  8
0
 10
-5.06
 11
-5.007
 20
-47.351
 21
-47.293
  0
LINE
  8
0
 10
-5.007
 11
-4.949
 20
-47.293
 21
-47.24
  0
LINE
  8
0
 10
-4.949
 11
-4.888
 20
-47.24
 21
-47.191
  0
LINE
  8
0
 10
-4.888
 11
-4.822
 20
-47.191
 21
-47.147
  0
LINE
  8
0
 10
-4.822
 11
-4.754
 20
-47.147
 21
-47.109
  0
LINE
  8
0
 10
-4.754
 11
-4.683
 20
-47.109
 21
-47.076
  0
LINE
  8
0
 10
-4.683
 11
-4.609
 20
-47.076
 21
-47.049
  0
LINE
  8
0
 10
-4.609
 11
-4.533
 20
-47.049
 21
-47.028
  0
LINE
  8
0
 10
-4.533
 11
-4.456
 20
-47.028
 21
-47.012
  0
LINE
  8
0
 10
-4.456
 11
-4.378
 20
-47.012
 21
-47.003
  0
LINE
  8
0
 10
-4.378
 11
-4.3
 20
-47.003
 21
-47
  0
LINE
  8
0
 10
-4.3
 11
-4.222
 20
-47
 21
-47.003
  0
LINE
  8
0
 10
-4.222
 11
-4.144
 20
-47.003
 21
-47.012
  0
LINE
  8
0
 10
-4.144
 11
-4.067
 20
-47.012
 21
-47.028
  0
LINE
  8
0
 10
-4.067
 11
-3.991
 20
-47.028
 21
-47.049
  0
LINE
  8
0
 10
-3.991
 11
-3.917
 20
-47.049
 21
-47.076
  0
LINE
  8
0
 10
-3.917
 11
-3.846
 20
-47.076
 21
-47.109
  0
LINE
  8
0
 10
-3.846
 11
-3.778
 20
-47.109
 21
-47.147
  0
LINE
  8
0
 10
-3.778
 11
-3.712
 20
-47.147
 21
-47.191
  0
LINE
  8
0
 10
-3.712
 11
-3.651
 20
-47.191
 21
-47.24
  0
LINE
  8
0
 10
-3.651
 11
-3.593
 20
-47.24
 21
-47.293
  0
LINE
  8
0
 10
-3.593
 11
-3.54
 20
-47.293
 21
-47.351
  0
LINE
  8
0
 10
-3.54
 11
-3.491
 20
-47.351
 21
-47.412
  0
LINE
  8
0
 10
-3.491
 11
-3.447
 20
-47.412
 21
-47.478
  0
LINE
  8
0
 10
-3.447
 11
-3.409
 20
-47.478
 21
-47.546
  0
LINE
  8
0
 10
-3.409
 11
-3.376
 20
-47.546
 21
-47.617
  0
LINE
  8
0
 10
-3.376
 11
-3.349
 20
-47.617
 21
-47.691
  0
LINE
  8
0
 10
-3.349
 11
-3.328
 20
-47.691
 21
-47.767
  0
LINE
  8
0
 10
-3.328
 11
-3.312
 20
-47.767
 21
-47.844
  0
LINE
  8
0
 10
-3.312
 11
-3.303
 20
-47.844
 21
-47.922
  0
LINE
  8
0
 10
-3.303
 11
-3.3
 20
-47.922
 21
-48
  0
LINE
  8
0
 10
-3.3
 11
-3.303
 20
-48
 21
-48.078
  0
LINE
  8
0
 10
-3.303
 11
-3.312
 20
-48.078
 21
-48.156
  0
LINE
  8
0
 10
-3.312
 11
-3.328
 20
-48.156
 21
-48.233
  0
LINE
  8
0
 10
-3.328
 11
-3.349
 20
-48.233
 21
-48.309
  0
LINE
  8
0
 10
-3.349
 11
-3.376
 20
-48.309
 21
-48.383
  0
LINE
  8
0
 10
-3.376
 11
-3.409
 20
-48.383
 21
-48.454
  0
LINE
  8
0
 10
-3.409
 11
-3.447
 20
-48.454
 21
-48.522
  0
LINE
  8
0
 10
-3.447
 11
-3.491
 20
-48.522
 21
-48.588
  0
LINE
  8
0
 10
-3.491
 11
-3.54
 20
-48.588
 21
-48.649
  0
LINE
  8
0
 10
-3.54
 11
-3.593
 20
-48.649
 21
-48.707
  0
LINE
  8
0
 10
-3.593
 11
-3.651
 20
-48.707
 21
-48.76
  0
LINE
  8
0
 10
-3.651
 11
-3.712
 20
-48.76
 21
-48.809
  0
LINE
  8
0
 10
-3.712
 11
-3.778
 20
-48.809
 21
-48.853
  0
LINE
  8
0
 10
-3.778
 11
-3.846
 20
-48.853
 21
-48.891
  0
LINE
  8
0
 10
-3.846
 11
-3.917
 20
-48.891
 21
-48.924
  0
LINE
  8
0
 10
-3.917
 11
-3.991
 20
-48.924
 21
-48.951
  0
LINE
  8
0
 10
-3.991
 11
-4.067
 20
-48.951
 21
-48.972
  0
LINE
  8
0
 10
-4.067
 11
-4.144
 20
-48.972
 21
-48.988
  0
LINE
  8
0
 10
-4.144
 11
-4.222
 20
-48.988
 21
-48.997
  0
LINE
  8
0
 10
-4.222
 11
-4.3
 20
-48.997
 21
-49
  0
LINE
  8
0
 10
-4.3
 11
-4.378
 20
-49
 21
-48.997
  0
LINE
  8
0
 10
-4.378
 11
-4.456
 20
-48.997
 21
-48.988
  0
LINE
  8
0
 10
-4.456
 11
-4.533
 20
-48.988
 21
-48.972
  0
LINE
  8
0
 10
-4.533
 11
-4.609
 20
-48.972
 21
-48.951
  0
LINE
  8
0
 10
-4.609
 11
-4.683
 20
-48.951
 21
-48.924
  0
LINE
  8
0
 10
-4.683
 11
-4.754
 20
-48.924
 21
-48.891
  0
LINE
  8
0
 10
-4.754
 11
-4.822
 20
-48.891
 21
-48.853
  0
LINE
  8
0
 10
-4.822
 11
-4.888
 20
-48.853
 21
-48.809
  0
LINE
  8
0
 10
-4.888
 11
-4.949
 20
-48.809
 21
-48.76
  0
LINE
  8
0
 10
-4.949
 11
-5.007
 20
-48.76
 21
-48.707
  0
LINE
  8
0
 10
-5.007
 11
-5.06
 20
-48.707
 21
-48.649
  0
LINE
  8
0
 10
-5.06
 11
-5.109
 20
-48.649
 21
-48.588
  0
LINE
  8
0
 10
-5.109
 11
-5.153
 20
-48.588
 21
-48.522
  0
LINE
  8
0
 10
-5.153
 11
-5.191
 20
-48.522
 21
-48.454
  0
LINE
  8
0
 10
-5.191
 11
-5.224
 20
-48.454
 21
-48.383
  0
LINE
  8
0
 10
-5.224
 11
-5.251
 20
-48.383
 21
-48.309
  0
LINE
  8
0
 10
-5.251
 11
-5.272
 20
-48.309
 21
-48.233
  0
LINE
  8
0
 10
-5.272
 11
-5.288
 20
-48.233
 21
-48.156
  0
LINE
  8
0
 10
-5.288
 11
-5.297
 20
-48.156
 21
-48.078
  0
LINE
  8
0
 10
-5.297
 11
-5.3
 20
-48.078
 21
-48
  0
LINE
  8
0
 10
-2.799
 11
-2.653
 20
0
 21
0.174
  0
LINE
  8
0
 10
-2.653
 11
-2.387
 20
0.174
 21
0.392
  0
LINE
  8
0
 10
-2.387
 11
-2.141
 20
0.392
 21
0.525
  0
LINE
  8
0
 10
-2.141
 11
-2.059
 20
0.525
 21
0.552
  0
LINE
  8
0
 10
-2.059
 11
-2.117
 20
0.552
 21
0.616
  0
LINE
  8
0
 10
-2.117
 11
-2.263
 20
0.616
 21
0.854
  0
LINE
  8
0
 10
-2.263
 11
-2.385
 20
0.854
 21
1.176
  0
LINE
  8
0
 10
-2.385
 11
-2.424
 20
1.176
 21
1.4
  0
LINE
  8
0
 10
-2.424
 11
-2.211
 20
1.4
 21
1.477
  0
LINE
  8
0
 10
-2.211
 11
-1.871
 20
1.477
 21
1.533
  0
LINE
  8
0
 10
-1.871
 11
-1.592
 20
1.533
 21
1.525
  0
LINE
  8
0
 10
-1.592
 11
-1.507
 20
1.525
 21
1.507
  0
LINE
  8
0
 10
-1.507
 11
-1.525
 20
1.507
 21
1.592
  0
LINE
  8
0
 10
-1.525
 11
-1.533
 20
1.592
 21
1.871
  0
LINE
  8
0
 10
-1.533
 11
-1.477
 20
1.871
 21
2.211
  0
LINE
  8
0
 10
-1.477
 11
-1.4
 20
2.211
 21
2.424
  0
LINE
  8
0
 10
-1.4
 11
-1.176
 20
2.424
 21
2.385
  0
LINE
  8
0
 10
-1.176
 11
-0.854
 20
2.385
 21
2.263
  0
LINE
  8
0
 10
-0.854
 11
-0.616
 20
2.263
 21
2.117
  0
LINE
  8
0
 10
-0.616
 11
-0.552
 20
2.117
 21
2.059
  0
LINE
  8
0
 10
-0.552
 11
-0.525
 20
2.059
 21
2.141
  0
LINE
  8
0
 10
-0.525
 11
-0.392
 20
2.141
 21
2.387
  0
LINE
  8
0
 10
-0.392
 11
-0.174
 20
2.387
 21
2.653
  0
LINE
  8
0
 10
-0.174
 11
0
 20
2.653
 21
2.799
  0
LINE
  8
0
 10
0
 11
0.174
 20
2.799
 21
2.653
  0
LINE
  8
0
 10
0.174
 11
0.392
 20
2.653
 21
2.387
  0
LINE
  8
0
 10
0.392
 11
0.525
 20
2.387
 21
2.141
  0
LINE
  8
0
 10
0.525
 11
0.552
 20
2.141
 21
2.059
  0
LINE
  8
0
 10
0.552
 11
0.616
 20
2.059
 21
2.117
  0
LINE
  8
0
 10
0.616
 11
0.854
 20
2.117
 21
2.263
  0
LINE
  8
0
 10
0.854
 11
1.176
 20
2.263
 21
2.385
  0
LINE
  8
0
 10
1.176
 11
1.4
 20
2.385
 21
2.424
  0
LINE
  8
0
 10
1.4
 11
1.477
 20
2.424
 21
2.211
  0
LINE
  8
0
 10
1.477
 11
1.533
 20
2.211
 21
1.871
  0
LINE
  8
0
 10
1.533
 11
1.525
 20
1.871
 21
1.592
  0
LINE
  8
0
 10
1.525
 11
1.507
 20
1.592
 21
1.507
  0
LINE
  8
0
 10
1.507
 11
1.592
 20
1.507
 21
1.525
  0
LINE
  8
0
 10
1.592
 11
1.871
 20
1.525
 21
1.533
  0
LINE
  8
0
 10
1.871
 11
2.211
 20
1.533
 21
1.477
  0
LINE
  8
0
 10
2.211
 11
2.424
 20
1.477
 21
1.4
  0
LINE
  8
0
 10
2.424
 11
2.385
 20
1.4
 21
1.176
  0
LINE
  8
0
 10
2.385
 11
2.263
 20
1.176
 21
0.854
  0
LINE
  8
0
 10
2.263
 11
2.117
 20
0.854
 21
0.616
  0
LINE
  8
0
 10
2.117
 11
2.059
 20
0.616
 21
0.552
  0
LINE
  8
0
 10
2.059
 11
2.141
 20
0.552
 21
0.525
  0
LINE
  8
0
 10
2.141
 11
2.387
 20
0.525
 21
0.392
  0
LINE
  8
0
 10
2.387
 11
2.653
 20
0.392
 21
0.174
  0
LINE
  8
0
 10
2.653
 11
2.799
 20
0.174
 21
0
  0
LINE
  8
0
 10
2.799
 11
2.653
 20
0
 21
-0.174
  0
LINE
  8
0
 10
2.653
 11
2.387
 20
-0.174
 21
-0.392
  0
LINE
  8
0
 10
2.387
 11
2.141
 20
-0.392
 21
-0.525
  0
LINE
  8
0
 10
2.141
 11
2.059
 20
-0.525
 21
-0.552
  0
LINE
  8
0
 10
2.059
 11
2.117
 20
-0.552
 21
-0.616
  0
LINE
  8
0
 10
2.117
 11
2.263
 20
-0.616
 21
-0.854
  0
LINE
  8
0
 10
2.263
 11
2.385
 20
-0.854
 21
-1.176
  0
LINE
  8
0
 10
2.385
 11
2.424
 20
-1.176
 21
-1.4
  0
LINE
  8
0
 10
2.424
 11
2.211
 20
-1.4
 21
-1.477
  0
LINE
  8
0
 10
2.211
 11
1.871
 20
-1.477
 21
-1.533
  0
LINE
  8
0
 10
1.871
 11
1.592
 20
-1.533
 21
-1.525
  0
LINE
  8
0
 10
1.592
 11
1.507
 20
-1.525
 21
-1.507
  0
LINE
  8
0
 10
1.507
 11
1.525
 20
-1.507
 21
-1.592
  0
LINE
  8
0
 10
1.525
 11
1.533
 20
-1.592
 21
-1.871
  0
LINE
  8
0
 10
1.533
 11
1.477
 20
-1.871
 21
-2.211
  0
LINE
  8
0
 10
1.477
 11
1.4
 20
-2.211
 21
-2.424
  0
LINE
  8
0
 10
1.4
 11
1.176
 20
-2.424
 21
-2.385
  0
LINE
  8
0
 10
1.176
 11
0.854
 20
-2.385
 21
-2.263
  0
LINE
  8
0
 10
0.854
 11
0.616
 20
-2.263
 21
-2.117
  0
LINE
  8
0
 10
0.616
 11
0.552
 20
-2.117
 21
-2.059
  0
LINE
  8
0
 10
0.552
 11
0.525
 20
-2.059
 21
-2.141
  0
LINE
  8
0
 10
0.525
 11
0.392
 20
-2.141
 21
-2.387
  0
LINE
  8
0
 10
0.392
 11
0.174
 20
-2.387
 21
-2.653
  0
LINE
  8
0
 10
0.174
 11
0
 20
-2.653
 21
-2.799
  0
LINE
  8
0
 10
0
 11
-0.174
 20
-2.799
 21
-2.653
  0
LINE
  8
0
 10
-0.174
 11
-0.392
 20
-2.653
 21
-2.387
  0
LINE
  8
0
 10
-0.392
 11
-0.525
 20
-2.387
 21
-2.141
  0
LINE
  8
0
 10
-0.525
 11
-0.552
 20
-2.141
 21
-2.059
  0
LINE
  8
0
 10
-0.552
 11
-0.616
 20
-2.059
 21
-2.117
  0
LINE
  8
0
 10
-0.616
 11
-0.854
 20
-2.117
 21
-2.263
  0
LINE
  8
0
 10
-0.854
 11
-1.176
 20
-2.263
 21
-2.385
  0
LINE
  8
0
 10
-1.176
 11
-1.4
 20
-2.385
 21
-2.424
  0
LINE
  8
0
 10
-1.4
 11
-1.477
 20
-2.424
 21
-2.211
  0
LINE
  8
0
 10
-1.477
 11
-1.533
 20
-2.211
 21
-1.871
  0
LINE
  8
0
 10
-1.533
 11
-1.525
 20
-1.871
 21
-1.592
  0
LINE
  8
0
 10
-1.525
 11
-1.507
 20
-1.592
 21
-1.507
  0
LINE
  8
0
 10
-1.507
 11
-1.592
 20
-1.507
 21
-1.525
  0
LINE
  8
0
 10
-1.592
 11
-1.871
 20
-1.525
 21
-1.533
  0
LINE
  8
0
 10
-1.871
 11
-2.211
 20
-1.533
 21
-1.477
  0
LINE
  8
0
 10
-2.211
 11
-2.424
 20
-1.477
 21
-1.4
  0
LINE
  8
0
 10
-2.424
 11
-2.385
 20
-1.4
 21
-1.176
  0
LINE
  8
0
 10
-2.385
 11
-2.263
 20
-1.176
 21
-0.854
  0
LINE
  8
0
 10
-2.263
 11
-2.117
 20
-0.854
 21
-0.616
  0
LINE
  8
0
 10
-2.117
 11
-2.059
 20
-0.616
 21
-0.552
  0
LINE
  8
0
 10
-2.059
 11
-2.141
 20
-0.552
 21
-0.525
  0
LINE
  8
0
 10
-2.141
 11
-2.387
 20
-0.525
 21
-0.392
  0
LINE
  8
0
 10
-2.387
 11
-2.653
 20
-0.392
 21
-0.174
  0
LINE
  8
0
 10
-2.653
 11
-2.799
 20
-0.174
 21
0
  0
LINE
  8
0
 10
2.15
 11
2.166
 20
-24
 21
-23.588
  0
LINE
  8
0
 10
2.166
 11
2.215
 20
-23.588
 21
-23.179
  0
LINE
  8
0
 10
2.215
 11
2.295
 20
-23.179
 21
-22.774
  0
LINE
  8
0
 10
2.295
 11
2.407
 20
-22.774
 21
-22.378
  0
LINE
  8
0
 10
2.407
 11
2.55
 20
-22.378
 21
-21.991
  0
LINE
  8
0
 10
2.55
 11
2.722
 20
-21.991
 21
-21.617
  0
LINE
  8
0
 10
2.722
 11
2.924
 20
-21.617
 21
-21.257
  0
LINE
  8
0
 10
2.924
 11
3.153
 20
-21.257
 21
-20.914
  0
LINE
  8
0
 10
3.153
 11
3.408
 20
-20.914
 21
-20.59
  0
LINE
  8
0
 10
3.408
 11
3.688
 20
-20.59
 21
-20.288
  0
LINE
  8
0
 10
3.688
 11
3.99
 20
-20.288
 21
-20.008
  0
LINE
  8
0
 10
3.99
 11
4.314
 20
-20.008
 21
-19.753
  0
LINE
  8
0
 10
4.314
 11
4.657
 20
-19.753
 21
-19.524
  0
LINE
  8
0
 10
4.657
 11
5.017
 20
-19.524
 21
-19.322
  0
LINE
  8
0
 10
5.017
 11
5.391
 20
-19.322
 21
-19.15
  0
LINE
  8
0
 10
5.391
 11
5.778
 20
-19.15
 21
-19.007
  0
LINE
  8
0
 10
5.778
 11
6.174
 20
-19.007
 21
-18.895
  0
LINE
  8
0
 10
6.174
 11
6.579
 20
-18.895
 21
-18.815
  0
LINE
  8
0
 10
6.579
 11
6.988
 20
-18.815
 21
-18.766
  0
LINE
  8
0
 10
6.988
 11
7.4
 20
-18.766
 21
-18.75
  0
LINE
  8
0
 10
7.4
 11
7.812
 20
-18.75
 21
-18.766
  0
LINE
  8
0
 10
7.812
 11
8.221
 20
-18.766
 21
-18.815
  0
LINE
  8
0
 10
8.221
 11
8.626
 20
-18.815
 21
-18.895
  0
LINE
  8
0
 10
8.626
 11
9.022
 20
-18.895
 21
-19.007
  0
LINE
  8
0
 10
9.022
 11
9.409
 20
-19.007
 21
-19.15
  0
LINE
  8
0
 10
9.409
 11
9.783
 20
-19.15
 21
-19.322
  0
LINE
  8
0
 10
9.783
 11
10.143
 20
-19.322
 21
-19.524
  0
LINE
  8
0
 10
10.143
 11
10.486
 20
-19.524
 21
-19.753
  0
LINE
  8
0
 10
10.486
 11
10.81
 20
-19.753
 21
-20.008
  0
LINE
  8
0
 10
10.81
 11
11.112
 20
-20.008
 21
-20.288
  0
LINE
  8
0
 10
11.112
 11
11.392
 20
-20.288
 21
-20.59
  0
LINE
  8
0
 10
11.392
 11
11.647
 20
-20.59
 21
-20.914
  0
LINE
  8
0
 10
11.647
 11
11.876
 20
-20.914
 21
-21.257
  0
LINE
  8
0
 10
11.876
 11
12.078
 20
-21.257
 21
-21.617
  0
LINE
  8
0
 10
12.078
 11
12.25
 20
-21.617
 21
-21.991
  0
LINE
  8
0
 10
12.25
 11
12.393
 20
-21.991
 21
-22.378
  0
LINE
  8
0
 10
12.393
 11
12.505
 20
-22.378
 21
-22.774
  0
LINE
  8
0
 10
12.505
 11
12.585
 20
-22.774
 21
-23.179
  0
LINE
  8
0
 10
12.585
 11
12.634
 20
-23.179
 21
-23.588
  0
LINE
  8
0
 10
12.634
 11
12.65
 20
-23.588
 21
-24
  0
LINE
  8
0
 10
12.65
 11
12.634
 20
-24
 21
-24.412
  0
LINE
  8
0
 10
12.634
 11
12.585
 20
-24.412
 21
-24.821
  0
LINE
  8
0
 10
12.585
 11
12.505
 20
-24.821
 21
-25.226
  0
LINE
  8
0
 10
12.505
 11
12.393
 20
-25.226
 21
-25.622
  0
LINE
  8
0
 10
12.393
 11
12.25
 20
-25.622
 21
-26.009
  0
LINE
  8
0
 10
12.25
 11
12.078
 20
-26.009
 21
-26.383
  0
LINE
  8
0
 10
12.078
 11
11.876
 20
-26.383
 21
-26.743
  0
LINE
  8
0
 10
11.876
 11
11.647
 20
-26.743
 21
-27.086
  0
LINE
  8
0
 10
11.647
 11
11.392
 20
-27.086
 21
-27.41
  0
LINE
  8
0
 10
11.392
 11
11.112
 20
-27.41
 21
-27.712
  0
LINE
  8
0
 10
11.112
 11
10.81
 20
-27.712
 21
-27.992
  0
LINE
  8
0
 10
10.81
 11
10.486
 20
-27.992
 21
-28.247
  0
LINE
  8
0
 10
10.486
 11
10.143
 20
-28.247
 21
-28.476
  0
LINE
  8
0
 10
10.143
 11
9.783
 20
-28.476
 21
-28.678
  0
LINE
  8
0
 10
9.783
 11
9.409
 20
-28.678
 21
-28.85
  0
LINE
  8
0
 10
9.409
 11
9.022
 20
-28.85
 21
-28.993
  0
LINE
  8
0
 10
9.022
 11
8.626
 20
-28.993
 21
-29.105
  0
LINE
  8
0
 10
8.626
 11
8.221
 20
-29.105
 21
-29.185
  0
LINE
  8
0
 10
8.221
 11
7.812
 20
-29.185
 21
-29.234
  0
LINE
  8
0
 10
7.812
 11
7.4
 20
-29.234
 21
-29.25
  0
LINE
  8
0
 10
7.4
 11
6.988
 20
-29.25
 21
-29.234
  0
LINE
  8
0
 10
6.988
 11
6.579
 20
-29.234
 21
-29.185
  0
LINE
  8
0
 10
6.579
 11
6.174
 20
-29.185
 21
-29.105
  0
LINE
  8
0
 10
6.174
 11
5.778
 20
-29.105
 21
-28.993
  0
LINE
  8
0
 10
5.778
 11
5.391
 20
-28.993
 21
-28.85
  0
LINE
  8
0
 10
5.391
 11
5.017
 20
-28.85
 21
-28.678
  0
LINE
  8
0
 10
5.017
 11
4.657
 20
-28.678
 21
-28.476
  0
LINE
  8
0
 10
4.657
 11
4.314
 20
-28.476
 21
-28.247
  0
LINE
  8
0
 10
4.314
 11
3.99
 20
-28.247
 21
-27.992
  0
LINE
  8
0
 10
3.99
 11
3.688
 20
-27.992
 21
-27.712
  0
LINE
  8
0
 10
3.688
 11
3.408
 20
-27.712
 21
-27.41
  0
LINE
  8
0
 10
3.408
 11
3.153
 20
-27.41
 21
-27.086
  0
LINE
  8
0
 10
3.153
 11
2.924
 20
-27.086
 21
-26.743
  0
LINE
  8
0
 10
2.924
 11
2.722
 20
-26.743
 21
-26.383
  0
LINE
  8
0
 10
2.722
 11
2.55
 20
-26.383
 21
-26.009
  0
LINE
  8
0
 10
2.55
 11
2.407
 20
-26.009
 21
-25.622
  0
LINE
  8
0
 10
2.407
 11
2.295
 20
-25.622
 21
-25.226
  0
LINE
  8
0
 10
2.295
 11
2.215
 20
-25.226
 21
-24.821
  0
LINE
  8
0
 10
2.215
 11
2.166
 20
-24.821
 21
-24.412
  0
LINE
  8
0
 10
2.166
 11
2.15
 20
-24.412
 21
-24
  0
LINE
  8
0
 10
3.1
 11
3.1
 20
-96
 21
-40
  0
LINE
  8
0
 10
3.1
 11
28.1
 20
-40
 21
-40
  0
LINE
  8
0
 10
28.1
 11
28.1
 20
-40
 21
-96
  0
LINE
  8
0
 10
28.1
 11
3.1
 20
-96
 21
-96
  0
LINE
  8
0
 10
10.15
 11
10.15
 20
-62.4
 21
-59.5
  0
LINE
  8
0
 10
10.15
 11
13.05
 20
-59.5
 21
-59.5
  0
LINE
  8
0
 10
13.05
 11
13.05
 20
-59.5
 21
-62.4
  0
LINE
  8
0
 10
13.05
 11
10.15
 20
-62.4
 21
-62.4
  0
LINE
  8
0
 10
10.15
 11
10.15
 20
-57.15
 21
-54.25
  0
LINE
  8
0
 10
10.15
 11
13.05
 20
-54.25
 21
-54.25
  0
LINE
  8
0
 10
13.05
 11
13.05
 20
-54.25
 21
-57.15
  0
LINE
  8
0
 10
13.05
 11
10.15
 20
-57.15
 21
-57.15
  0
LINE
  8
0
 10
12.801
 11
12.947
 20
-68
 21
-67.826
  0
LINE
  8
0
 10
12.947
 11
13.213
 20
-67.826
 21
-67.608
  0
LINE
  8
0
 10
13.213
 11
13.459
 20
-67.608
 21
-67.475
  0
LINE
  8
0
 10
13.459
 11
13.541
 20
-67.475
 21
-67.448
  0
LINE
  8
0
 10
13.541
 11
13.483
 20
-67.448
 21
-67.384
  0
LINE
  8
0
 10
13.483
 11
13.337
 20
-67.384
 21
-67.146
  0
LINE
  8
0
 10
13.337
 11
13.215
 20
-67.146
 21
-66.824
  0
LINE
  8
0
 10
13.215
 11
13.176
 20
-66.824
 21
-66.6
  0
LINE
  8
0
 10
13.176
 11
13.389
 20
-66.6
 21
-66.523
  0
LINE
  8
0
 10
13.389
 11
13.729
 20
-66.523
 21
-66.467
  0
LINE
  8
0
 10
13.729
 11
14.008
 20
-66.467
 21
-66.475
  0
LINE
  8
0
 10
14.008
 11
14.093
 20
-66.475
 21
-66.493
  0
LINE
  8
0
 10
14.093
 11
14.075
 20
-66.493
 21
-66.408
  0
LINE
  8
0
 10
14.075
 11
14.067
 20
-66.408
 21
-66.129
  0
LINE
  8
0
 10
14.067
 11
14.123
 20
-66.129
 21
-65.789
  0
LINE
  8
0
 10
14.123
 11
14.2
 20
-65.789
 21
-65.576
  0
LINE
  8
0
 10
14.2
 11
14.424
 20
-65.576
 21
-65.615
  0
LINE
  8
0
 10
14.424
 11
14.746
 20
-65.615
 21
-65.737
  0
LINE
  8
0
 10
14.746
 11
14.984
 20
-65.737
 21
-65.883
  0
LINE
  8
0
 10
14.984
 11
15.048
 20
-65.883
 21
-65.941
  0
LINE
  8
0
 10
15.048
 11
15.075
 20
-65.941
 21
-65.859
  0
LINE
  8
0
 10
15.075
 11
15.208
 20
-65.859
 21
-65.613
  0
LINE
  8
0
 10
15.208
 11
15.426
 20
-65.613
 21
-65.347
  0
LINE
  8
0
 10
15.426
 11
15.6
 20
-65.347
 21
-65.201
  0
LINE
  8
0
 10
15.6
 11
15.774
 20
-65.201
 21
-65.347
  0
LINE
  8
0
 10
15.774
 11
15.992
 20
-65.347
 21
-65.613
  0
LINE
  8
0
 10
15.992
 11
16.125
 20
-65.613
 21
-65.859
  0
LINE
  8
0
 10
16.125
 11
16.152
 20
-65.859
 21
-65.941
  0
LINE
  8
0
 10
16.152
 11
16.216
 20
-65.941
 21
-65.883
  0
LINE
  8
0
 10
16.216
 11
16.454
 20
-65.883
 21
-65.737
  0
LINE
  8
0
 10
16.454
 11
16.776
 20
-65.737
 21
-65.615
  0
LINE
  8
0
 10
16.776
 11
17
 20
-65.615
 21
-65.576
  0
LINE
  8
0
 10
17
 11
17.077
 20
-65.576
 21
-65.789
  0
LINE
  8
0
 10
17.077
 11
17.133
 20
-65.789
 21
-66.129
  0
LINE
  8
0
 10
17.133
 11
17.125
 20
-66.129
 21
-66.408
  0
LINE
  8
0
 10
17.125
 11
17.107
 20
-66.408
 21
-66.493
  0
LINE
  8
0
 10
17.107
 11
17.192
 20
-66.493
 21
-66.475
  0
LINE
  8
0
 10
17.192
 11
17.471
 20
-66.475
 21
-66.467
  0
LINE
  8
0
 10
17.471
 11
17.811
 20
-66.467
 21
-66.523
  0
LINE
  8
0
 10
17.811
 11
18.024
 20
-66.523
 21
-66.6
  0
LINE
  8
0
 10
18.024
 11
17.985
 20
-66.6
 21
-66.824
  0
LINE
  8
0
 10
17.985
 11
17.863
 20
-66.824
 21
-67.146
  0
LINE
  8
0
 10
17.863
 11
17.717
 20
-67.146
 21
-67.384
  0
LINE
  8
0
 10
17.717
 11
17.659
 20
-67.384
 21
-67.448
  0
LINE
  8
0
 10
17.659
 11
17.741
 20
-67.448
 21
-67.475
  0
LINE
  8
0
 10
17.741
 11
17.987
 20
-67.475
 21
-67.608
  0
LINE
  8
0
 10
17.987
 11
18.253
 20
-67.608
 21
-67.826
  0
LINE
  8
0
 10
18.253
 11
18.399
 20
-67.826
 21
-68
  0
LINE
  8
0
 10
18.399
 11
18.253
 20
-68
 21
-68.174
  0
LINE
  8
0
 10
18.253
 11
17.987
 20
-68.174
 21
-68.392
  0
LINE
  8
0
 10
17.987
 11
17.741
 20
-68.392
 21
-68.525
  0
LINE
  8
0
 10
17.741
 11
17.659
 20
-68.525
 21
-68.552
  0
LINE
  8
0
 10
17.659
 11
17.717
 20
-68.552
 21
-68.616
  0
LINE
  8
0
 10
17.717
 11
17.863
 20
-68.616
 21
-68.854
  0
LINE
  8
0
 10
17.863
 11
17.985
 20
-68.854
 21
-69.176
  0
LINE
  8
0
 10
17.985
 11
18.024
 20
-69.176
 21
-69.4
  0
LINE
  8
0
 10
18.024
 11
17.811
 20
-69.4
 21
-69.477
  0
LINE
  8
0
 10
17.811
 11
17.471
 20
-69.477
 21
-69.533
  0
LINE
  8
0
 10
17.471
 11
17.192
 20
-69.533
 21
-69.525
  0
LINE
  8
0
 10
17.192
 11
17.107
 20
-69.525
 21
-69.507
  0
LINE
  8
0
 10
17.107
 11
17.125
 20
-69.507
 21
-69.592
  0
LINE
  8
0
 10
17.125
 11
17.133
 20
-69.592
 21
-69.871
  0
LINE
  8
0
 10
17.133
 11
17.077
 20
-69.871
 21
-70.211
  0
LINE
  8
0
 10
17.077
 11
17
 20
-70.211
 21
-70.424
  0
LINE
  8
0
 10
17
 11
16.776
 20
-70.424
 21
-70.385
  0
LINE
  8
0
 10
16.776
 11
16.454
 20
-70.385
 21
-70.263
  0
LINE
  8
0
 10
16.454
 11
16.216
 20
-70.263
 21
-70.117
  0
LINE
  8
0
 10
16.216
 11
16.152
 20
-70.117
 21
-70.059
  0
LINE
  8
0
 10
16.152
 11
16.125
 20
-70.059
 21
-70.141
  0
LINE
  8
0
 10
16.125
 11
15.992
 20
-70.141
 21
-70.387
  0
LINE
  8
0
 10
15.992
 11
15.774
 20
-70.387
 21
-70.653
  0
LINE
  8
0
 10
15.774
 11
15.6
 20
-70.653
 21
-70.799
  0
LINE
  8
0
 10
15.6
 11
15.426
 20
-70.799
 21
-70.653
  0
LINE
  8
0
 10
15.426
 11
15.208
 20
-70.653
 21
-70.387
  0
LINE
  8
0
 10
15.208
 11
15.075
 20
-70.387
 21
-70.141
  0
LINE
  8
0
 10
15.075
 11
15.048
 20
-70.141
 21
-70.059
  0
LINE
  8
0
 10
15.048
 11
14.984
 20
-70.059
 21
-70.117
  0
LINE
  8
0
 10
14.984
 11
14.746
 20
-70.117
 21
-70.263
  0
LINE
  8
0
 10
14.746
 11
14.424
 20
-70.263
 21
-70.385
  0
LINE
  8
0
 10
14.424
 11
14.2
 20
-70.385
 21
-70.424
  0
LINE
  8
0
 10
14.2
 11
14.123
 20
-70.424
 21
-70.211
  0
LINE
  8
0
 10
14.123
 11
14.067
 20
-70.211
 21
-69.871
  0
LINE
  8
0
 10
14.067
 11
14.075
 20
-69.871
 21
-69.592
  0
LINE
  8
0
 10
14.075
 11
14.093
 20
-69.592
 21
-69.507
  0
LINE
  8
0
 10
14.093
 11
14.008
 20
-69.507
 21
-69.525
  0
LINE
  8
0
 10
14.008
 11
13.729
 20
-69.525
 21
-69.533
  0
LINE
  8
0
 10
13.729
 11
13.389
 20
-69.533
 21
-69.477
  0
LINE
  8
0
 10
13.389
 11
13.176
 20
-69.477
 21
-69.4
  0
LINE
  8
0
 10
13.176
 11
13.215
 20
-69.4
 21
-69.176
  0
LINE
  8
0
 10
13.215
 11
13.337
 20
-69.176
 21
-68.854
  0
LINE
  8
0
 10
13.337
 11
13.483
 20
-68.854
 21
-68.616
  0
LINE
  8
0
 10
13.483
 11
13.541
 20
-68.616
 21
-68.552
  0
LINE
  8
0
 10
13.541
 11
13.459
 20
-68.552
 21
-68.525
  0
LINE
  8
0
 10
13.459
 11
13.213
 20
-68.525
 21
-68.392
  0
LINE
  8
0
 10
13.213
 11
12.947
 20
-68.392
 21
-68.174
  0
LINE
  8
0
 10
12.947
 11
12.801
 20
-68.174
 21
-68
  0
LINE
  8
0
 10
18.15
 11
18.15
 20
-62.4
 21
-59.5
  0
LINE
  8
0
 10
18.15
 11
21.05
 20
-59.5
 21
-59.5
  0
LINE
  8
0
 10
21.05
 11
21.05
 20
-59.5
 21
-62.4
  0
LINE
  8
0
 10
21.05
 11
18.15
 20
-62.4
 21
-62.4
  0
LINE
  8
0
 10
18.15
 11
18.15
 20
-57.15
 21
-54.25
  0
LINE
  8
0
 10
18.15
 11
21.05
 20
-54.25
 21
-54.25
  0
LINE
  8
0
 10
21.05
 11
21.05
 20
-54.25
 21
-57.15
  0
LINE
  8
0
 10
21.05
 11
18.15
 20
-57.15
 21
-57.15
  0
LINE
  8
0
 10
24.55
 11
24.55
 20
-1.45
 21
1.45
  0
LINE
  8
0
 10
24.55
 11
27.45
 20
1.45
 21
1.45
  0
LINE
  8
0
 10
27.45
 11
27.45
 20
1.45
 21
-1.45
  0
LINE
  8
0
 10
27.45
 11
24.55
 20
-1.45
 21
-1.45
  0
ENDSEC
  0
SECTION
  2
OBJECTS
  0
DICTIONARY
  0
ENDSEC
  0
EOF
